<?xml version="1.0" encoding="iso-8859-1"?>
<!-- Generator: Adobe Illustrator 19.0.0, SVG Export Plug-In . SVG Version: 6.00 Build 0)  -->
<svg version="1.1" id="Capa_1" xmlns="http://www.w3.org/2000/svg" xmlns:xlink="http://www.w3.org/1999/xlink" x="0px" y="0px"
	 viewBox="0 0 512 512" style="enable-background:new 0 0 512 512;" xml:space="preserve">
<path style="fill:#F1F3F0;" d="M340.382,10.344l106.915,106.915c1.82,1.82,2.843,4.289,2.843,6.864v370.671
	c0,5.361-4.346,9.707-9.707,9.707H71.566c-5.361,0-9.707-4.346-9.707-9.707V17.208c0-5.361,4.346-9.707,9.707-9.707h261.952
	C336.093,7.501,338.562,8.524,340.382,10.344z"/>
<path style="fill:#DCE5DF;" d="M100.685,504.5h-5.822H77.388h-5.822c-5.361,0-9.707-4.346-9.707-9.707V17.208
	c0-5.361,4.346-9.707,9.707-9.707h5.822h17.475h5.822c-5.361,0-9.707,4.346-9.707,9.707v477.586
	C90.978,500.154,95.324,504.5,100.685,504.5z"/>
<path style="fill:#5192A9;" d="M421.019,474.409H90.98V37.593h265.973l64.066,66.979V474.409z"/>
<path style="fill:#F3B05F;" d="M346.894,255.596c6.706,0.263,10.286,8.091,5.972,13.231c-19.983,23.809-49.799,39.086-83.197,39.579
	c-61.26,0.905-112.416-49.468-112.415-110.734c0-51.468,35.11-94.735,82.685-107.159c6.523-1.703,12.084,4.872,9.443,11.076
	c-6.162,14.474-9.332,30.529-8.733,47.387c2.036,57.243,48.123,103.881,105.338,106.581
	C346.29,255.571,346.592,255.583,346.894,255.596z"/>
<path style="fill:#E29F5A;" d="M354.311,266.247c-0.307,0.899-0.768,1.774-1.444,2.58c-19.983,23.809-49.799,39.086-83.197,39.579
	c-61.26,0.905-112.416-49.468-112.415-110.734c0-35.811,17.008-67.637,43.375-87.881c-14.328,18.665-22.857,42.014-22.858,67.363
	c0,61.266,51.156,111.64,112.415,110.734C314.183,287.534,336.331,279.547,354.311,266.247z"/>
<path style="fill:#FFF5C2;" d="M316.056,208.697l-26.663,14.583c-0.996,0.545-1.815,1.364-2.359,2.359l-14.583,26.663
	c-2.251,4.116-8.163,4.116-10.415,0l-14.583-26.663c-0.545-0.996-1.363-1.815-2.359-2.359l-26.663-14.583
	c-4.116-2.251-4.116-8.163,0-10.415l26.663-14.583c0.996-0.545,1.815-1.363,2.359-2.359l14.583-26.663
	c2.251-4.116,8.163-4.116,10.415,0l14.583,26.663c0.545,0.996,1.363,1.815,2.359,2.359l26.663,14.583
	C320.173,200.534,320.173,206.446,316.056,208.697z"/>
<path style="fill:#FFDB8B;" d="M467.372,316.99l-26.663,14.583c-0.996,0.545-1.815,1.363-2.359,2.359l-14.583,26.663
	c-2.251,4.116-8.163,4.116-10.415,0l-14.583-26.663c-0.545-0.996-1.363-1.815-2.359-2.359l-26.663-14.583
	c-4.116-2.251-4.116-8.163,0-10.415l26.663-14.583c0.996-0.545,1.815-1.363,2.359-2.359l14.583-26.663
	c2.251-4.116,8.163-4.116,10.415,0l14.583,26.663c0.545,0.996,1.363,1.815,2.359,2.359l26.663,14.583
	C471.489,308.828,471.489,314.74,467.372,316.99z M150.884,109.043l-19.183-10.491c-0.716-0.392-1.306-0.981-1.697-1.697
	l-10.492-19.184c-1.62-2.961-5.873-2.961-7.493,0l-10.491,19.183c-0.392,0.716-0.981,1.305-1.697,1.697l-19.183,10.491
	c-2.962,1.62-2.962,5.873,0,7.493l19.183,10.491c0.716,0.392,1.306,0.981,1.697,1.697l10.491,19.183c1.62,2.962,5.873,2.962,7.493,0
	l10.491-19.183c0.392-0.716,0.981-1.306,1.697-1.697l19.183-10.491C153.846,114.916,153.846,110.663,150.884,109.043z
	 M502.568,182.333l-16.689-9.128c-0.623-0.341-1.136-0.853-1.477-1.477l-9.128-16.689c-1.409-2.577-5.11-2.577-6.519,0
	l-9.128,16.689c-0.341,0.623-0.853,1.136-1.477,1.477l-16.689,9.128c-2.577,1.409-2.577,5.11,0,6.519l16.689,9.128
	c0.623,0.341,1.136,0.854,1.477,1.477l9.128,16.689c1.409,2.577,5.11,2.577,6.519,0l9.128-16.689
	c0.341-0.623,0.853-1.136,1.477-1.477l16.689-9.128C505.144,187.441,505.144,183.742,502.568,182.333z M98.794,266.359
	l-24.17-13.219c-0.903-0.494-1.645-1.236-2.139-2.139l-13.219-24.17c-2.041-3.731-7.4-3.731-9.441,0l-13.219,24.17
	c-0.494,0.903-1.236,1.645-2.139,2.139l-24.17,13.219c-3.731,2.041-3.731,7.4,0,9.441l24.17,13.219
	c0.903,0.494,1.645,1.236,2.139,2.139l13.219,24.17c2.041,3.731,7.4,3.731,9.441,0l13.219-24.17
	c0.494-0.903,1.236-1.645,2.139-2.139l24.17-13.219C102.525,273.758,102.525,268.399,98.794,266.359z"/>
<path style="fill:#DCE5DF;" d="M450.134,123.985H343.363c-5.361,0-9.707-4.346-9.707-9.707V7.508
	c2.524,0.036,4.938,1.049,6.726,2.836l106.915,106.915C449.085,119.047,450.098,121.461,450.134,123.985z"/>
<path d="M353.07,364.453H158.93c-4.142,0-7.5-3.358-7.5-7.5c0-4.142,3.358-7.5,7.5-7.5h194.14c4.142,0,7.5,3.358,7.5,7.5
	C360.57,361.096,357.212,364.453,353.07,364.453z M512,185.592c0,4.101-2.235,7.872-5.834,9.839l-15.717,8.596l-8.595,15.716
	c-1.968,3.599-5.738,5.834-9.84,5.834c-4.101,0-7.872-2.235-9.839-5.834l-4.534-8.29v81.251l13.331,7.291
	c4.311,2.358,6.989,6.875,6.989,11.788c0,4.913-2.678,9.43-6.989,11.787l-13.331,7.29v163.933c0,9.488-7.719,17.207-17.207,17.207
	H71.566c-9.488,0-17.207-7.719-17.207-17.207V325.625c-4.638-0.067-8.883-2.621-11.113-6.698L30.325,295.3L6.7,282.38
	c-4.133-2.26-6.7-6.589-6.7-11.299s2.567-9.041,6.699-11.301l23.626-12.921l12.921-23.625l0,0c2.23-4.078,6.476-6.632,11.114-6.699
	V17.208C54.359,7.72,62.079,0.001,71.566,0.001h261.952c4.596,0,8.917,1.79,12.167,5.04L452.6,111.956
	c3.25,3.25,5.04,7.571,5.04,12.167v35.606l4.534-8.29l0,0c1.968-3.599,5.738-5.834,9.839-5.834c4.102,0,7.872,2.235,9.84,5.834
	l8.596,15.716l15.716,8.596C509.765,177.719,512,181.491,512,185.592z M432.028,185.592c0-4.102,2.235-7.872,5.834-9.84l4.778-2.613
	v-41.654h-14.12V256.8c0.7,0.773,1.315,1.634,1.828,2.572l12.293,22.477v-83.805l-4.779-2.614
	C434.264,193.464,432.028,189.693,432.028,185.592z M341.156,114.278c0,1.217,0.99,2.207,2.207,2.207h92.554l-94.761-94.761V114.278
	z M69.359,229.656l9.408,17.203l4.713,2.578V126.633l-6.431-3.518c-3.776-2.065-6.123-6.022-6.123-10.326
	c0-4.305,2.346-8.261,6.123-10.327l6.431-3.518V37.593c0-4.142,3.358-7.5,7.5-7.5h235.176V15.001H71.566
	c-1.217,0-2.207,0.99-2.207,2.207V229.656z M89.428,112.79l14.001,7.658c1.979,1.082,3.597,2.7,4.68,4.68l7.657,14l7.658-14.001
	c1.084-1.982,2.703-3.599,4.682-4.68l13.998-7.656l-14.001-7.658c-1.979-1.083-3.597-2.7-4.679-4.679l-7.658-14.001l-7.658,14.001
	c-1.08,1.976-2.697,3.594-4.676,4.678L89.428,112.79z M71.026,282.438l20.769-11.359l-20.77-11.359
	c-2.166-1.184-3.936-2.955-5.121-5.121l-11.358-20.769l-11.359,20.77c-1.184,2.166-2.955,3.937-5.121,5.121L17.297,271.08
	l20.769,11.359c2.166,1.184,3.936,2.955,5.121,5.121l11.359,20.769l11.359-20.769C67.089,285.393,68.86,283.622,71.026,282.438z
	 M442.641,341.716l-12.293,22.478c-0.513,0.938-1.128,1.799-1.828,2.572v107.643c0,4.142-3.358,7.5-7.5,7.5h-65.037
	c-4.142,0-7.5-3.358-7.5-7.5c0-4.142,3.358-7.5,7.5-7.5h57.537v-96.706c-2.828-1.145-5.233-3.24-6.747-6.008l-14.363-26.262
	l-26.261-14.363c-4.311-2.357-6.989-6.873-6.989-11.787s2.678-9.431,6.989-11.788l26.261-14.363l14.363-26.261
	c1.514-2.769,3.919-4.864,6.747-6.008V131.484h-70.156c-9.488,0-17.207-7.719-17.207-17.207V45.093H98.48v41.704l6.959-12.725
	c2.065-3.776,6.022-6.122,10.327-6.122c4.304,0,8.261,2.346,10.326,6.123l10.038,18.353l18.353,10.038
	c3.776,2.065,6.123,6.022,6.123,10.327c0,4.304-2.346,8.261-6.123,10.326l-18.353,10.038l-10.037,18.353
	c-2.065,3.776-6.022,6.123-10.326,6.123c-4.305,0-8.261-2.346-10.327-6.123l-6.959-12.724v118.857l3.912,2.14
	c4.133,2.261,6.7,6.591,6.7,11.301c0,4.71-2.568,9.04-6.7,11.3l-3.912,2.139v182.39h229.028c4.142,0,7.5,3.358,7.5,7.5
	c0,4.142-3.358,7.5-7.5,7.5H90.98c-4.142,0-7.5-3.358-7.5-7.5V292.724l-4.713,2.578l-9.441,17.263
	c0.022,0.233,0.033,0.469,0.033,0.708v181.522c0,1.217,0.99,2.207,2.207,2.207h368.867c1.217,0,2.207-0.99,2.207-2.207
	L442.641,341.716L442.641,341.716z M437.11,298.573c-2.258-1.234-4.105-3.081-5.34-5.34l-13.21-24.154l-13.209,24.153
	c-1.234,2.259-3.082,4.106-5.342,5.342l-24.151,13.209l24.153,13.209c2.26,1.236,4.106,3.083,5.341,5.341l13.209,24.153
	l13.21-24.153c1.236-2.259,3.082-4.104,5.338-5.34l24.156-13.211L437.11,298.573z M492.897,185.592l-10.617-5.807
	c-1.885-1.03-3.428-2.573-4.459-4.46l-5.806-10.616l-5.807,10.618c-1.031,1.885-2.573,3.428-4.459,4.459l-10.616,5.806l10.618,5.807
	c1.885,1.03,3.428,2.573,4.459,4.459l5.806,10.616l5.807-10.618c1.03-1.885,2.573-3.427,4.46-4.459L492.897,185.592z
	 M311.815,378.575h-111.63c-4.142,0-7.5,3.358-7.5,7.5c0,4.142,3.358,7.5,7.5,7.5h111.631c4.142,0,7.5-3.358,7.5-7.5
	C319.316,381.932,315.958,378.575,311.815,378.575z M185.208,281.68c-22.864-22.528-35.455-52.363-35.455-84.008
	c0-53.791,36.306-100.84,88.29-114.416c5.78-1.509,11.792,0.363,15.693,4.885c3.933,4.559,4.908,10.837,2.546,16.386
	c-5.946,13.966-8.684,28.831-8.138,44.182c0.159,4.464,0.608,8.902,1.342,13.287l5.971-10.917l0,0
	c2.358-4.31,6.875-6.988,11.788-6.988l0,0c4.913,0,9.43,2.678,11.787,6.989l14.363,26.261l26.261,14.363
	c4.311,2.358,6.989,6.875,6.989,11.788s-2.678,9.43-6.989,11.787l-26.261,14.363l-0.27,0.493
	c15.789,10.849,34.081,17.028,53.217,17.932l0.844,0.037c6.023,0.236,11.278,3.805,13.717,9.315
	c2.414,5.453,1.535,11.673-2.292,16.232c-22.113,26.348-54.491,41.75-88.831,42.256c-0.587,0.009-1.175,0.013-1.762,0.013
	C237.004,315.919,207.658,303.8,185.208,281.68z M224.541,203.49l24.153,13.21c2.258,1.234,4.106,3.082,5.341,5.342l13.208,24.151
	l13.21-24.153c1.236-2.26,3.083-4.106,5.341-5.341l24.153-13.209l-24.153-13.21c-2.258-1.235-4.105-3.081-5.34-5.34l-13.21-24.154
	l-13.209,24.153c-1.234,2.259-3.082,4.106-5.342,5.342L224.541,203.49z M164.754,197.672c0,27.597,11.003,53.637,30.982,73.323
	c19.991,19.697,46.227,30.319,73.822,29.912c29.981-0.443,58.252-13.893,77.563-36.902c0.099-0.118,0.192-0.229,0.064-0.518
	c-0.169-0.381-0.45-0.392-0.585-0.397l-0.964-0.042c-21.437-1.012-41.942-7.792-59.743-19.695l-6.862,12.547
	c-2.357,4.311-6.874,6.988-11.787,6.989c-4.913,0-9.43-2.678-11.788-6.988l-14.363-26.261l-26.261-14.363
	c-4.31-2.357-6.988-6.873-6.988-11.787s2.678-9.43,6.989-11.788l23.25-12.716c-2.913-9.644-4.57-19.635-4.93-29.744
	c-0.625-17.565,2.513-34.587,9.328-50.591c0.059-0.139,0.169-0.397-0.103-0.712c-0.136-0.158-0.254-0.2-0.361-0.2
	c-0.065,0-0.126,0.016-0.184,0.031C196.45,109.622,164.754,150.702,164.754,197.672z M282.694,427.109h-53.389
	c-4.142,0-7.5,3.358-7.5,7.5c0,4.142,3.358,7.5,7.5,7.5h53.389c4.142,0,7.5-3.358,7.5-7.5
	C290.194,430.468,286.836,427.109,282.694,427.109z"/>
<g>
</g>
<g>
</g>
<g>
</g>
<g>
</g>
<g>
</g>
<g>
</g>
<g>
</g>
<g>
</g>
<g>
</g>
<g>
</g>
<g>
</g>
<g>
</g>
<g>
</g>
<g>
</g>
<g>
</g>
</svg>
