<svg height="512pt" viewBox="-63 0 512 512.00002" width="512pt" xmlns="http://www.w3.org/2000/svg"><path d="m377.925781 16.339844v479.320312c0 4.851563-3.9375 8.789063-8.789062 8.789063h-352.792969c-4.851562 0-8.789062-3.9375-8.789062-8.789063v-479.320312c0-4.851563 3.9375-8.789063 8.789062-8.789063h352.792969c4.851562 0 8.789062 3.9375 8.789062 8.789063zm0 0" fill="#35e298"/><path d="m377.925781 16.339844v479.320312c0 4.851563-3.9375 8.789063-8.789062 8.789063h-320.570313c-4.855468 0-8.792968-3.9375-8.792968-8.789063v-479.320312c0-4.851563 3.9375-8.789063 8.792968-8.789063h320.570313c4.851562 0 8.789062 3.9375 8.789062 8.789063zm0 0" fill="#7af4ab"/><path d="m346.222656 49.816406c-.339844.503906-.738281.980469-1.1875 1.433594l-128.824218 129.738281c-3.949219 3.953125-10.414063 3.953125-14.363282 0l-.515625-.515625-1.285156-1.277344c-3.949219-3.957031-3.949219-10.421874 0-14.371093l128.824219-129.738281c3.949218-3.957032 10.414062-3.957032 14.363281 0l1.800781 1.792968c3.503906 3.503906 3.898438 8.980469 1.1875 12.9375zm0 0" fill="#7c3f2c"/><path d="m346.222656 49.816406c-.339844.503906-.738281.980469-1.1875 1.433594l-128.824218 129.738281c-3.949219 3.953125-10.414063 3.953125-14.363282 0l-.515625-.515625c.339844-.503906.738281-.988281 1.1875-1.433594l128.824219-129.738281c3.949219-3.953125 10.414062-3.953125 14.363281 0zm0 0" fill="#954c35"/><path d="m254.492188 218.074219c-2.464844 2.808593-6.132813 4.242187-9.851563 3.945312-43.300781-3.457031-73.855469 42.074219-55.675781 80.421875 2.417968 5.09375 1.039062 11.164063-3.417969 14.621094-29.601563 22.960938-70.664063 24.085938-101.390625 3.367188-1.875-1.261719-3.703125-2.601563-5.488281-4.023438-2.574219-2.035156-5.042969-4.238281-7.417969-6.613281-4.171875-4.167969-7.820312-8.648438-10.960938-13.375-20.390624-30.671875-19.167968-71.480469 3.691407-100.933594 3.449219-4.453125 9.519531-5.828125 14.613281-3.414063 38.296875 18.15625 83.761719-12.292968 80.4375-55.507812-.292969-3.769531 1.179688-7.476562 4.046875-9.9375 31.648437-27.0625 69.453125-16.292969 88.539063 2.792969 4.816406 4.816406 8.722656 10.21875 11.714843 15.984375 11.984375 23.082031 9.289063 52.015625-8.839843 72.671875zm0 0" fill="#ae583e"/><path d="m254.492188 218.074219c-2.464844 2.808593-6.132813 4.242187-9.851563 3.945312-43.300781-3.457031-73.855469 42.074219-55.675781 80.421875 2.417968 5.09375 1.039062 11.164063-3.417969 14.621094-29.601563 22.960938-70.664063 24.085938-101.390625 3.367188-1.875-1.261719-3.703125-2.601563-5.488281-4.023438-18.261719-30.261719-16.363281-69.296875 5.703125-97.742188 3.457031-4.453124 9.527344-5.832031 14.621094-3.414062 38.296874 18.15625 83.761718-12.292969 80.433593-55.507812-.289062-3.769532 1.175781-7.476563 4.050781-9.9375 27.375-23.414063 59.363282-18.507813 79.855469-4.402344 11.984375 23.082031 9.289063 52.015625-8.839843 72.671875zm0 0" fill="#c0694e"/><path d="m123.4375 280.65625c1.542969 1.546875 1.160156 4.144531-.765625 5.171875l-47.054687 25.160156c-1.140626.609375-2.769532.273438-3.917969-.875-.007813-.003906-.015625-.011719-.019531-.019531-.039063-.035156-.074219-.070312-.109376-.109375-1.125-1.144531-1.476562-2.75-.886718-3.886719l24.550781-47.640625c1.007813-1.957031 3.636719-2.367187 5.195313-.808593zm0 0" fill="#7c3f2c"/><path d="m101.910156 189.65625c-16.140625 0-19.816406-6.535156-28.867187-6.535156-6.082031 0-11.691407 2.738281-15.394531 7.523437-12.738282 16.410157-19.746094 36.941407-19.746094 57.8125 0 52.214844 42.355468 94.386719 94.386718 94.386719 20.871094 0 41.402344-7.007812 57.8125-19.734375 4.785157-3.714844 7.523438-9.324219 7.523438-15.40625 0-8.984375-6.535156-12.832031-6.535156-28.867187 0-14.175782 6.210937-27.820313 17.046875-37.425782 3.121093-2.769531 3.414062-7.542968.644531-10.664062s-7.542969-3.402344-10.664062-.644532c-21.125 18.738282-28.535157 49.253907-16.039063 75.617188.886719 1.929688.425781 4.167969-1.238281 5.457031-13.773438 10.683594-31.011719 16.566407-48.550782 16.566407-16.945312 0-33.125-5.480469-45.433593-14.320313l43.027343-23.007813c4.503907-2.402343 5.324219-8.445312 1.78125-11.992187l-9.324218-9.324219 21.234375-21.230468c3.472656 2.949218 5.152343 6.730468 9.859375 6.730468 6.667968 0 10.113281-8.121094 5.339844-12.890625l-4.527344-4.527343 47.476562-47.472657c6.300782 2.867188 14.328125 1.871094 19.84375-3.644531l35.886719-36.136719c3.753906 7.730469 5.738281 16.269531 5.738281 25.121094 0 13.925781-5.074218 27.386719-14.285156 37.886719-2.820312 3.175781-5.9375-.417969-20.371094 2.246094-4.109375.753906-6.816406 4.703124-6.0625 8.800781.757813 4.097656 4.703125 6.804687 8.800782 6.050781 4.160156-.765625 8.488281-.976562 12.828124-.632812 6.164063.480468 12.152344-1.945313 16.152344-6.503907 11.636719-13.253906 18.042969-30.25 18.042969-47.847656 0-12.960937-3.375-25.40625-9.71875-36.328125l37.980469-38.253906c5.441406 5.421875 4.855468 4.898437 5.433594 5.394531l-.988282.988281c-2.949218 2.949219-2.949218 7.730469 0 10.679688 2.949219 2.945312 7.730469 2.949218 10.679688 0l11.253906-11.253906c2.949219-2.949219 2.949219-7.730469 0-10.679688-2.824219-2.824219-7.324219-2.9375-10.289062-.351562-.492188-.574219-.066407-.085938-5.445313-5.488282l13.875-13.976562c5.53125 5.511718 4.941406 4.980468 5.519531 5.476562l-.988281.988282c-2.949219 2.949218-2.949219 7.730468 0 10.679687 1.476563 1.472656 3.40625 2.210937 5.339844 2.210937 1.933593 0 3.867187-.738281 5.339843-2.210937l11.253907-11.253906c2.949219-2.949219 2.949219-7.730469 0-10.679688-2.824219-2.824219-7.320313-2.933593-10.289063-.351562-.488281-.570313-.050781-.074219-5.535156-5.582031 5.878906-6.988282 14.148438-10.792969 14.148438-21.570313 0-9.023437-6.304688-13.394531-6.988282-14.335937-6.917968-6.917969-18.164062-6.917969-25.101562.019531l-9.164063 9.234375c-4.347656-4.292969-4.28125-4.398438-5.25-5.089844l.816407-.816406c2.949218-2.949219 2.949218-7.730469 0-10.679688-2.953126-2.949218-7.730469-2.949218-10.679688 0l-11.253906 11.253906c-2.949219 2.949219-2.949219 7.730469 0 10.679688 2.917968 2.914062 7.625 2.957031 10.59375.078125.691406.96875.800781.90625 5.128906 5.289063l-13.871094 13.972656-.003906.003906c-4.425781-4.367188-4.367188-4.484375-5.335938-5.175781l.8125-.816407c2.949219-2.949218 2.949219-7.726562 0-10.675781-2.949218-2.949219-7.730468-2.949219-10.675781 0l-11.253906 11.25c-2.949219 2.949219-2.949219 7.730469 0 10.679688 2.902344 2.902343 7.613281 2.96875 10.59375.078125.691406.972656.796875.898437 5.21875 5.378906l-37.949219 38.210938c-25.796875-14.492188-57.828125-13.4375-83.460937 8.488281-4.800781 4.09375-7.160157 10.214843-6.683594 16.28125 2.242187 28.71875-21.632813 52.863281-49.449219 52.863281zm-19.132812 108.824219 16.183594-31.40625c4.605468 4.605469 10.222656 10.226562 14.820312 14.824219zm251.722656-258.378907c.988281-.984374 2.578125-1.039062 3.628906-.117187l1.867188 1.640625c1.007812 1.007812 1.042968 2.683594-.019532 3.746094-123.074218 123.960937-130.117187 130.773437-129.511718 130.171875-2.339844 1.777343-3.992188-1.050781-5.117188-1.9375-1.019531-1.015625-1.019531-2.71875.019532-3.746094 143.644531-144.671875 75.113281-76.058594 129.132812-129.757813zm-167.886719 100.582032c0-4.984375-.90625-6.867188 1.246094-8.691406 11.246094-9.625 23.835937-14.5 37.417969-14.5 8.597656 0 17.277344 2.035156 25.101562 5.738281l-35.714844 35.96875c-5.355468 5.355469-6.566406 13.308593-3.625 19.835937l-47.476562 47.464844-4.523438-4.527344c-2.949218-2.949218-7.730468-2.949218-10.679687 0-2.949219 2.949219-2.949219 7.730469 0 10.679688l4.53125 4.53125-21.234375 21.234375-9.332031-9.335938c-3.609375-3.609375-9.707031-2.660156-12.054688 1.882813l-22.472656 43.609375c-10.042969-14.136719-14.792969-30.046875-14.792969-46.117188 0-17.539062 5.882813-34.785156 16.574219-48.5625 1.238281-1.589843 3.542969-2.121093 5.449219-1.226562 25.027344 11.890625 53.324218 5.5625 71.839844-12.121094 12.738281-12.164063 19.746093-28.445313 19.746093-45.863281zm0 0"/><path d="m57.414062 122.980469c0 9.597656 7.683594 17.550781 17.542969 17.550781 11.816407 0 20.210938-11.394531 16.78125-22.636719v-.007812c-1.945312-6.390625-7.316406-24.101563-7.351562-24.21875l26.367187-16.351563 4.605469 15.164063h-.007813c-10.410156 1.5625-17.191406 12.109375-14.066406 22.425781 2.265625 7.441406 9.011719 12.445312 16.785156 12.445312 11.800782 0 20.191407-11.417968 16.820313-22.527343l-19.414063-63.941407c-2.332031-7.6875-11.199218-10.742187-17.730468-6.6875l-31.917969 19.796876c-3.539063 2.195312-5.652344 5.992187-5.652344 10.15625 0 3.117187.054688 1.359374 12.066407 41.515624h-.003907c-8.210937 1.230469-14.824219 8.335938-14.824219 17.316407zm63.09375-13.167969c0 3.222656-4.875 3.210938-4.875-.011719 0-3.242187 4.875-3.207031 4.875.011719zm-18.292968-60.617188 4 13.164063-26.371094 16.355469-3.996094-13.167969zm-27.257813 71.347657c3.246094 0 3.195313 4.882812 0 4.882812-1.292969 0-2.4375-1.046875-2.4375-2.445312 0-.867188 1.085938-2.4375 2.4375-2.4375zm0 0"/><path d="m277.855469 244.105469-9.484375 38.609375c-.117188-.03125-2.9375-1.261719-6.519532-1.261719-9.714843 0-17.527343 7.855469-17.527343 17.550781 0 9.863282 8.003906 17.539063 17.550781 17.539063 8.59375 0 15.597656-6.191407 17.113281-13.8125.101563-.101563 4.199219-17.035157 5.945313-24.132813l31.023437-.601562-3.78125 15.390625c-9.394531-3.9375-20.910156 1.417969-23.539062 12.089843-2.742188 11.046876 5.648437 21.742188 17.035156 21.742188 8.277344 0 15.140625-5.726562 17-13.25l15.945313-64.898438c1.886718-7.695312-4.082032-14.949218-11.839844-14.796874l-37.550782.734374c-5.40625.105469-10.082031 3.847657-11.371093 9.097657zm-18.429688 54.898437c0-3.25 4.875-3.21875 4.875-.011718 0 3.289062-4.875 3.210937-4.875.011718zm45.664063 13.027344c-2.761719-.671875-2.3125-4.800781.574218-4.800781 3.734376 0 2.847657 5.703125-.574218 4.800781zm17.878906-62.574219-3.285156 13.359375-31.019532.605469 3.28125-13.363281zm0 0"/><path d="m304.082031 189.101562c0 2.871094.695313 5.742188 1.984375 8.308594 8.765625 17.285156 34.878906 10.980469 34.878906-8.328125 0-3.675781-1.316406-7.421875-2.214843-8.71875 0-.011719 0-.011719-.011719-.019531-1.480469-2.765625-25.8125-51.105469-25.882812-51.246094-1.882813-3.71875-6.425782-5.210937-10.148438-3.332031-3.71875 1.882813-5.214844 6.425781-3.332031 10.148437l17.953125 35.507813c-7.761719 2.273437-13.226563 9.355469-13.226563 17.679687zm16.933594-2.96875c3.90625-1.992187 6.90625 3.933594 3.003906 5.929688-3.914062 2-6.929687-3.964844-3.003906-5.929688zm0 0"/><path d="m377.929688 0h-210.628907c-4.171875 0-7.554687 3.382812-7.554687 7.550781 0 4.171875 3.382812 7.550781 7.554687 7.550781h203.078125v481.796876h-355.277344v-481.796876h121.992188c4.167969 0 7.550781-3.378906 7.550781-7.550781 0-4.167969-3.382812-7.550781-7.550781-7.550781h-129.542969c-4.167969 0-7.550781 3.382812-7.550781 7.550781v496.898438c0 4.167969 3.382812 7.550781 7.550781 7.550781h370.378907c4.171874 0 7.550781-3.382812 7.550781-7.550781v-496.898438c0-4.167969-3.378907-7.550781-7.550781-7.550781zm0 0"/><path d="m95.625 372.886719c0 4.171875 3.382812 7.550781 7.550781 7.550781h179.128907c4.167968 0 7.550781-3.378906 7.550781-7.550781s-3.382813-7.550781-7.550781-7.550781h-179.128907c-4.167969 0-7.550781 3.378906-7.550781 7.550781zm0 0"/><path d="m337.964844 398.730469h-290.449219c-4.167969 0-7.550781 3.382812-7.550781 7.554687 0 4.167969 3.382812 7.550782 7.550781 7.550782h290.449219c4.171875 0 7.550781-3.382813 7.550781-7.550782 0-4.171875-3.378906-7.554687-7.550781-7.554687zm0 0"/><path d="m337.964844 429.597656h-290.449219c-4.167969 0-7.550781 3.382813-7.550781 7.550782 0 4.171874 3.382812 7.554687 7.550781 7.554687h290.449219c4.171875 0 7.550781-3.382813 7.550781-7.554687 0-4.167969-3.378906-7.550782-7.550781-7.550782zm0 0"/><path d="m47.515625 460.464844c-4.167969 0-7.550781 3.382812-7.550781 7.550781 0 4.171875 3.382812 7.550781 7.550781 7.550781h201.378906c4.171875 0 7.550781-3.378906 7.550781-7.550781 0-4.167969-3.378906-7.550781-7.550781-7.550781zm0 0"/><path d="m337.964844 460.464844h-58.863282c-4.171874 0-7.554687 3.382812-7.554687 7.550781 0 4.171875 3.382813 7.550781 7.554687 7.550781h58.863282c4.171875 0 7.550781-3.378906 7.550781-7.550781 0-4.167969-3.378906-7.550781-7.550781-7.550781zm0 0"/></svg>