<?xml version="1.0" encoding="iso-8859-1"?>
<!-- Generator: Adobe Illustrator 19.0.0, SVG Export Plug-In . SVG Version: 6.00 Build 0)  -->
<svg version="1.1" id="Capa_1" xmlns="http://www.w3.org/2000/svg" xmlns:xlink="http://www.w3.org/1999/xlink" x="0px" y="0px"
	 viewBox="0 0 512 512" style="enable-background:new 0 0 512 512;" xml:space="preserve">
<rect x="59.077" y="7.575" style="fill:#CCD1D9;" width="393.846" height="404.955"/>
<rect x="59.077" y="412.529" style="fill:#E6E9ED;" width="393.846" height="91.896"/>
<path style="fill:#FFDECF;" d="M321.639,248.844v27.357c0,27.307-16.683,50.725-40.405,60.612
	c-7.766,3.243-16.289,5.029-25.236,5.029c-8.947,0-17.48-1.787-25.247-5.039c-23.722-9.887-40.394-33.295-40.394-60.602v-27.357
	c17.582,6.169,41.051,12.209,65.641,12.209C280.578,261.053,304.057,255.013,321.639,248.844z"/>
<path style="fill:#FFCDBE;" d="M291.34,257.283v18.919c0,27.307-16.683,50.725-40.405,60.612c-3.237,1.351-6.611,2.433-10.085,3.255
	c4.863,1.151,9.932,1.775,15.148,1.775c8.947,0,17.471-1.787,25.236-5.029c23.722-9.886,40.405-33.304,40.405-60.612v-27.357
	C312.822,251.939,302.519,254.999,291.34,257.283z"/>
<path style="fill:#FFDECF;" d="M311.54,362.04l-55.542,40.394l-55.542-40.394h30.296v-25.226v-0.01
	c7.767,3.253,16.299,5.039,25.247,5.039s17.471-1.787,25.236-5.029v25.226L311.54,362.04L311.54,362.04z"/>
<path style="fill:#656D78;" d="M362.033,392.335v20.195H149.962v-20.195c0-16.743,13.542-30.296,30.296-30.296h20.197l55.542,40.394
	l55.542-40.394h20.197C348.481,362.04,362.033,375.592,362.033,392.335z"/>
<g>
	<path style="fill:#434A54;" d="M331.738,362.04H311.54l-1.652,1.201c12.624,3.655,21.846,15.286,21.846,29.095v20.195h30.299
		v-20.195C362.033,375.592,348.481,362.04,331.738,362.04z"/>
	<path style="fill:#434A54;" d="M351.925,321.645h0.01c0,22.328-18.066,40.394-40.394,40.394h-30.306v-25.226
		c23.722-9.886,40.405-33.304,40.405-60.612v-27.357c18.026-6.322,29.841-12.785,30.286-13.027V321.645z"/>
	<path style="fill:#434A54;" d="M230.751,336.812v25.226h-30.296c-22.328,0-40.394-18.066-40.394-40.394v-85.838
		c0,0,11.926,6.594,30.296,13.037V276.2c0,27.307,16.673,50.715,40.394,60.602V336.812z"/>
</g>
<path style="fill:#656D78;" d="M160.061,235.807c0-52.977,42.949-95.937,95.937-95.937c52.977,0,95.937,42.96,95.937,95.937
	c0,0,0,0-0.01,0v0.01c-0.444,0.242-12.261,6.706-30.286,13.027c-17.582,6.169-41.061,12.209-65.641,12.209
	c-24.59,0-48.059-6.039-65.641-12.209C171.988,242.401,160.061,235.807,160.061,235.807z"/>
<path style="fill:#434A54;" d="M255.998,139.87c-5.155,0-10.215,0.412-15.151,1.196c45.781,7.265,80.411,59.957,80.411,107.78
	c0,0,30.222-12.785,30.666-13.027v-0.01c0.01,0,0.01,0,0.01,0C351.935,182.829,308.975,139.87,255.998,139.87z"/>
<rect x="422.627" y="7.575" style="fill:#AAB2BC;" width="30.292" height="404.955"/>
<rect x="422.627" y="412.529" style="fill:#CCD1D9;" width="30.292" height="91.897"/>
<path d="M458.275,2.222C456.872,0.808,454.913,0,452.923,0H59.077c-1.989,0-3.938,0.808-5.352,2.222
	c-1.414,1.404-2.222,3.363-2.222,5.352v224.179c0,4.181,3.403,7.574,7.574,7.574c4.181,0,7.574-3.393,7.574-7.574V15.148h378.698
	v389.807h-75.74v-12.62c0-16.472-10.575-30.515-25.29-35.713c9.34-8.759,15.191-21.194,15.191-34.978
	c0-0.007-0.001-0.013-0.001-0.02v-85.801c0-0.007,0.001-0.013,0.001-0.019c0-0.008,0-0.016,0-0.024c0-0.027,0-0.056-0.001-0.084
	c-0.059-57.027-46.47-103.403-103.51-103.403s-103.452,46.378-103.51,103.405c0,0.026-0.001,0.053-0.001,0.079
	c0,0.009-0.001,0.018-0.001,0.026c0,0.007,0.001,0.013,0.001,0.019v85.82c0,13.783,5.852,26.219,15.191,34.977
	c-14.714,5.2-25.29,19.242-25.29,35.716v12.62h-75.74V262.049c0-4.172-3.393-7.574-7.574-7.574c-4.171,0-7.574,3.402-7.574,7.574
	v242.377c0,1.989,0.808,3.949,2.222,5.352c1.404,1.414,3.363,2.222,5.352,2.222h393.846c2,0,3.949-0.808,5.352-2.222
	c1.414-1.404,2.222-3.353,2.222-5.352V7.574C460.497,5.585,459.689,3.625,458.275,2.222z M354.462,392.334v12.62h-89.055
	l48.6-35.343h17.714c0.007,0,0.013,0.001,0.02,0.001C344.269,369.612,354.462,379.806,354.462,392.334z M197.934,259.331
	c16.644,5.064,36.885,9.296,58.067,9.296c21.182,0,41.423-4.231,58.066-9.296l0.001,16.867c0,32.019-26.048,58.067-58.067,58.067
	s-58.067-26.048-58.067-58.067V259.331z M344.363,321.657c-0.007,18.079-14.707,32.785-32.781,32.806h-22.762v-12.849
	c23.932-12.056,40.396-36.842,40.396-65.417l-0.001-22.007c5.917-2.218,11.034-4.385,15.147-6.244v73.697
	C344.362,321.649,344.363,321.653,344.363,321.657z M230.753,369.612c4.183,0,7.574-3.391,7.574-7.574v-14.794
	c5.663,1.41,11.58,2.169,17.674,2.169c6.092,0,12.008-0.76,17.671-2.168v14.794c0,4.183,3.391,7.574,7.574,7.574h7.006L256,393.067
	l-32.252-23.454L230.753,369.612L230.753,369.612z M256,147.441c47.191,0,85.861,37.184,88.246,83.793
	c-11.952,5.867-48.85,22.244-88.245,22.244c-39.292,0-76.276-16.387-88.247-22.249C170.143,184.622,208.811,147.441,256,147.441z
	 M167.638,247.946c4.113,1.859,9.231,4.025,15.148,6.244v22.007c0,28.574,16.464,53.36,40.393,65.416v12.85h-22.76
	c-18.08-0.022-32.781-14.735-32.781-32.819V247.946z M157.538,392.334c0-12.528,10.193-22.722,22.722-22.722
	c0.006,0,0.013-0.001,0.02-0.001h17.714l48.599,35.343h-89.055V392.334z M66.651,496.852v-76.75h378.698v76.75H66.651z"/>
<path d="M104.519,41.405c-4.183,0-7.574,3.39-7.574,7.574v50.49c0,0.251,0.013,0.502,0.038,0.751
	c0.01,0.108,0.031,0.213,0.046,0.319c0.02,0.138,0.036,0.276,0.064,0.413c0.024,0.124,0.06,0.245,0.09,0.368
	c0.029,0.116,0.056,0.234,0.09,0.35c0.036,0.121,0.082,0.237,0.124,0.356c0.041,0.115,0.079,0.231,0.125,0.343
	c0.046,0.111,0.1,0.218,0.15,0.325c0.055,0.116,0.107,0.232,0.168,0.346c0.056,0.105,0.119,0.204,0.18,0.306
	c0.066,0.11,0.128,0.222,0.201,0.329c0.075,0.112,0.159,0.218,0.239,0.325c0.068,0.09,0.13,0.183,0.202,0.271
	c0.149,0.183,0.308,0.357,0.474,0.524c0.01,0.01,0.018,0.021,0.028,0.031c0.011,0.012,0.024,0.021,0.035,0.032
	c0.166,0.164,0.338,0.32,0.519,0.469c0.088,0.072,0.18,0.134,0.27,0.202c0.108,0.081,0.214,0.165,0.326,0.239
	c0.106,0.071,0.216,0.132,0.325,0.197c0.104,0.063,0.205,0.127,0.311,0.184c0.111,0.06,0.226,0.11,0.338,0.164
	c0.11,0.053,0.219,0.106,0.332,0.153c0.111,0.046,0.224,0.083,0.336,0.123c0.121,0.043,0.24,0.09,0.364,0.127
	c0.112,0.033,0.225,0.059,0.338,0.087c0.127,0.031,0.252,0.067,0.381,0.093c0.131,0.025,0.263,0.041,0.395,0.061
	c0.112,0.017,0.223,0.038,0.338,0.049c0.248,0.024,0.498,0.037,0.747,0.037c0.249,0,0.499-0.013,0.747-0.037
	c0.114-0.011,0.225-0.032,0.337-0.048c0.131-0.02,0.264-0.034,0.395-0.062c0.128-0.025,0.254-0.062,0.381-0.093
	c0.113-0.028,0.226-0.054,0.338-0.087c0.123-0.037,0.242-0.084,0.364-0.127c0.112-0.04,0.225-0.077,0.336-0.123
	c0.113-0.047,0.222-0.102,0.332-0.153c0.113-0.054,0.227-0.105,0.338-0.164c0.105-0.057,0.206-0.12,0.309-0.183
	c0.109-0.065,0.22-0.127,0.327-0.198c0.112-0.075,0.217-0.159,0.324-0.238c0.091-0.068,0.183-0.13,0.272-0.203
	c0.181-0.147,0.353-0.305,0.519-0.469c0.011-0.012,0.024-0.021,0.035-0.032l14.842-14.842l14.842,14.842
	c0.011,0.012,0.024,0.021,0.035,0.032c0.167,0.164,0.338,0.32,0.519,0.469c0.088,0.072,0.18,0.134,0.27,0.202
	c0.108,0.081,0.214,0.165,0.326,0.239c0.106,0.071,0.216,0.132,0.325,0.197c0.104,0.063,0.205,0.127,0.311,0.184
	c0.111,0.06,0.226,0.11,0.338,0.164c0.11,0.053,0.219,0.106,0.332,0.153c0.111,0.046,0.224,0.083,0.336,0.123
	c0.121,0.043,0.24,0.09,0.364,0.127c0.112,0.033,0.225,0.059,0.338,0.087c0.126,0.031,0.252,0.067,0.381,0.093
	c0.131,0.025,0.263,0.041,0.395,0.061c0.112,0.017,0.223,0.038,0.338,0.049c0.248,0.024,0.498,0.037,0.747,0.037
	c0.249,0,0.499-0.013,0.747-0.037c0.114-0.011,0.225-0.032,0.337-0.048c0.131-0.02,0.264-0.034,0.395-0.062
	c0.128-0.025,0.253-0.062,0.38-0.093c0.113-0.028,0.226-0.054,0.338-0.087c0.123-0.037,0.242-0.084,0.364-0.127
	c0.112-0.04,0.225-0.077,0.336-0.123c0.113-0.047,0.222-0.102,0.332-0.153c0.113-0.054,0.227-0.105,0.338-0.164
	c0.106-0.057,0.206-0.12,0.309-0.183c0.109-0.065,0.22-0.127,0.327-0.198c0.112-0.075,0.217-0.159,0.324-0.238
	c0.091-0.068,0.183-0.13,0.272-0.203c0.181-0.147,0.353-0.305,0.519-0.469c0.011-0.012,0.024-0.021,0.035-0.032
	c0.01-0.01,0.018-0.021,0.028-0.031c0.166-0.167,0.324-0.341,0.474-0.524c0.072-0.088,0.134-0.181,0.202-0.271
	c0.081-0.107,0.165-0.213,0.239-0.325c0.072-0.107,0.134-0.219,0.201-0.329c0.061-0.102,0.124-0.201,0.18-0.306
	c0.062-0.113,0.113-0.231,0.168-0.347c0.05-0.107,0.104-0.213,0.149-0.323c0.047-0.113,0.085-0.23,0.127-0.346
	c0.042-0.117,0.087-0.233,0.123-0.354c0.035-0.115,0.061-0.233,0.09-0.35c0.03-0.122,0.065-0.243,0.09-0.368
	c0.027-0.137,0.043-0.275,0.064-0.413c0.015-0.106,0.035-0.211,0.045-0.319c0.024-0.249,0.038-0.5,0.038-0.751V49.063
	c0-4.184-3.391-7.574-7.574-7.574s-7.574,3.39-7.574,7.574v32.125l-7.268-7.268c-2.958-2.957-7.754-2.957-10.711,0l-7.268,7.268
	V48.979C112.093,44.795,108.702,41.405,104.519,41.405z"/>
<path d="M165.108,107.048c3.006,0,5.85-1.802,7.035-4.764l2.135-5.337h22.06l2.135,5.337c1.185,2.962,4.028,4.764,7.035,4.764
	c0.936,0,1.888-0.175,2.81-0.543c3.884-1.553,5.773-5.961,4.219-9.845l-3.478-8.696c-0.185-0.978-0.556-1.886-1.077-2.691
	l-15.642-39.106c-0.011-0.026-0.024-0.052-0.035-0.078c-0.056-0.134-0.119-0.266-0.183-0.397c-0.046-0.097-0.091-0.196-0.141-0.29
	c-0.061-0.113-0.129-0.223-0.196-0.333c-0.064-0.105-0.123-0.211-0.191-0.311c-0.063-0.094-0.132-0.183-0.2-0.274
	c-0.08-0.107-0.157-0.218-0.241-0.32c-0.07-0.086-0.147-0.165-0.221-0.247c-0.089-0.099-0.176-0.201-0.271-0.295
	c-0.084-0.085-0.177-0.163-0.266-0.243c-0.092-0.083-0.182-0.17-0.277-0.248c-0.095-0.078-0.198-0.148-0.297-0.223
	c-0.099-0.073-0.195-0.148-0.296-0.217c-0.096-0.064-0.198-0.121-0.298-0.182c-0.114-0.07-0.227-0.14-0.344-0.203
	c-0.093-0.05-0.191-0.094-0.287-0.14c-0.132-0.064-0.264-0.127-0.399-0.184c-0.026-0.011-0.05-0.024-0.078-0.035
	c-0.074-0.029-0.148-0.049-0.222-0.076c-0.133-0.049-0.268-0.098-0.404-0.139c-0.114-0.034-0.228-0.063-0.343-0.092
	c-0.123-0.03-0.245-0.061-0.371-0.086c-0.125-0.025-0.25-0.044-0.377-0.064c-0.117-0.017-0.233-0.033-0.351-0.045
	c-0.13-0.014-0.26-0.021-0.39-0.027c-0.115-0.005-0.231-0.01-0.347-0.01c-0.131,0-0.262,0.005-0.393,0.012
	c-0.115,0.006-0.229,0.012-0.345,0.024c-0.133,0.013-0.266,0.031-0.398,0.052c-0.111,0.017-0.221,0.033-0.331,0.056
	c-0.139,0.027-0.278,0.062-0.415,0.097c-0.101,0.025-0.202,0.052-0.303,0.081c-0.148,0.045-0.295,0.098-0.44,0.15
	c-0.066,0.024-0.132,0.042-0.198,0.068c-0.024,0.01-0.046,0.022-0.071,0.032c-0.144,0.06-0.286,0.127-0.426,0.196
	c-0.087,0.042-0.177,0.082-0.262,0.127c-0.125,0.067-0.245,0.141-0.366,0.215c-0.093,0.057-0.189,0.11-0.279,0.171
	c-0.106,0.071-0.206,0.149-0.309,0.226c-0.096,0.072-0.194,0.14-0.286,0.215c-0.096,0.079-0.186,0.167-0.278,0.249
	c-0.089,0.081-0.181,0.159-0.266,0.243c-0.092,0.092-0.177,0.192-0.265,0.289c-0.076,0.085-0.156,0.166-0.228,0.253
	c-0.083,0.101-0.158,0.208-0.235,0.314c-0.069,0.094-0.141,0.185-0.205,0.28c-0.066,0.099-0.125,0.204-0.187,0.307
	c-0.068,0.111-0.137,0.223-0.199,0.337c-0.049,0.093-0.093,0.191-0.139,0.286c-0.064,0.133-0.128,0.266-0.185,0.401
	c-0.011,0.026-0.024,0.05-0.035,0.077L162.63,85.271c-0.52,0.805-0.892,1.714-1.077,2.69l-3.479,8.697
	c-1.554,3.884,0.335,8.291,4.219,9.845C163.22,106.874,164.171,107.048,165.108,107.048z M180.337,81.8l4.972-12.428l4.971,12.428
	H180.337z"/>
<path d="M233.276,99.472V76.368l16.23,27.006c0.021,0.034,0.046,0.064,0.068,0.098c0.136,0.218,0.282,0.428,0.439,0.631
	c0.036,0.046,0.07,0.097,0.106,0.142c0.183,0.225,0.378,0.437,0.585,0.639c0.068,0.066,0.138,0.126,0.208,0.19
	c0.15,0.136,0.306,0.268,0.467,0.392c0.081,0.063,0.162,0.124,0.244,0.184c0.194,0.137,0.396,0.267,0.603,0.386
	c0.042,0.023,0.082,0.052,0.124,0.075c0.259,0.142,0.527,0.269,0.802,0.38c0.053,0.021,0.106,0.037,0.158,0.059
	c0.224,0.085,0.453,0.16,0.687,0.224c0.075,0.021,0.149,0.039,0.225,0.059c0.219,0.053,0.441,0.095,0.667,0.127
	c0.077,0.012,0.152,0.026,0.229,0.035c0.277,0.031,0.557,0.053,0.842,0.054c0.016,0,0.031,0.003,0.046,0.003
	c0.028,0,0.058-0.006,0.086-0.006c0.273-0.003,0.54-0.021,0.805-0.054c0.097-0.012,0.193-0.028,0.291-0.044
	c0.217-0.034,0.432-0.077,0.643-0.13c0.087-0.021,0.174-0.041,0.261-0.067c0.298-0.086,0.59-0.184,0.872-0.303v-0.001
	c0.293-0.124,0.571-0.271,0.843-0.43c0.03-0.019,0.064-0.029,0.094-0.048c0.048-0.029,0.093-0.064,0.141-0.095
	c0.121-0.077,0.239-0.156,0.355-0.238c0.097-0.069,0.191-0.139,0.283-0.211c0.095-0.076,0.188-0.152,0.28-0.232
	c0.102-0.088,0.201-0.178,0.297-0.271c0.076-0.073,0.148-0.147,0.221-0.224c0.099-0.104,0.195-0.208,0.287-0.316
	c0.067-0.078,0.129-0.159,0.193-0.239c0.086-0.108,0.17-0.219,0.249-0.332c0.065-0.093,0.125-0.189,0.186-0.284
	c0.067-0.105,0.133-0.211,0.194-0.319c0.064-0.112,0.122-0.227,0.181-0.343c0.048-0.098,0.097-0.195,0.142-0.295
	c0.058-0.129,0.11-0.261,0.161-0.394c0.035-0.094,0.071-0.187,0.102-0.28c0.046-0.137,0.087-0.275,0.125-0.415
	c0.027-0.1,0.054-0.199,0.077-0.3c0.03-0.131,0.056-0.264,0.079-0.398c0.021-0.118,0.039-0.236,0.055-0.356
	c0.015-0.116,0.026-0.234,0.036-0.353c0.011-0.142,0.018-0.284,0.021-0.427c0.001-0.058,0.008-0.112,0.008-0.17v-50.41
	c0-4.184-3.391-7.574-7.574-7.574c-4.183,0-7.574,3.39-7.574,7.574v23.105l-16.23-27.006c-0.027-0.046-0.061-0.087-0.089-0.133
	c-0.08-0.126-0.163-0.249-0.249-0.371c-0.065-0.092-0.131-0.181-0.2-0.269c-0.08-0.101-0.161-0.198-0.245-0.295
	c-0.084-0.097-0.169-0.19-0.255-0.282c-0.079-0.081-0.16-0.16-0.241-0.237c-0.097-0.092-0.195-0.184-0.297-0.271
	c-0.086-0.072-0.173-0.141-0.262-0.21c-0.102-0.08-0.204-0.158-0.31-0.231c-0.102-0.071-0.206-0.137-0.31-0.204
	c-0.097-0.061-0.193-0.12-0.292-0.177c-0.123-0.07-0.249-0.134-0.377-0.198c-0.086-0.041-0.171-0.085-0.258-0.124
	c-0.141-0.064-0.286-0.12-0.431-0.176c-0.081-0.03-0.161-0.062-0.241-0.089c-0.148-0.05-0.3-0.095-0.452-0.136
	c-0.086-0.022-0.173-0.046-0.26-0.067c-0.144-0.033-0.29-0.062-0.437-0.088c-0.105-0.018-0.21-0.033-0.315-0.047
	c-0.129-0.017-0.259-0.029-0.39-0.039c-0.13-0.011-0.26-0.017-0.391-0.02c-0.064-0.002-0.125-0.01-0.189-0.01
	c-0.053,0-0.103,0.007-0.155,0.008c-0.14,0.003-0.281,0.011-0.421,0.021c-0.113,0.008-0.225,0.017-0.336,0.03
	c-0.131,0.016-0.262,0.036-0.392,0.06c-0.12,0.021-0.239,0.041-0.357,0.069c-0.116,0.025-0.231,0.058-0.346,0.089
	c-0.13,0.035-0.26,0.073-0.387,0.114c-0.101,0.034-0.2,0.072-0.299,0.11c-0.138,0.053-0.276,0.107-0.41,0.168
	c-0.089,0.04-0.178,0.085-0.267,0.128c-0.138,0.069-0.274,0.141-0.407,0.217c-0.04,0.023-0.082,0.041-0.123,0.066
	c-0.048,0.029-0.093,0.064-0.141,0.095c-0.121,0.077-0.239,0.156-0.355,0.239c-0.097,0.068-0.19,0.138-0.283,0.211
	c-0.095,0.075-0.188,0.151-0.28,0.231c-0.102,0.088-0.201,0.178-0.297,0.271c-0.076,0.073-0.148,0.147-0.221,0.224
	c-0.099,0.104-0.195,0.208-0.287,0.316c-0.066,0.078-0.129,0.158-0.192,0.238c-0.086,0.109-0.17,0.22-0.249,0.333
	c-0.065,0.093-0.125,0.189-0.186,0.284c-0.067,0.105-0.133,0.211-0.194,0.319c-0.064,0.112-0.122,0.228-0.181,0.343
	c-0.048,0.098-0.097,0.195-0.141,0.294c-0.059,0.13-0.11,0.263-0.162,0.396c-0.035,0.093-0.071,0.186-0.102,0.279
	c-0.046,0.137-0.087,0.275-0.125,0.415c-0.027,0.1-0.054,0.199-0.077,0.3c-0.03,0.131-0.056,0.264-0.079,0.398
	c-0.021,0.118-0.039,0.236-0.055,0.356c-0.015,0.117-0.026,0.233-0.036,0.353c-0.011,0.142-0.018,0.284-0.021,0.427
	c-0.001,0.058-0.008,0.112-0.008,0.17V99.47c0,4.184,3.391,7.574,7.574,7.574C229.885,107.046,233.276,103.656,233.276,99.472z"/>
<path d="M296.392,107.046c4.183,0,7.574-3.39,7.574-7.574V56.553h12.623c4.183,0,7.574-3.39,7.574-7.574s-3.391-7.574-7.574-7.574
	h-40.394c-4.183,0-7.574,3.39-7.574,7.574s3.391,7.574,7.574,7.574h12.623v42.919C288.818,103.656,292.21,107.046,296.392,107.046z"
	/>
<path d="M356.984,56.553c4.183,0,7.574-3.39,7.574-7.574s-3.391-7.574-7.574-7.574h-20.197c-4.183,0-7.574,3.39-7.574,7.574v50.493
	c0,4.184,3.391,7.574,7.574,7.574h20.197c4.183,0,7.574-3.39,7.574-7.574s-3.391-7.574-7.574-7.574h-12.623V81.8h7.574
	c4.183,0,7.574-3.39,7.574-7.574c0-4.184-3.391-7.574-7.574-7.574h-7.574V56.553H356.984z"/>
<path d="M402.428,107.046c0.262,0,0.521-0.013,0.777-0.039c9.124-0.4,16.458-7.733,16.857-16.857
	c0.026-0.255,0.039-0.514,0.039-0.777V59.078c0-0.263-0.013-0.521-0.039-0.777c-0.399-9.124-7.734-16.459-16.859-16.857
	c-0.254-0.025-0.513-0.039-0.775-0.039c-0.01,0-0.021,0-0.032,0l-19.127,0.08c-0.34-0.047-0.686-0.08-1.038-0.08
	c-4.183,0-7.574,3.39-7.574,7.574v50.493c0,4.184,3.391,7.574,7.574,7.574H402.428z M402.429,56.553
	c1.392,0.001,2.524,1.133,2.524,2.525v30.296c0,1.393-1.132,2.525-2.525,2.525h-12.623V56.606L402.429,56.553z"/>
<path d="M368.184,477.532c0.048-0.067,0.101-0.131,0.147-0.2c0.077-0.113,0.143-0.232,0.213-0.35c0.058-0.097,0.118-0.19,0.171-0.29
	c0.05-0.094,0.093-0.191,0.138-0.287c0.062-0.127,0.125-0.255,0.18-0.386c0.03-0.074,0.054-0.149,0.082-0.224
	c0.06-0.157,0.119-0.313,0.169-0.474c0.018-0.06,0.029-0.119,0.045-0.179c0.048-0.176,0.097-0.352,0.133-0.532
	c0.02-0.102,0.03-0.204,0.046-0.306c0.021-0.139,0.048-0.277,0.064-0.419c0.025-0.25,0.037-0.504,0.038-0.756
	c0-0.004,0-0.007,0-0.01c0-0.036-0.005-0.071-0.005-0.108c-0.003-0.212-0.011-0.424-0.032-0.637
	c-0.008-0.079-0.022-0.157-0.033-0.235c-0.021-0.167-0.043-0.333-0.077-0.5c-0.021-0.105-0.049-0.206-0.075-0.309
	c-0.033-0.136-0.064-0.274-0.105-0.407c-0.037-0.124-0.084-0.244-0.128-0.367c-0.039-0.109-0.076-0.22-0.12-0.328
	c-0.061-0.146-0.13-0.286-0.199-0.427c-0.04-0.082-0.075-0.165-0.118-0.244c-0.094-0.176-0.197-0.343-0.304-0.51
	c-0.027-0.042-0.048-0.086-0.077-0.128l-0.016-0.024c-0.003-0.004-0.006-0.01-0.009-0.014l-12.323-18.483h6.044
	c4.183,0,7.574-3.39,7.574-7.574s-3.391-7.574-7.574-7.574h-20.156c-0.003,0-0.005,0-0.007,0h-0.035
	c-0.06,0-0.117,0.008-0.177,0.009c-0.188,0.004-0.375,0.01-0.563,0.028c-0.097,0.009-0.191,0.026-0.287,0.04
	c-0.15,0.02-0.3,0.038-0.449,0.068c-0.118,0.023-0.232,0.056-0.348,0.084c-0.123,0.03-0.246,0.059-0.369,0.095
	c-0.136,0.041-0.269,0.093-0.402,0.141c-0.098,0.036-0.196,0.067-0.293,0.107c-0.158,0.065-0.31,0.14-0.463,0.216
	c-0.07,0.034-0.141,0.065-0.21,0.102c-0.186,0.099-0.365,0.208-0.541,0.321c-0.033,0.022-0.068,0.038-0.101,0.061
	c-0.003,0.002-0.005,0.005-0.009,0.007c-0.21,0.14-0.414,0.29-0.608,0.451c-0.104,0.085-0.197,0.178-0.295,0.268
	c-0.082,0.076-0.168,0.146-0.246,0.225c-0.128,0.128-0.245,0.265-0.364,0.401c-0.042,0.048-0.088,0.094-0.129,0.143
	c-0.105,0.128-0.199,0.263-0.295,0.395c-0.048,0.068-0.101,0.132-0.147,0.201c-0.077,0.114-0.143,0.232-0.213,0.351
	c-0.058,0.096-0.118,0.19-0.171,0.288c-0.05,0.095-0.092,0.191-0.138,0.287c-0.063,0.128-0.126,0.255-0.181,0.388
	c-0.03,0.073-0.054,0.147-0.081,0.222c-0.06,0.157-0.119,0.313-0.169,0.475c-0.018,0.06-0.029,0.119-0.045,0.179
	c-0.048,0.177-0.097,0.352-0.133,0.533c-0.02,0.101-0.03,0.203-0.046,0.305c-0.021,0.139-0.048,0.277-0.064,0.419
	c-0.025,0.25-0.037,0.503-0.038,0.756c0,0.003,0,0.007,0,0.01c0,0.036,0.005,0.072,0.005,0.108c0.003,0.213,0.011,0.426,0.032,0.638
	c0.008,0.08,0.022,0.157,0.033,0.235c0.022,0.167,0.043,0.333,0.077,0.5c0.02,0.105,0.049,0.206,0.075,0.309
	c0.033,0.136,0.064,0.272,0.105,0.407c0.037,0.124,0.084,0.244,0.128,0.366c0.039,0.11,0.076,0.221,0.12,0.329
	c0.061,0.146,0.13,0.286,0.199,0.426c0.039,0.082,0.076,0.166,0.118,0.246c0.094,0.175,0.197,0.343,0.304,0.509
	c0.027,0.042,0.048,0.087,0.077,0.128l0.016,0.024c0.004,0.005,0.006,0.009,0.009,0.015l12.324,18.478h-6.047
	c-4.183,0-7.574,3.39-7.574,7.574s3.391,7.574,7.574,7.574h20.192c0.005,0,0.011,0.001,0.016,0.001c0.021,0,0.041-0.005,0.063-0.005
	c0.303-0.002,0.6-0.026,0.893-0.064c0.094-0.013,0.188-0.027,0.282-0.043c0.272-0.045,0.538-0.103,0.8-0.176
	c0.051-0.015,0.103-0.024,0.154-0.04c0.318-0.096,0.624-0.216,0.923-0.351c0.064-0.028,0.126-0.061,0.19-0.092
	c0.299-0.146,0.591-0.306,0.866-0.488c0.008-0.005,0.018-0.009,0.026-0.015c0.003-0.002,0.005-0.004,0.009-0.006
	c0.21-0.141,0.414-0.292,0.608-0.451c0.104-0.086,0.197-0.179,0.295-0.269c0.082-0.075,0.168-0.146,0.246-0.225
	c0.128-0.128,0.245-0.265,0.364-0.4c0.042-0.048,0.088-0.094,0.129-0.144C367.994,477.8,368.089,477.667,368.184,477.532z"/>
<path d="M160.064,435.249c-4.183,0-7.574,3.39-7.574,7.574v30.296c0,4.184,3.391,7.574,7.574,7.574s7.574-3.39,7.574-7.574v-30.296
	C167.638,438.64,164.247,435.249,160.064,435.249z"/>
<path d="M195.406,435.249c-12.529,0-22.722,10.194-22.722,22.722s10.193,22.722,22.722,22.722s22.722-10.194,22.722-22.722
	S207.936,435.249,195.406,435.249z M195.406,465.545c-4.177,0-7.574-3.397-7.574-7.574s3.397-7.574,7.574-7.574
	s7.574,3.397,7.574,7.574C202.98,462.148,199.583,465.545,195.406,465.545z"/>
<path d="M245.899,435.249c-12.529,0-22.722,10.194-22.722,22.722s10.193,22.722,22.722,22.722c12.529,0,22.722-10.194,22.722-22.722
	S258.429,435.249,245.899,435.249z M245.899,465.545c-4.177,0-7.574-3.397-7.574-7.574s3.397-7.574,7.574-7.574
	s7.574,3.397,7.574,7.574C253.473,462.148,250.076,465.545,245.899,465.545z"/>
<path d="M296.392,435.249c-12.529,0-22.722,10.194-22.722,22.722s10.193,22.722,22.722,22.722c12.529,0,22.722-10.194,22.722-22.722
	S308.922,435.249,296.392,435.249z M296.392,465.545c-4.177,0-7.574-3.397-7.574-7.574s3.397-7.574,7.574-7.574
	c4.177,0,7.574,3.397,7.574,7.574C303.966,462.148,300.569,465.545,296.392,465.545z"/>
<g>
</g>
<g>
</g>
<g>
</g>
<g>
</g>
<g>
</g>
<g>
</g>
<g>
</g>
<g>
</g>
<g>
</g>
<g>
</g>
<g>
</g>
<g>
</g>
<g>
</g>
<g>
</g>
<g>
</g>
</svg>
