<?xml version="1.0" encoding="iso-8859-1"?>
<!-- Generator: Adobe Illustrator 19.1.0, SVG Export Plug-In . SVG Version: 6.00 Build 0)  -->
<svg version="1.1" id="Capa_1" xmlns="http://www.w3.org/2000/svg" xmlns:xlink="http://www.w3.org/1999/xlink" x="0px" y="0px"
	 viewBox="0 0 470 470" style="enable-background:new 0 0 470 470;" xml:space="preserve">
<g>
	<path style="fill:#FF3B33;" d="M162.612,286.823c3.315,12.394,14.642,21.548,28.067,21.548s24.751-9.154,28.067-21.548H162.612z"/>
	<path style="fill:#FF3B33;" d="M312.839,371.103c0-4.143,3.357-7.5,7.5-7.5h83.896V15H65.764v440h247.075V371.103z
		 M359.236,198.794c0,44.064-35.85,79.914-79.914,79.914c-2.905,0-5.839-0.158-8.729-0.457v1.073
		c0,44.064-35.85,79.914-79.915,79.914s-79.914-35.85-79.914-79.914v-80.529c0-4.143,3.358-7.5,7.5-7.5h88.648v-15
		c-4.146,0-7.504-3.357-7.504-7.5v-50.528c0-4.143,3.358-7.5,7.5-7.5h144.828c4.143,0,7.5,3.357,7.5,7.5V198.794z M290.045,440
		H88.264c-4.142,0-7.5-3.357-7.5-7.5v-395c0-4.143,3.358-7.5,7.5-7.5h293.472c4.143,0,7.5,3.357,7.5,7.5v303.603
		c0,4.143-3.357,7.5-7.5,7.5s-7.5-3.357-7.5-7.5V45H95.764v380h194.281c4.143,0,7.5,3.357,7.5,7.5S294.188,440,290.045,440z"/>
	<path style="fill:#3DE2F3;" d="M290.045,425H95.764V45h278.472v296.103c0,4.143,3.357,7.5,7.5,7.5s7.5-3.357,7.5-7.5V37.5
		c0-4.143-3.357-7.5-7.5-7.5H88.264c-4.142,0-7.5,3.357-7.5,7.5v395c0,4.143,3.358,7.5,7.5,7.5h201.781c4.143,0,7.5-3.357,7.5-7.5
		S294.188,425,290.045,425z"/>
	<polygon style="fill:#FF8985;" points="327.839,378.603 327.839,444.394 393.629,378.603 	"/>
	<path style="fill:#8BEEF8;" d="M270.593,198.794v4.586c2.866-0.769,5.846-1.167,8.893-1.167c13.293,0,25.493,7.811,31.082,19.899
		c1.738,3.76,0.1,8.217-3.66,9.955c-1.019,0.471-2.09,0.694-3.143,0.694c-2.834,0-5.545-1.613-6.812-4.354
		c-3.145-6.8-10-11.194-17.467-11.194c-3.148,0-6.167,0.755-8.893,2.189v43.733c2.866,0.363,5.806,0.573,8.729,0.573
		c35.794,0,64.914-29.12,64.914-64.914v-73.028H214.408v43.028c0,4.141-3.356,7.498-7.496,7.5v15h56.181
		C267.236,191.294,270.593,194.651,270.593,198.794z M298.202,151.03h19.282c4.143,0,7.5,3.357,7.5,7.5s-3.357,7.5-7.5,7.5h-19.282
		c-4.143,0-7.5-3.357-7.5-7.5S294.06,151.03,298.202,151.03z M241.159,166.03c-4.143,0-7.5-3.357-7.5-7.5s3.357-7.5,7.5-7.5h19.282
		c4.143,0,7.5,3.357,7.5,7.5s-3.357,7.5-7.5,7.5H241.159z"/>
	<path style="fill:#FFFFFF;" d="M255.593,215.253c0.001-0.047-0.001-0.094,0-0.14v-8.819H125.764v73.029
		c0,35.794,29.12,64.914,64.914,64.914s64.915-29.12,64.915-64.914V215.253z M152.516,231.559h19.282c4.142,0,7.5,3.357,7.5,7.5
		s-3.358,7.5-7.5,7.5h-19.282c-4.142,0-7.5-3.357-7.5-7.5S148.374,231.559,152.516,231.559z M190.678,323.371
		c-24.289,0-44.048-19.76-44.048-44.048c0-4.143,3.358-7.5,7.5-7.5h73.097c4.142,0,7.5,3.357,7.5,7.5
		C234.727,303.611,214.967,323.371,190.678,323.371z M228.841,246.559h-19.282c-4.142,0-7.5-3.357-7.5-7.5s3.358-7.5,7.5-7.5h19.282
		c4.142,0,7.5,3.357,7.5,7.5S232.983,246.559,228.841,246.559z"/>
	<path style="fill:#081C1F;" d="M351.736,110.766H206.908c-4.142,0-7.5,3.357-7.5,7.5v50.528c0,4.143,3.358,7.5,7.5,7.5
		c4.144-0.002,7.5-3.359,7.5-7.5v-43.028h129.828v73.028c0,35.794-29.12,64.914-64.914,64.914c-2.923,0-5.862-0.209-8.729-0.573
		v-43.733c2.726-1.435,5.745-2.189,8.893-2.189c7.467,0,14.322,4.395,17.467,11.194c1.268,2.741,3.979,4.354,6.812,4.354
		c1.053,0,2.124-0.224,3.143-0.694c3.76-1.738,5.398-6.195,3.66-9.955c-5.589-12.089-17.789-19.899-31.082-19.899
		c-3.047,0-6.026,0.399-8.893,1.167v-4.586c0-4.143-3.357-7.5-7.5-7.5h-56.181h-88.648c-4.142,0-7.5,3.357-7.5,7.5v80.529
		c0,44.064,35.849,79.914,79.914,79.914s79.915-35.85,79.915-79.914v-1.073c2.89,0.3,5.823,0.457,8.729,0.457
		c44.064,0,79.914-35.85,79.914-79.914v-80.528C359.236,114.123,355.878,110.766,351.736,110.766z M190.678,344.237
		c-35.794,0-64.914-29.12-64.914-64.914v-73.029h129.829v8.819c-0.001,0.047,0.001,0.093,0,0.14v64.07
		C255.593,315.117,226.472,344.237,190.678,344.237z"/>
	<path style="fill:#081C1F;" d="M298.202,166.03h19.282c4.143,0,7.5-3.357,7.5-7.5s-3.357-7.5-7.5-7.5h-19.282
		c-4.143,0-7.5,3.357-7.5,7.5S294.06,166.03,298.202,166.03z"/>
	<path style="fill:#081C1F;" d="M267.942,158.53c0-4.143-3.357-7.5-7.5-7.5h-19.282c-4.143,0-7.5,3.357-7.5,7.5s3.357,7.5,7.5,7.5
		h19.282C264.584,166.03,267.942,162.673,267.942,158.53z"/>
	<path style="fill:#081C1F;" d="M227.227,271.823H154.13c-4.142,0-7.5,3.357-7.5,7.5c0,24.288,19.76,44.048,44.048,44.048
		s44.048-19.76,44.048-44.048C234.727,275.181,231.369,271.823,227.227,271.823z M190.678,308.371
		c-13.425,0-24.751-9.154-28.067-21.548h56.134C215.43,299.217,204.103,308.371,190.678,308.371z"/>
	<path style="fill:#081C1F;" d="M228.841,231.559h-19.282c-4.142,0-7.5,3.357-7.5,7.5s3.358,7.5,7.5,7.5h19.282
		c4.142,0,7.5-3.357,7.5-7.5S232.983,231.559,228.841,231.559z"/>
	<path style="fill:#081C1F;" d="M152.516,246.559h19.282c4.142,0,7.5-3.357,7.5-7.5s-3.358-7.5-7.5-7.5h-19.282
		c-4.142,0-7.5,3.357-7.5,7.5S148.374,246.559,152.516,246.559z"/>
	<path style="fill:#081C1F;" d="M411.736,0H58.264c-4.142,0-7.5,3.357-7.5,7.5v455c0,4.143,3.358,7.5,7.5,7.5h262.075
		c1.989,0,3.896-0.79,5.304-2.196l91.396-91.397c1.406-1.407,2.196-3.314,2.196-5.304V7.5C419.236,3.357,415.878,0,411.736,0z
		 M327.839,378.603h65.79l-65.79,65.791V378.603z M65.764,15h338.471v348.603h-83.896c-4.143,0-7.5,3.357-7.5,7.5V455H65.764V15z"/>
</g>
<g>
</g>
<g>
</g>
<g>
</g>
<g>
</g>
<g>
</g>
<g>
</g>
<g>
</g>
<g>
</g>
<g>
</g>
<g>
</g>
<g>
</g>
<g>
</g>
<g>
</g>
<g>
</g>
<g>
</g>
</svg>
