<?xml version="1.0" encoding="iso-8859-1"?>
<!-- Generator: Adobe Illustrator 19.0.0, SVG Export Plug-In . SVG Version: 6.00 Build 0)  -->
<svg version="1.1" id="Capa_1" xmlns="http://www.w3.org/2000/svg" xmlns:xlink="http://www.w3.org/1999/xlink" x="0px" y="0px"
	 viewBox="0 0 511.999 511.999" style="enable-background:new 0 0 511.999 511.999;" xml:space="preserve">
<g>
	<g>
		<path d="M471.415,192.233V45.267c0-2.869-1.232-5.599-3.382-7.497L428.085,2.503C426.258,0.89,423.905,0,421.467,0H50.584
			c-5.523,0-10,4.477-10,10v354.857c0,2.869,1.232,5.599,3.382,7.497l13.75,12.138l-14.628,16.57
			c-1.613,1.827-2.503,4.18-2.503,6.618v94.319c0,5.523,4.477,10,10,10h298.073c2.869,0,5.599-1.232,7.497-3.382l3.996-4.526
			l6.122,5.404c1.827,1.613,4.18,2.503,6.618,2.503h88.526c5.523,0,10-4.477,9.998-10v-261.59c0-2.652-1.054-5.196-2.929-7.071
			l-17.017-17.017l17.017-17.016C470.361,197.429,471.415,194.885,471.415,192.233z M451.416,188.091l-21.159,21.158
			c-1.875,1.875-2.929,4.419-2.929,7.071s1.054,5.196,2.929,7.071l21.159,21.159v247.448h-74.744l-10.784-9.519
			c-4.142-3.656-10.46-3.263-14.115,0.878l-7.628,8.641H60.584v-80.536l18.743-21.231c3.656-4.14,3.262-10.46-0.878-14.115
			l-17.864-15.771V20h357.101l33.73,29.778V188.091z"/>
	</g>
</g>
<g>
	<g>
		<path d="M371.731,384.309c-0.13-0.64-0.32-1.27-0.57-1.87c-0.25-0.6-0.56-1.18-0.92-1.73c-0.37-0.54-0.79-1.06-1.25-1.52
			c-0.46-0.46-0.97-0.88-1.52-1.24c-0.54-0.36-1.12-0.67-1.72-0.92c-0.61-0.25-1.24-0.44-1.87-0.57c-1.3-0.26-2.62-0.26-3.91,0
			c-0.64,0.13-1.27,0.32-1.87,0.57c-0.61,0.25-1.19,0.56-1.73,0.92c-0.55,0.36-1.06,0.78-1.52,1.24c-0.46,0.46-0.88,0.98-1.24,1.52
			c-0.36,0.55-0.67,1.13-0.92,1.73c-0.25,0.6-0.45,1.23-0.57,1.87c-0.13,0.65-0.2,1.3-0.2,1.96c0,0.65,0.07,1.3,0.2,1.95
			c0.12,0.64,0.32,1.27,0.57,1.87c0.25,0.6,0.56,1.18,0.92,1.72c0.36,0.55,0.78,1.06,1.24,1.52c0.46,0.47,0.97,0.88,1.52,1.25
			c0.54,0.36,1.12,0.67,1.73,0.92c0.6,0.25,1.23,0.44,1.87,0.57s1.3,0.2,1.95,0.2c0.65,0,1.31-0.07,1.96-0.2
			c0.63-0.13,1.26-0.32,1.87-0.57c0.6-0.25,1.18-0.56,1.72-0.92c0.55-0.37,1.06-0.78,1.52-1.25c0.46-0.46,0.88-0.97,1.25-1.52
			c0.36-0.54,0.67-1.12,0.92-1.72c0.25-0.6,0.44-1.23,0.57-1.87c0.13-0.65,0.19-1.3,0.19-1.95
			C371.921,385.609,371.861,384.959,371.731,384.309z"/>
	</g>
</g>
<g>
	<g>
		<path d="M318.836,376.263H150.08c-5.523,0-10,4.477-10,10s4.477,10,10,10h168.756c5.523,0,10-4.477,10-10
			S324.359,376.263,318.836,376.263z"/>
	</g>
</g>
<g>
	<g>
		<path d="M126.171,425.399c-0.13-0.64-0.32-1.27-0.57-1.88c-0.25-0.6-0.56-1.18-0.92-1.72c-0.37-0.55-0.78-1.06-1.24-1.52
			c-0.47-0.46-0.98-0.88-1.52-1.25c-0.55-0.36-1.13-0.67-1.73-0.92c-0.61-0.25-1.23-0.44-1.87-0.57c-1.29-0.26-2.62-0.26-3.91,0
			c-0.64,0.13-1.27,0.32-1.87,0.57c-0.6,0.25-1.19,0.56-1.73,0.92c-0.54,0.37-1.06,0.79-1.52,1.25c-0.46,0.46-0.88,0.97-1.24,1.52
			c-0.36,0.54-0.67,1.12-0.92,1.72c-0.25,0.61-0.44,1.24-0.57,1.88s-0.2,1.3-0.2,1.95c0,2.63,1.07,5.21,2.93,7.07
			c0.46,0.46,0.98,0.88,1.52,1.24c0.54,0.36,1.13,0.67,1.73,0.92c0.6,0.25,1.23,0.44,1.87,0.57s1.3,0.2,1.95,0.2
			c0.66,0,1.31-0.07,1.96-0.2c0.64-0.13,1.26-0.32,1.87-0.57c0.6-0.25,1.18-0.56,1.73-0.92c0.54-0.36,1.05-0.78,1.52-1.24
			c1.86-1.86,2.92-4.44,2.92-7.07C126.361,426.699,126.301,426.039,126.171,425.399z"/>
	</g>
</g>
<g>
	<g>
		<path d="M395.638,417.348H159.451c-5.523,0-10,4.477-10,10s4.477,10,10,10h236.186c5.523,0,10.001-4.477,10.001-10
			S401.161,417.348,395.638,417.348z"/>
	</g>
</g>
<g>
	<g>
		<path d="M411.315,50.102H100.688c-5.523,0-10,4.477-10,10V336.99c0,5.523,4.477,10,10,10h310.627c5.523,0,10-4.477,10-10V60.102
			C421.315,54.579,416.837,50.102,411.315,50.102z M328.925,326.99H183.079v-43.967c0-11.22,9.128-20.348,20.348-20.348h20.742
			l25.225,22.208c1.889,1.663,4.249,2.494,6.608,2.494s4.719-0.832,6.608-2.494l25.225-22.208h20.742
			c11.22,0,20.348,9.128,20.348,20.348V326.99z M213.525,164.877h84.952v19.66c0,17.36-11.077,32.668-27.564,38.091
			c-2.744,0.903-4.964,2.948-6.087,5.609c-1.124,2.661-1.042,5.678,0.224,8.274l6.68,13.695l-15.729,13.848l-15.729-13.848
			l6.68-13.695c1.267-2.596,1.348-5.613,0.224-8.274c-1.124-2.661-3.343-4.706-6.087-5.609
			c-16.487-5.423-27.564-20.731-27.564-38.091V164.877z M213.525,144.877v-25.78c0-7.212,5.43-13.18,12.417-14.029
			c19.235,7.561,40.884,7.561,60.119,0c6.987,0.85,12.417,6.817,12.417,14.029v25.78H213.525z M401.315,326.99h-52.391v-43.967
			c0-22.248-18.1-40.348-40.348-40.348h-18.268l-2.729-5.595c18.849-10.443,30.899-30.377,30.899-52.543v-19.66h13.089
			c5.523,0,10-4.477,10-10c0-5.523-4.477-10-10-10h-13.089v-25.78c0-18.821-15.312-34.133-34.133-34.133
			c-1.352,0-2.689,0.274-3.932,0.806c-15.515,6.635-33.309,6.635-48.823,0c-1.243-0.532-2.581-0.806-3.932-0.806
			c-18.821,0-34.133,15.312-34.133,34.133v25.78h-13.089c-5.523,0-10,4.477-10,10c0,5.523,4.477,10,10,10h13.089v19.66
			c0,22.166,12.05,42.1,30.899,52.543l-2.729,5.595h-18.268c-22.248,0-40.348,18.1-40.348,40.348v43.967h-52.391V70.102h290.627
			V326.99z"/>
	</g>
</g>
<g>
	<g>
		<path d="M308.478,294.432h-17.369c-5.523,0-10,4.477-10,10s4.477,10,10,10h17.369c5.523,0,10-4.477,10-10
			S314.001,294.432,308.478,294.432z"/>
	</g>
</g>
<g>
</g>
<g>
</g>
<g>
</g>
<g>
</g>
<g>
</g>
<g>
</g>
<g>
</g>
<g>
</g>
<g>
</g>
<g>
</g>
<g>
</g>
<g>
</g>
<g>
</g>
<g>
</g>
<g>
</g>
</svg>
