<?xml version="1.0" encoding="iso-8859-1"?>
<!-- Generator: Adobe Illustrator 19.0.0, SVG Export Plug-In . SVG Version: 6.00 Build 0)  -->
<svg version="1.1" id="Capa_1" xmlns="http://www.w3.org/2000/svg" xmlns:xlink="http://www.w3.org/1999/xlink" x="0px" y="0px"
	 viewBox="0 0 512 512" style="enable-background:new 0 0 512 512;" xml:space="preserve">
<polygon style="fill:#80D8FF;" points="436.352,504.485 135.765,504.485 75.648,444.368 75.648,7.515 436.352,7.515 "/>
<path style="fill:#FDD8A8;" d="M316.117,130.755v47.092c0,33.205-26.913,60.117-60.117,60.117s-60.117-26.913-60.117-60.117v-47.092
	H316.117z"/>
<path style="fill:#AD8761;" d="M185.863,130.755l9.125-58.285c4.144-26.469,27.334-40.018,45.717-26.71l0,0
	c9.489,6.868,21.102,6.868,30.591,0l0,0c18.383-13.308,41.573,0.241,45.717,26.71l9.124,58.285H185.863z"/>
<path style="fill:#ED593B;" d="M159.241,290.067c8.046-30.019,29.688-54.456,57.923-66.34c10.48,8.877,24.027,14.238,38.836,14.238
	c14.809,0,28.355-5.36,38.836-14.238c28.235,11.883,49.877,36.321,57.923,66.34H159.241z"/>
<polygon style="fill:#FDD835;" points="360.293,373.545 373.985,397.262 401.373,397.262 387.679,420.979 401.373,444.698 
	373.985,444.698 360.293,468.415 346.599,444.698 319.212,444.698 332.905,420.979 319.212,397.262 346.599,397.262 "/>
<polygon style="fill:#40C4FF;" points="155.804,484.446 155.804,424.329 75.648,424.329 75.648,444.368 135.765,504.485 
	436.352,504.485 436.352,484.446 "/>
<polygon style="fill:#FBC02D;" points="330.782,424.658 319.212,444.698 346.599,444.698 360.293,468.415 373.985,444.698 
	401.373,444.698 389.803,424.658 "/>
<path style="fill:#E23423;" d="M256,258.004c22.405,0,42.681-9.251,57.241-24.12c-5.728-3.995-11.888-7.413-18.405-10.157
	c-10.48,8.877-24.027,14.238-38.836,14.238c-14.809,0-28.355-5.36-38.836-14.238c-6.517,2.742-12.677,6.162-18.405,10.157
	C213.319,248.753,233.595,258.004,256,258.004z"/>
<g>
	<path style="fill:#FFC477;" d="M256,217.926c-33.205,0-60.117-26.913-60.117-60.117v20.039c0,33.205,26.913,60.117,60.117,60.117
		s60.117-26.913,60.117-60.117v-20.039C316.117,191.013,289.205,217.926,256,217.926z"/>
	<rect x="195.883" y="130.755" style="fill:#FFC477;" width="120.235" height="20.039"/>
</g>
<polygon style="fill:#936C4C;" points="185.863,130.755 326.137,130.755 323,110.716 189,110.716 "/>
<path d="M68.133,0v447.48l64.52,64.52h311.214V0H68.133z M128.25,486.344l-34.461-34.461h34.461V486.344z M428.838,496.971H143.28
	v-60.117H83.162V15.029h345.675V496.971z"/>
<path d="M396.274,282.552h-37.921c-8.511-25.92-26.888-47.904-50.796-61.003c10.016-11.797,16.075-27.051,16.075-43.701V138.27
	h42.583v-15.029h-33.649l-8.13-51.933C321.8,54.468,312.31,41.12,299.049,35.6c-10.706-4.456-22.428-2.972-32.16,4.073
	c-6.818,4.937-14.96,4.937-21.778,0c-9.732-7.045-21.453-8.53-32.16-4.073c-13.261,5.52-22.751,18.869-25.388,35.708l-8.131,51.933
	h-33.649v15.029h42.583v39.577c0,16.651,6.06,31.904,16.075,43.701c-23.907,13.099-42.286,35.083-50.796,61.003h-37.921v15.029
	h280.548V282.552z M202.412,73.632c1.793-11.457,8.046-20.714,16.315-24.156c4.14-1.723,10.549-2.712,17.571,2.372
	c12.153,8.797,27.251,8.797,39.404,0c7.022-5.083,13.431-4.095,17.571-2.372c8.269,3.443,14.521,12.699,16.315,24.157l7.766,49.608
	h-122.71L202.412,73.632z M203.397,177.847V138.27h105.205v39.577c0,29.006-23.597,52.603-52.603,52.603
	S203.397,206.853,203.397,177.847z M169.61,282.552c8.512-21.822,25.266-39.953,46.525-50.117
	c11.187,8.192,24.968,13.044,39.865,13.044c14.897,0,28.678-4.852,39.865-13.044c21.259,10.164,38.013,28.295,46.525,50.117H169.61z
	"/>
<rect x="140.775" y="327.64" width="230.45" height="15.029"/>
<rect x="140.775" y="407.796" width="70.137" height="15.029"/>
<rect x="256" y="407.796" width="15.029" height="15.029"/>
<rect x="225.941" y="407.796" width="15.029" height="15.029"/>
<rect x="140.775" y="367.718" width="150.294" height="15.029"/>
<rect x="221.933" y="157.307" width="15.029" height="15.029"/>
<rect x="275.037" y="157.307" width="15.029" height="15.029"/>
<path d="M378.324,389.747l-18.032-31.232l-18.032,31.232h-36.063l18.032,31.232l-18.032,31.232h36.063l18.032,31.232l18.032-31.232
	h36.064l-18.033-31.232l18.033-31.232H378.324z M388.357,437.183h-18.71l-9.354,16.203l-9.355-16.203h-18.71l9.354-16.203
	l-9.354-16.203h18.71l9.355-16.203l9.354,16.203h18.71l-9.354,16.203L388.357,437.183z"/>
<g>
	<path style="fill:#FFFFFF;" d="M286.059,481.941h-60.117v-15.029h60.117V481.941z M210.912,481.941h-15.029v-15.029h15.029V481.941
		z M180.853,481.941h-15.029v-15.029h15.029V481.941z"/>
	<path style="fill:#FFFFFF;" d="M403.789,237.965h-15.029v-15.029h15.029V237.965z M403.789,207.906h-15.029v-15.029h15.029V207.906
		z M403.789,177.847h-15.029V117.73h15.029V177.847z"/>
	<polygon style="fill:#FFFFFF;" points="403.789,84.665 388.759,84.665 388.759,52.102 356.196,52.102 356.196,37.072 
		403.789,37.072 	"/>
	<polygon style="fill:#FFFFFF;" points="123.241,84.665 108.211,84.665 108.211,37.072 155.804,37.072 155.804,52.102 
		123.241,52.102 	"/>
	<path style="fill:#FFFFFF;" d="M123.241,224.939h-15.029V209.91h15.029V224.939z M123.241,194.881h-15.029v-40.078h15.029V194.881z
		"/>
	<path style="fill:#FFFFFF;" d="M296.078,108.211h-15.029V93.182h15.029V108.211z M266.02,108.211H250.99V93.182h15.029V108.211z
		 M235.961,108.211h-20.039V93.182h20.039V108.211z"/>
	<path style="fill:#FFFFFF;" d="M301.542,273.177c-4.354-4.621-9.338-8.538-14.817-11.64l7.406-13.078
		c6.789,3.845,12.963,8.694,18.35,14.411L301.542,273.177z"/>
	<path style="fill:#FFFFFF;" d="M210.458,273.177l-10.939-10.306c5.386-5.717,11.561-10.566,18.35-14.411l7.406,13.078
		C219.796,264.64,214.812,268.556,210.458,273.177z"/>
</g>
<g>
</g>
<g>
</g>
<g>
</g>
<g>
</g>
<g>
</g>
<g>
</g>
<g>
</g>
<g>
</g>
<g>
</g>
<g>
</g>
<g>
</g>
<g>
</g>
<g>
</g>
<g>
</g>
<g>
</g>
</svg>
