<?xml version="1.0" encoding="iso-8859-1"?>
<!-- Generator: Adobe Illustrator 19.0.0, SVG Export Plug-In . SVG Version: 6.00 Build 0)  -->
<svg version="1.1" id="Capa_1" xmlns="http://www.w3.org/2000/svg" xmlns:xlink="http://www.w3.org/1999/xlink" x="0px" y="0px"
	 viewBox="0 0 512 512" style="enable-background:new 0 0 512 512;" xml:space="preserve">
<g>
	<g>
		<path d="M68.133,0v447.48l64.52,64.52h311.214V0H68.133z M128.25,486.344l-34.461-34.461h34.461V486.344z M428.838,496.971H143.28
			v-60.117H83.162V15.029h345.675V496.971z"/>
	</g>
</g>
<g>
	<g>
		<rect x="140.775" y="327.64" width="230.45" height="15.029"/>
	</g>
</g>
<g>
	<g>
		<rect x="140.775" y="407.796" width="70.137" height="15.029"/>
	</g>
</g>
<g>
	<g>
		<rect x="225.941" y="407.796" width="15.029" height="15.029"/>
	</g>
</g>
<g>
	<g>
		<rect x="256" y="407.796" width="15.029" height="15.029"/>
	</g>
</g>
<g>
	<g>
		<rect x="140.775" y="367.718" width="150.294" height="15.029"/>
	</g>
</g>
<g>
	<g>
		<rect x="221.933" y="157.307" width="15.029" height="15.029"/>
	</g>
</g>
<g>
	<g>
		<rect x="275.037" y="157.307" width="15.029" height="15.029"/>
	</g>
</g>
<g>
	<g>
		<path d="M358.353,282.552c-8.511-25.92-26.888-47.904-50.796-61.003c10.016-11.797,16.075-27.051,16.075-43.701V138.27h42.583
			v-15.029h-33.649l-8.13-51.933C321.8,54.468,312.31,41.12,299.049,35.6c-10.706-4.456-22.428-2.972-32.16,4.073
			c-6.818,4.937-14.96,4.937-21.778,0c-9.732-7.045-21.453-8.53-32.16-4.073c-13.261,5.52-22.751,18.869-25.388,35.708
			l-8.131,51.933h-33.649v15.029h42.583v39.577c0,16.651,6.06,31.904,16.075,43.701c-23.907,13.099-42.286,35.083-50.796,61.003
			h-37.921v15.029h280.548v-15.029H358.353z M202.412,73.632c1.793-11.457,8.046-20.714,16.315-24.156
			c4.14-1.723,10.549-2.712,17.571,2.372c12.153,8.797,27.251,8.797,39.404,0c7.022-5.083,13.431-4.095,17.571-2.372
			c8.269,3.443,14.521,12.699,16.315,24.157l7.766,49.608h-122.71L202.412,73.632z M203.397,177.847V138.27h105.205v39.577
			c0,29.006-23.597,52.603-52.603,52.603S203.397,206.853,203.397,177.847z M169.61,282.552
			c8.512-21.822,25.266-39.953,46.525-50.117c11.187,8.192,24.968,13.044,39.865,13.044c14.897,0,28.678-4.852,39.865-13.044
			c21.258,10.164,38.013,28.295,46.525,50.117H169.61z"/>
	</g>
</g>
<g>
	<g>
		<path d="M414.388,389.747h-36.064l-18.032-31.232l-18.032,31.232h-36.063l18.032,31.232l-18.032,31.232h36.063l18.032,31.232
			l18.032-31.232h36.064l-18.033-31.232L414.388,389.747z M388.357,437.183h-18.71l-9.354,16.203l-9.355-16.203h-18.71l9.354-16.203
			l-9.354-16.203h18.71l9.355-16.203l9.354,16.203h18.71l-9.354,16.203L388.357,437.183z"/>
	</g>
</g>
<g>
	<g>
		<rect x="225.941" y="466.912" width="60.117" height="15.029"/>
	</g>
</g>
<g>
	<g>
		<rect x="195.883" y="466.912" width="15.029" height="15.029"/>
	</g>
</g>
<g>
	<g>
		<rect x="165.824" y="466.912" width="15.029" height="15.029"/>
	</g>
</g>
<g>
	<g>
		<rect x="388.759" y="192.877" width="15.029" height="15.029"/>
	</g>
</g>
<g>
	<g>
		<rect x="388.759" y="222.935" width="15.029" height="15.029"/>
	</g>
</g>
<g>
	<g>
		<rect x="388.759" y="117.73" width="15.029" height="60.117"/>
	</g>
</g>
<g>
	<g>
		<polygon points="356.196,37.072 356.196,52.102 388.759,52.102 388.759,84.665 403.789,84.665 403.789,37.072 		"/>
	</g>
</g>
<g>
	<g>
		<polygon points="108.211,37.072 108.211,84.665 123.241,84.665 123.241,52.102 155.804,52.102 155.804,37.072 		"/>
	</g>
</g>
<g>
	<g>
		<rect x="108.211" y="209.91" width="15.029" height="15.029"/>
	</g>
</g>
<g>
	<g>
		<rect x="108.211" y="154.802" width="15.029" height="40.078"/>
	</g>
</g>
<g>
	<g>
		<rect x="250.99" y="93.182" width="15.029" height="15.029"/>
	</g>
</g>
<g>
	<g>
		<rect x="281.049" y="93.182" width="15.029" height="15.029"/>
	</g>
</g>
<g>
	<g>
		<rect x="215.922" y="93.182" width="20.039" height="15.029"/>
	</g>
</g>
<g>
	<g>
		<path d="M294.132,248.459l-7.406,13.078c5.479,3.103,10.463,7.019,14.817,11.64l10.939-10.306
			C307.097,257.153,300.922,252.305,294.132,248.459z"/>
	</g>
</g>
<g>
	<g>
		<path d="M217.869,248.459c-6.789,3.845-12.964,8.694-18.35,14.411l10.939,10.306c4.353-4.621,9.338-8.538,14.817-11.64
			L217.869,248.459z"/>
	</g>
</g>
<g>
</g>
<g>
</g>
<g>
</g>
<g>
</g>
<g>
</g>
<g>
</g>
<g>
</g>
<g>
</g>
<g>
</g>
<g>
</g>
<g>
</g>
<g>
</g>
<g>
</g>
<g>
</g>
<g>
</g>
</svg>
