<?xml version="1.0" encoding="iso-8859-1"?>
<!-- Generator: Adobe Illustrator 19.0.0, SVG Export Plug-In . SVG Version: 6.00 Build 0)  -->
<svg version="1.1" id="Capa_1" xmlns="http://www.w3.org/2000/svg" xmlns:xlink="http://www.w3.org/1999/xlink" x="0px" y="0px"
	 viewBox="0 0 480 480" style="enable-background:new 0 0 480 480;" xml:space="preserve">
<g>
	<g>
		<path d="M416,0H64c-4.418,0-8,3.582-8,8v464c0,4.418,3.582,8,8,8h352c4.418,0,8-3.582,8-8V8C424,3.582,420.418,0,416,0z M408,464
			H72V16h336V464z"/>
	</g>
</g>
<g>
	<g>
		<path d="M368,48H112c-4.418,0-8,3.582-8,8v272c0,4.418,3.582,8,8,8h256c4.418,0,8-3.582,8-8V56C376,51.582,372.418,48,368,48z
			 M360,320H120V64h240V320z"/>
	</g>
</g>
<g>
	<g>
		<path d="M360,416h-32c-4.418,0-8,3.582-8,8s3.582,8,8,8h32c4.418,0,8-3.582,8-8S364.418,416,360,416z"/>
	</g>
</g>
<g>
	<g>
		<path d="M296,416H120c-4.418,0-8,3.582-8,8s3.582,8,8,8h176c4.418,0,8-3.582,8-8S300.418,416,296,416z"/>
	</g>
</g>
<g>
	<g>
		<path d="M360,384h-32c-4.418,0-8,3.582-8,8s3.582,8,8,8h32c4.418,0,8-3.582,8-8S364.418,384,360,384z"/>
	</g>
</g>
<g>
	<g>
		<path d="M296,384H120c-4.418,0-8,3.582-8,8s3.582,8,8,8h176c4.418,0,8-3.582,8-8S300.418,384,296,384z"/>
	</g>
</g>
<g>
	<g>
		<path d="M336,144h-16c-4.418,0-8,3.582-8,8v40h-80v-20.896l13.472,4.488c4.197,1.396,8.732-0.875,10.128-5.072
			c1.396-4.197-0.875-8.732-5.072-10.128L232,154.232v-4.464l18.528-6.176c4.197-1.396,6.468-5.931,5.072-10.128
			s-5.931-6.468-10.128-5.072L232,132.896V104c-0.001-4.418-3.583-7.999-8.002-7.998c-2.121,0-4.154,0.843-5.654,2.342L204.688,112
			h-9.376l-13.656-13.656c-3.125-3.124-8.19-3.123-11.314,0.002c-1.499,1.5-2.342,3.534-2.342,5.654v28.896l-13.472-4.488
			c-4.197-1.396-8.732,0.875-10.128,5.072s0.875,8.732,5.072,10.128l18.528,6.16v4.464l-18.528,6.176
			c-4.197,1.396-6.468,5.931-5.072,10.128c1.396,4.197,5.931,6.468,10.128,5.072L168,171.104V200c0,4.418,3.582,8,8,8h8v88
			c0,4.418,3.582,8,8,8s8-3.582,8-8v-24h16v24c0,4.418,3.582,8,8,8s8-3.582,8-8v-24h16v24c0,4.418,3.582,8,8,8s8-3.582,8-8v-24h16
			v24c0,4.418,3.582,8,8,8s8-3.582,8-8v-88h24c4.418,0,8-3.582,8-8v-40h8c4.418,0,8-3.582,8-8S340.418,144,336,144z M184,192
			v-68.688l2.344,2.344c1.5,1.5,3.534,2.344,5.656,2.344h16c2.122,0,4.156-0.844,5.656-2.344l2.344-2.344V192H184z M280,256h-80v-48
			h80V256z"/>
	</g>
</g>
<g>
	<g>
		<path d="M200,152c-4.418,0-8,3.582-8,8v8c0,4.418,3.582,8,8,8s8-3.582,8-8v-8C208,155.582,204.418,152,200,152z"/>
	</g>
</g>
<g>
</g>
<g>
</g>
<g>
</g>
<g>
</g>
<g>
</g>
<g>
</g>
<g>
</g>
<g>
</g>
<g>
</g>
<g>
</g>
<g>
</g>
<g>
</g>
<g>
</g>
<g>
</g>
<g>
</g>
</svg>
