<?xml version="1.0" encoding="iso-8859-1"?>
<!-- Generator: Adobe Illustrator 19.0.0, SVG Export Plug-In . SVG Version: 6.00 Build 0)  -->
<svg version="1.1" id="Capa_1" xmlns="http://www.w3.org/2000/svg" xmlns:xlink="http://www.w3.org/1999/xlink" x="0px" y="0px"
	 viewBox="0 0 480 480" style="enable-background:new 0 0 480 480;" xml:space="preserve">
<path style="fill:#AABECE;" d="M64,8h352v464H64V8z"/>
<path style="fill:#F4F4E6;" d="M112,56h256v272H112V56z"/>
<g>
	<path style="fill:#7D8D9C;" d="M152,400h-32c-4.418,0-8-3.582-8-8s3.582-8,8-8h32c4.418,0,8,3.582,8,8S156.418,400,152,400z"/>
	<path style="fill:#7D8D9C;" d="M360,400H184c-4.418,0-8-3.582-8-8s3.582-8,8-8h176c4.418,0,8,3.582,8,8S364.418,400,360,400z"/>
	<path style="fill:#7D8D9C;" d="M152,432h-32c-4.418,0-8-3.582-8-8s3.582-8,8-8h32c4.418,0,8,3.582,8,8S156.418,432,152,432z"/>
	<path style="fill:#7D8D9C;" d="M360,432H184c-4.418,0-8-3.582-8-8s3.582-8,8-8h176c4.418,0,8,3.582,8,8S364.418,432,360,432z"/>
</g>
<path style="fill:#5A6470;" d="M184,104h112v128H184V104z"/>
<g>
	<path style="fill:#CFDFE8;" d="M296,104h32v64h-32V104z"/>
	<path style="fill:#CFDFE8;" d="M152,104h32v64h-32V104z"/>
</g>
<path style="fill:#F4F4E6;" d="M224,200h32v32h-32V200z"/>
<path style="fill:#CFDFE8;" d="M200,232h80v48h-80V232z"/>
<g>
	<path style="fill:#7D8D9C;" d="M280,232h40v48h-40V232z"/>
	<path style="fill:#7D8D9C;" d="M160,232h40v48h-40V232z"/>
</g>
<g>
	<path style="fill:#5A6470;" d="M240,288c-4.418,0-8-3.582-8-8v-16c0-4.418,3.582-8,8-8s8,3.582,8,8v16
		C248,284.418,244.418,288,240,288z"/>
	<path style="fill:#5A6470;" d="M336,288H144c-4.418,0-8-3.582-8-8s3.582-8,8-8h192c4.418,0,8,3.582,8,8S340.418,288,336,288z"/>
</g>
<path d="M64,480h352c4.418,0,8-3.582,8-8V8c0-4.418-3.582-8-8-8H64c-4.418,0-8,3.582-8,8v464C56,476.418,59.582,480,64,480z M72,16
	h336v448H72V16z"/>
<path d="M368,48H112c-4.418,0-8,3.582-8,8v272c0,4.418,3.582,8,8,8h256c4.418,0,8-3.582,8-8V56C376,51.582,372.418,48,368,48z
	 M360,320H120V64h240V320z"/>
<path d="M152,384h-32c-4.418,0-8,3.582-8,8s3.582,8,8,8h32c4.418,0,8-3.582,8-8S156.418,384,152,384z"/>
<path d="M360,384H184c-4.418,0-8,3.582-8,8s3.582,8,8,8h176c4.418,0,8-3.582,8-8S364.418,384,360,384z"/>
<path d="M152,416h-32c-4.418,0-8,3.582-8,8s3.582,8,8,8h32c4.418,0,8-3.582,8-8S156.418,416,152,416z"/>
<path d="M360,416H184c-4.418,0-8,3.582-8,8s3.582,8,8,8h176c4.418,0,8-3.582,8-8S364.418,416,360,416z"/>
<path d="M144,288h192c4.418,0,8-3.582,8-8s-3.582-8-8-8h-8v-40c0-4.418-3.582-8-8-8h-16v-48h24c4.418,0,8-3.582,8-8v-64
	c0-4.418-3.582-8-8-8H152c-4.418,0-8,3.582-8,8v64c0,4.418,3.582,8,8,8h24v48h-16c-4.418,0-8,3.582-8,8v40h-8c-4.418,0-8,3.582-8,8
	S139.582,288,144,288z M208,240h64v32h-24v-8c0-4.418-3.582-8-8-8s-8,3.582-8,8v8h-24V240z M248,224h-16v-16h16V224z M312,272h-24
	v-32h24V272z M320,160h-16v-48h16V160z M160,160v-48h16v48H160z M192,112h96v112h-24v-24c0-4.418-3.582-8-8-8h-32
	c-4.418,0-8,3.582-8,8v24h-24V112z M168,240h24v32h-24V240z"/>
<g>
</g>
<g>
</g>
<g>
</g>
<g>
</g>
<g>
</g>
<g>
</g>
<g>
</g>
<g>
</g>
<g>
</g>
<g>
</g>
<g>
</g>
<g>
</g>
<g>
</g>
<g>
</g>
<g>
</g>
</svg>
