<?xml version="1.0" encoding="iso-8859-1"?>
<!-- Generator: Adobe Illustrator 19.0.0, SVG Export Plug-In . SVG Version: 6.00 Build 0)  -->
<svg version="1.1" id="Capa_1" xmlns="http://www.w3.org/2000/svg" xmlns:xlink="http://www.w3.org/1999/xlink" x="0px" y="0px"
	 viewBox="0 0 512 512" style="enable-background:new 0 0 512 512;" xml:space="preserve">
<g>
	<g>
		<g>
			<path d="M272.781,139.418h-33.563c-7.61,0-13.801,6.191-13.801,13.801V170c0,16.863,13.719,30.582,30.582,30.582
				c16.863,0,30.582-13.719,30.582-30.582v-16.781C286.583,145.609,280.391,139.418,272.781,139.418z M271.583,170
				c0,8.592-6.99,15.582-15.582,15.582c-8.592,0-15.582-6.99-15.582-15.582v-15.582h31.164V170z"/>
			<path d="M164.321,465.464c4.142,0,7.5-3.358,7.5-7.5c0-4.142-3.358-7.5-7.5-7.5h-50.6c-4.142,0-7.5,3.358-7.5,7.5
				c0,4.142,3.358,7.5,7.5,7.5H164.321z"/>
			<path d="M311.484,0H87.1C72.932,0,61.404,11.527,61.404,25.697v305.628c0,0.005,0,0.01,0,0.015v104.823
				c0,4.142,3.358,7.5,7.5,7.5c4.142,0,7.5-3.358,7.5-7.5v-13.731c43.871-8.555,76.911,0.373,108.9,9.03
				c22.164,5.999,45.084,12.202,70.696,12.202c18.245,0,34.707-3.131,48.747-6.497l16.52,17.986
				c5.488,5.976,12.978,9.362,21.092,9.534c0.216,0.005,0.432,0.007,0.647,0.007c7.87,0,15.245-3.053,20.83-8.637
				c5.737-5.738,8.803-13.366,8.63-21.479c-0.098-4.63-1.248-9.057-3.324-13.025c17.716-2.899,39.844-4.302,66.454,0.875v63.876
				c0,5.898-4.799,10.697-10.696,10.697H87.1c-5.898,0-10.696-4.798-10.696-10.697v-10.625c0-4.142-3.358-7.5-7.5-7.5
				c-4.142,0-7.5,3.358-7.5,7.5v10.625C61.404,500.473,72.932,512,87.1,512h337.8c14.169,0,25.696-11.527,25.696-25.697V139.114
				C450.597,62.406,388.19,0,311.484,0z M256,428.663c-23.619,0-44.583-5.674-66.778-11.681c-33-8.931-67.057-18.146-112.819-9.828
				v-69.87c20.146-3.946,39.397-4.534,59.853-1.837c3.758,5.709,8.156,11.171,13.23,16.244
				c23.965,23.966,57.097,34.203,86.466,26.715c3.234-0.826,6.549-0.842,9.692-0.128c0.188,0.055,0.377,0.109,0.566,0.148
				c3.84,0.987,7.397,3.064,10.194,6.108l36.645,39.897C281.851,426.791,269.362,428.663,256,428.663z M270.638,335.658
				c-5.641,3.1-10.847,7.008-15.52,11.681c-4.67,4.671-8.577,9.873-11.676,15.511c-0.787-0.052-1.577-0.089-2.369-0.089
				c-2.938,0-5.901,0.364-8.826,1.109c-9.729,2.48-20,2.557-30.121,0.462c7.9-14.553,17.95-27.983,29.977-40.009
				c12.026-12.026,25.456-22.077,40.009-29.977c2.096,10.121,2.019,20.393-0.462,30.122
				C270.705,328.18,270.393,331.952,270.638,335.658z M221.498,313.717c-13.759,13.759-25.147,29.226-33.933,46.047
				c-9.892-4.196-19.287-10.496-27.471-18.68c-11.945-11.945-19.644-26.308-22.907-40.787c4.409-7.696,11.404-11.122,20.085-15.354
				c6.948-3.388,14.823-7.227,21.524-13.928c6.701-6.701,10.541-14.576,13.928-21.524c4.232-8.681,7.658-15.676,15.353-20.085
				c14.48,3.262,28.843,10.961,40.788,22.906c8.184,8.184,14.484,17.579,18.679,27.471
				C250.724,288.57,235.256,299.958,221.498,313.717z M179.24,242.918c-3.15,6.462-6.126,12.566-11.051,17.491
				s-11.029,7.901-17.491,11.051c-4.972,2.424-10.266,5.013-15.145,8.665c0.92-13.769,6.163-26.623,15.946-36.406
				c9.783-9.782,22.637-15.025,36.405-15.945C184.253,232.652,181.665,237.946,179.24,242.918z M353.231,445.45
				c-2.818,2.82-6.613,4.345-10.552,4.24c-3.986-0.084-7.666-1.748-10.363-4.684l-19.494-21.224
				c-0.013-0.015-0.027-0.029-0.04-0.044l-45.329-49.352c-2.69-2.929-5.793-5.333-9.161-7.187c2.103-3.305,4.583-6.404,7.434-9.255
				c2.852-2.852,5.952-5.333,9.259-7.437c0.485,0.881,1.014,1.739,1.575,2.581c0.002,0.003,0.004,0.006,0.006,0.009
				c1.581,2.373,3.443,4.591,5.603,6.575l70.619,64.861c2.936,2.697,4.6,6.377,4.685,10.363
				C357.555,438.882,356.049,442.63,353.231,445.45z M435.599,322.031h-0.002c-12.922-2.347-25.532-3.422-38.28-3.226
				c-4.142,0.063-7.448,3.472-7.385,7.614c0.063,4.102,3.408,7.385,7.497,7.385c0.038,0,0.077-0.001,0.116-0.001
				c12.64-0.188,25.147,0.95,38.052,3.475v69.889c-32.36-5.842-58.335-2.711-78.151,1.28l-59.711-54.842
				c9.871-2.139,19.524-4.738,28.953-7.289c9.542-2.582,19.409-5.252,29.439-7.42c4.049-0.875,6.621-4.867,5.746-8.915
				c-0.876-4.048-4.859-6.621-8.916-5.746c-10.405,2.249-20.462,4.971-30.187,7.602c-12.24,3.312-23.888,6.463-35.923,8.672
				c-0.257-0.691-0.468-1.398-0.65-2.112c-0.036-0.173-0.086-0.344-0.135-0.516c-0.717-3.147-0.701-6.468,0.124-9.707
				c7.488-29.369-2.748-62.501-26.714-86.467c-14.554-14.553-32.232-23.711-50.101-27.299c-0.646-0.216-1.32-0.348-2.006-0.382
				c-24.526-4.348-49.207,1.821-66.472,19.087c-17.266,17.266-23.434,41.946-19.087,66.473c0.034,0.687,0.166,1.361,0.382,2.008
				c1.207,6.009,3.04,11.993,5.503,17.847c-17.311-1.416-34.023-0.573-51.288,2.57V25.697C76.404,19.798,81.203,15,87.1,15H308.02
				l18.919,22.228c10.535,12.377,16.337,28.145,16.337,44.399c0,14.169,11.527,25.696,25.696,25.696
				c4.979,0,9.969,0.546,14.831,1.625c0.547,0.121,1.092,0.179,1.63,0.179c3.44,0,6.54-2.381,7.316-5.878
				c0.896-4.044-1.655-8.049-5.699-8.946c-5.926-1.314-12.008-1.98-18.077-1.98c-5.898,0-10.696-4.798-10.696-10.697
				c0-19.812-7.072-39.033-19.915-54.121l-9.618-11.299c54.653,7.637,98.011,50.995,105.649,105.648l-9.531-8.113
				c-3.153-2.684-7.887-2.304-10.572,0.85s-2.305,7.888,0.85,10.573l20.46,17.415V322.031z"/>
			<path d="M174.982,138.362c-4.142,0-7.5,3.358-7.5,7.5v13.675c0,4.142,3.358,7.5,7.5,7.5c4.142,0,7.5-3.358,7.5-7.5v-13.675
				C182.482,141.72,179.125,138.362,174.982,138.362z"/>
			<path d="M172.662,105.668c2.719-3.409,3.398-8.041,1.772-12.088l-2.562-6.376l5.075-4.633c3.221-2.94,4.619-7.408,3.648-11.66
				c-0.97-4.252-4.168-7.671-8.346-8.923l-6.583-1.972l-0.459-6.856c-0.29-4.352-2.912-8.23-6.841-10.123
				c-3.929-1.891-8.596-1.522-12.179,0.962l-5.647,3.917L134.894,44c-3.583-2.485-8.25-2.855-12.18-0.963
				c-3.929,1.893-6.55,5.771-6.841,10.122l-0.459,6.857l-6.583,1.972c-4.177,1.252-7.375,4.671-8.346,8.923
				c-0.97,4.251,0.428,8.719,3.648,11.659l5.075,4.634l-2.561,6.376c-1.627,4.046-0.948,8.678,1.771,12.088
				c2.719,3.41,7.085,5.104,11.391,4.418l6.787-1.079l3.388,5.979c2.15,3.794,6.195,6.151,10.556,6.151
				c4.361,0,8.406-2.357,10.556-6.151l3.388-5.979l6.788,1.08C165.581,110.771,169.943,109.077,172.662,105.668z M160.29,77.466
				c-3.718,3.394-4.955,8.812-3.078,13.484l1.417,3.527l-3.754-0.597c-4.968-0.786-9.979,1.622-12.46,6.001l-1.874,3.307
				l-1.874-3.307c-2.168-3.825-6.263-6.149-10.578-6.149c-0.625,0-1.254,0.049-1.883,0.149l-3.753,0.597l1.417-3.528
				c1.877-4.671,0.639-10.089-3.078-13.482l-2.807-2.563l3.641-1.091c4.822-1.445,8.287-5.79,8.623-10.813l0.253-3.793l3.123,2.166
				c4.136,2.87,9.694,2.87,13.83,0.001l3.124-2.167l0.253,3.793c0.336,5.022,3.801,9.368,8.622,10.813l3.641,1.091L160.29,77.466z"
				/>
			<path d="M337.018,167.037c4.143,0,7.5-3.358,7.5-7.5v-13.675c0-4.142-3.357-7.5-7.5-7.5s-7.5,3.358-7.5,7.5v13.675
				C329.518,163.679,332.875,167.037,337.018,167.037z"/>
			<path d="M403.883,212.868c-0.336-5.031-3.367-9.516-7.91-11.705c-4.544-2.188-9.94-1.763-14.084,1.112l-9.709,6.735l-9.71-6.735
				c-4.143-2.874-9.541-3.301-14.084-1.112c-4.543,2.189-7.574,6.673-7.91,11.704l-0.788,11.79l-11.318,3.392
				c-4.831,1.447-8.529,5.401-9.651,10.317c-1.122,4.917,0.494,10.083,4.219,13.482l8.727,7.968l-4.405,10.964
				c-1.881,4.679-1.096,10.035,2.049,13.978c3.144,3.942,8.194,5.9,13.171,5.108l11.67-1.855l5.826,10.281
				c2.486,4.387,7.163,7.112,12.205,7.112c5.043,0,9.72-2.725,12.206-7.112l5.826-10.281l11.67,1.856
				c4.981,0.788,10.027-1.167,13.171-5.108c3.145-3.943,3.93-9.299,2.049-13.978l-4.405-10.965l8.727-7.967
				c3.725-3.4,5.341-8.566,4.219-13.482s-4.82-8.87-9.65-10.317l-11.319-3.393L403.883,212.868z M402.086,249.193
				c-4.299,3.925-5.729,10.19-3.559,15.591l4.017,10l-10.643-1.692c-5.761-0.911-11.539,1.876-14.408,6.939l-5.313,9.376
				l-5.314-9.376c-2.507-4.423-7.242-7.11-12.232-7.11c-0.723,0-1.45,0.056-2.177,0.172l-10.643,1.692l4.018-10
				c2.171-5.401,0.74-11.667-3.559-15.591l-7.958-7.267l10.322-3.093c5.576-1.67,9.583-6.695,9.972-12.503l0.719-10.753l8.854,6.143
				c4.782,3.316,11.21,3.317,15.992,0l8.855-6.143l0.719,10.753c0.389,5.808,4.396,10.833,9.971,12.503l10.323,3.094
				L402.086,249.193z"/>
		</g>
	</g>
</g>
<g>
</g>
<g>
</g>
<g>
</g>
<g>
</g>
<g>
</g>
<g>
</g>
<g>
</g>
<g>
</g>
<g>
</g>
<g>
</g>
<g>
</g>
<g>
</g>
<g>
</g>
<g>
</g>
<g>
</g>
</svg>
