<svg viewBox="-70 0 511 512" xmlns="http://www.w3.org/2000/svg"><path d="m364.980469 365.785156c-4.140625 0-7.5 3.359375-7.5 7.5v122.289063c0 .773437-.652344 1.425781-1.421875 1.425781h-339.132813c-.773437 0-1.425781-.652344-1.425781-1.425781v-387.121094c0-4.140625-3.355469-7.5-7.5-7.5s-7.5 3.359375-7.5 7.5v387.121094c0 9.058593 7.367188 16.425781 16.425781 16.425781h339.132813c9.054687 0 16.425781-7.367188 16.425781-16.425781v-122.289063c-.003906-4.140625-3.359375-7.5-7.503906-7.5zm0 0"/><path d="m356.058594 0h-339.132813c-9.058593 0-16.425781 7.367188-16.425781 16.425781v60.859375c0 4.144532 3.355469 7.5 7.5 7.5s7.5-3.355468 7.5-7.5v-60.859375c0-.773437.652344-1.425781 1.425781-1.425781h339.132813c.769531 0 1.425781.652344 1.425781 1.425781v324.53125c0 4.140625 3.355469 7.5 7.5 7.5 4.140625 0 7.5-3.359375 7.5-7.5v-324.53125c-.003906-9.058593-7.371094-16.425781-16.425781-16.425781zm0 0"/><path d="m269.824219 67.785156c4.144531 0 7.5-3.355468 7.5-7.5 0-4.140625-3.355469-7.5-7.5-7.5h-167c-4.144531 0-7.5 3.359375-7.5 7.5 0 4.144532 3.355469 7.5 7.5 7.5zm0 0"/><path d="m50.785156 337.785156h109.082032c4.144531 0 7.5-3.355468 7.5-7.5 0-4.140625-3.355469-7.5-7.5-7.5h-109.082032c-4.140625 0-7.5 3.359375-7.5 7.5 0 4.144532 3.359375 7.5 7.5 7.5zm0 0"/><path d="m50.785156 378.785156h109.082032c4.144531 0 7.5-3.355468 7.5-7.5 0-4.140625-3.355469-7.5-7.5-7.5h-109.082032c-4.140625 0-7.5 3.359375-7.5 7.5 0 4.144532 3.359375 7.5 7.5 7.5zm0 0"/><path d="m50.785156 419.785156h275c4.144532 0 7.5-3.355468 7.5-7.5 0-4.140625-3.355468-7.5-7.5-7.5h-275c-4.140625 0-7.5 3.359375-7.5 7.5 0 4.144532 3.359375 7.5 7.5 7.5zm0 0"/><path d="m50.785156 460.785156h275c4.144532 0 7.5-3.355468 7.5-7.5 0-4.140625-3.355468-7.5-7.5-7.5h-275c-4.140625 0-7.5 3.359375-7.5 7.5 0 4.144532 3.359375 7.5 7.5 7.5zm0 0"/><path d="m43.285156 93.285156v196c0 4.144532 3.359375 7.5 7.5 7.5h47.480469c4.140625 0 7.5-3.355468 7.5-7.5 0-4.140625-3.359375-7.5-7.5-7.5h-39.980469v-181h262v181h-18.640625c-2.25-31.042968-28.210937-55.621094-59.820312-55.621094s-57.570313 24.578126-59.820313 55.621094h-53.414062c-4.140625 0-7.5 3.359375-7.5 7.5 0 4.144532 3.359375 7.5 7.5 7.5h54.777344c3.316406 12.769532 12.023437 29.355469 26.050781 49.527344 13.191406 18.976562 26.175781 34.101562 26.722656 34.738281 1.425781 1.65625 3.5 2.609375 5.683594 2.609375 2.1875 0 4.261719-.953125 5.6875-2.609375.546875-.636719 13.527343-15.761719 26.71875-34.734375 14.03125-20.175781 22.738281-36.761718 26.054687-49.527344h27.503906c4.140626 0 7.5-3.359374 7.5-7.5v-196c0-4.144531-3.359374-7.5-7.5-7.5h-277c-4.144531-.003906-7.503906 3.355469-7.503906 7.496094zm218.699219 244.363282c-7.546875 10.867187-15.171875 20.59375-20.160156 26.753906-4.972657-6.136719-12.554688-15.8125-20.089844-26.652344-19.199219-27.605469-23.925781-42.15625-24.753906-49.214844-.003907-.011718-.003907-.027344-.007813-.042968-.101562-.890626-.148437-1.667969-.148437-2.332032 0-24.8125 20.1875-44.996094 45-44.996094s44.996093 20.183594 44.996093 44.996094c0 5.878906-3.226562 20.390625-24.835937 51.488282zm0 0"/><path d="m241.824219 256.476562c-16.023438 0-29.0625 13.035157-29.0625 29.058594 0 16.027344 13.039062 29.0625 29.0625 29.0625 16.023437 0 29.0625-13.035156 29.0625-29.0625 0-16.023437-13.039063-29.058594-29.0625-29.058594zm0 43.121094c-7.753907 0-14.0625-6.308594-14.0625-14.0625s6.308593-14.0625 14.0625-14.0625c7.753906 0 14.0625 6.308594 14.0625 14.0625s-6.308594 14.0625-14.0625 14.0625zm0 0"/></svg>