<?xml version="1.0" encoding="iso-8859-1"?>
<!-- Generator: Adobe Illustrator 19.0.0, SVG Export Plug-In . SVG Version: 6.00 Build 0)  -->
<svg version="1.1" id="Capa_1" xmlns="http://www.w3.org/2000/svg" xmlns:xlink="http://www.w3.org/1999/xlink" x="0px" y="0px"
	 viewBox="0 0 480 480" style="enable-background:new 0 0 480 480;" xml:space="preserve">
<g>
	<g>
		<path d="M416,0H64c-4.418,0-8,3.582-8,8v464c0,4.418,3.582,8,8,8h352c4.418,0,8-3.582,8-8V8C424,3.582,420.418,0,416,0z M408,464
			H72V16h336V464z"/>
	</g>
</g>
<g>
	<g>
		<path d="M368,48H112c-4.418,0-8,3.582-8,8v272c0,4.418,3.582,8,8,8h256c4.418,0,8-3.582,8-8V56C376,51.582,372.418,48,368,48z
			 M360,320H120V64h240V320z"/>
	</g>
</g>
<g>
	<g>
		<path d="M152,384h-32c-4.418,0-8,3.582-8,8s3.582,8,8,8h32c4.418,0,8-3.582,8-8S156.418,384,152,384z"/>
	</g>
</g>
<g>
	<g>
		<path d="M360,384H184c-4.418,0-8,3.582-8,8s3.582,8,8,8h176c4.418,0,8-3.582,8-8S364.418,384,360,384z"/>
	</g>
</g>
<g>
	<g>
		<path d="M152,416h-32c-4.418,0-8,3.582-8,8s3.582,8,8,8h32c4.418,0,8-3.582,8-8S156.418,416,152,416z"/>
	</g>
</g>
<g>
	<g>
		<path d="M360,416H184c-4.418,0-8,3.582-8,8s3.582,8,8,8h176c4.418,0,8-3.582,8-8S364.418,416,360,416z"/>
	</g>
</g>
<g>
	<g>
		<path d="M336,272h-8v-40c0-4.418-3.582-8-8-8h-16v-48h24c4.418,0,8-3.582,8-8v-64c0-4.418-3.582-8-8-8H152c-4.418,0-8,3.582-8,8
			v64c0,4.418,3.582,8,8,8h24v48h-16c-4.418,0-8,3.582-8,8v40h-8c-4.418,0-8,3.582-8,8s3.582,8,8,8h192c4.418,0,8-3.582,8-8
			S340.418,272,336,272z M304,112h16v48h-16V112z M160,160v-48h16v48H160z M192,272h-24v-32h24V272z M192,112h96v112h-24v-24
			c0-4.418-3.582-8-8-8h-32c-4.418,0-8,3.582-8,8v24h-24V112z M248,208v16h-16v-16H248z M272,272h-24v-8c0-4.418-3.582-8-8-8
			s-8,3.582-8,8v8h-24v-32h64V272z M312,272h-24v-32h24V272z"/>
	</g>
</g>
<g>
</g>
<g>
</g>
<g>
</g>
<g>
</g>
<g>
</g>
<g>
</g>
<g>
</g>
<g>
</g>
<g>
</g>
<g>
</g>
<g>
</g>
<g>
</g>
<g>
</g>
<g>
</g>
<g>
</g>
</svg>
