<?xml version="1.0" encoding="iso-8859-1"?>
<!-- Generator: Adobe Illustrator 19.0.0, SVG Export Plug-In . SVG Version: 6.00 Build 0)  -->
<svg version="1.1" id="Capa_1" xmlns="http://www.w3.org/2000/svg" xmlns:xlink="http://www.w3.org/1999/xlink" x="0px" y="0px"
	 viewBox="0 0 512 512" style="enable-background:new 0 0 512 512;" xml:space="preserve">
<rect x="83.663" y="47.593" style="fill:#7366AA;" width="352.689" height="456.892"/>
<g>
	<rect x="83.663" y="51.601" style="fill:#6A56A8;" width="176.344" height="224.438"/>
	<rect x="260.008" y="276.039" style="fill:#6A56A8;" width="176.344" height="224.438"/>
</g>
<g>
	
		<rect x="388.827" y="-4.962" transform="matrix(-0.7071 0.7071 -0.7071 -0.7071 745.1102 -155.9735)" style="fill:#C8C6D4;" width="32.062" height="162.586"/>
	
		<rect x="95.117" y="-6.616" transform="matrix(0.7071 0.7071 -0.7071 0.7071 89.3692 -55.0606)" style="fill:#C8C6D4;" width="32.062" height="173.928"/>
</g>
<path style="fill:#EDBC53;" d="M276.039,247.984h-40.078c-6.63,0-12.023-5.394-12.023-12.023v-24.047
	c0-6.63,5.394-12.023,12.023-12.023h40.078c6.63,0,12.023,5.394,12.023,12.023c0,11.068,8.972,20.039,20.039,20.039
	c11.068,0,20.039-8.972,20.039-20.039c0-27.379-21.232-49.877-48.094-51.932v-12.193c0-11.068-8.972-20.039-20.039-20.039
	c-11.068,0-20.039,8.972-20.039,20.039v12.023h-4.008c-28.729,0-52.102,23.373-52.102,52.102v24.047
	c0,28.729,23.373,52.102,52.102,52.102h40.078c6.63,0,12.023,5.394,12.023,12.023v24.047c0,6.63-5.394,12.023-12.023,12.023h-40.078
	c-6.63,0-12.023-5.394-12.023-12.023c0-11.068-8.972-20.039-20.039-20.039c-11.068,0-20.039,8.972-20.039,20.039
	c0,28.729,23.373,52.102,52.102,52.102h4.008v12.023c0,11.068,8.972,20.039,20.039,20.039c11.068,0,20.039-8.972,20.039-20.039
	v-12.193c26.861-2.055,48.094-24.553,48.094-51.932v-24.047C328.141,271.357,304.768,247.984,276.039,247.984z"/>
<g>
	<path style="fill:#E57D37;" d="M131.757,183.859c0,22.134,10.766,40.078,24.047,40.078c-13.281,0-24.047,17.944-24.047,40.078
		c0-22.134-10.766-40.078-24.047-40.078C120.991,223.937,131.757,205.993,131.757,183.859z"/>
	<path style="fill:#E57D37;" d="M380.243,320.125c0,22.134,10.766,40.078,24.047,40.078c-13.281,0-24.047,17.944-24.047,40.078
		c0-22.134-10.766-40.078-24.047-40.078C369.477,360.203,380.243,342.259,380.243,320.125z"/>
	<path style="fill:#E57D37;" d="M340.164,79.655c0,22.134,10.766,40.078,24.047,40.078c-13.281,0-24.047,17.944-24.047,40.078
		c0-22.134-10.766-40.078-24.047-40.078C329.398,119.734,340.164,101.79,340.164,79.655z"/>
</g>
<path d="M478.993,117.171l-35.127-35.127V47.593c0-4.15-3.365-7.515-7.515-7.515h-34.451L364.024,2.201
	c-2.935-2.935-7.693-2.935-10.627,0l-22.671,22.671c-2.935,2.935-2.935,7.693,0,10.627l4.577,4.579H184.712l4.578-4.578
	c2.935-2.935,2.935-7.693,0-10.627L166.618,2.201c-2.935-2.935-7.693-2.935-10.627,0l-37.877,37.877H83.663
	c-4.15,0-7.515,3.365-7.515,7.515v34.451l-43.142,43.142c-2.935,2.935-2.935,7.693,0,10.627l22.671,22.671
	c2.895,2.895,7.732,2.895,10.627,0l9.844-9.843V256c0,4.15,3.365,7.515,7.515,7.515c4.15,0,7.515-3.365,7.515-7.515V133.612
	l78.504-78.504h180.65l78.505,78.504V496.97H91.178v-204.9c0-4.15-3.365-7.515-7.515-7.515c-4.15,0-7.515,3.365-7.515,7.515v212.415
	c0,4.15,3.365,7.515,7.515,7.515h352.689c4.15,0,7.515-3.365,7.515-7.515V148.641l1.828,1.828c2.895,2.895,7.732,2.895,10.627,0
	l22.671-22.671C481.928,124.863,481.928,120.104,478.993,117.171z M91.178,55.107h11.907L91.178,67.015V55.107z M60.991,142.544
	L48.947,130.5L161.305,18.141l12.045,12.045L60.991,142.544z M428.837,55.107v11.907L416.93,55.107H428.837z M451.008,134.529
	L346.666,30.186l12.045-12.045l104.343,104.343L451.008,134.529z"/>
<path d="M276.039,328.642h-40.078c-2.486,0-4.509-2.023-4.509-4.509c0-15.194-12.36-27.554-27.554-27.554
	c-15.194,0-27.554,12.36-27.554,27.554c0,31.695,24.864,57.693,56.11,59.514v4.611c0,15.194,12.36,27.554,27.554,27.554
	c15.194,0,27.554-12.36,27.554-27.554v-5.647c27.471-5.426,48.094-29.878,48.094-58.478v-24.047
	c0-32.873-26.743-59.616-59.616-59.616h-40.078c-2.486,0-4.509-2.023-4.509-4.509v-24.047c0-2.486,2.023-4.509,4.509-4.509h40.078
	c2.486,0,4.509,2.023,4.509,4.509c0,15.194,12.36,27.554,27.554,27.554c15.194,0,27.554-12.36,27.554-27.554
	c0-28.599-20.623-53.052-48.094-58.477v-5.648c0-15.194-12.36-27.554-27.554-27.554c-15.194,0-27.554,12.36-27.554,27.554v4.611
	c-31.246,1.823-56.11,27.82-56.11,59.514v24.047c0,32.873,26.743,59.616,59.616,59.616h40.078c2.486,0,4.509,2.023,4.509,4.509
	v24.047C280.548,326.619,278.525,328.642,276.039,328.642z M276.039,280.548h-40.078c-24.586,0-44.587-20.001-44.587-44.587v-24.047
	c0-24.586,20.001-44.587,44.587-44.587h4.008c4.15,0,7.515-3.365,7.515-7.515v-12.023c0-6.906,5.618-12.524,12.524-12.524
	c6.906,0,12.524,5.618,12.524,12.524v12.193c0,3.928,3.025,7.193,6.942,7.493c23.076,1.765,41.152,21.286,41.152,44.44
	c0,6.906-5.618,12.524-12.524,12.524s-12.524-5.618-12.524-12.524c0-10.773-8.765-19.538-19.538-19.538h-40.078
	c-10.773,0-19.538,8.765-19.538,19.538v24.047c0,10.773,8.765,19.538,19.538,19.538h40.078c24.586,0,44.587,20.001,44.587,44.587
	v24.047c0,23.153-18.076,42.674-41.152,44.44c-3.917,0.3-6.942,3.565-6.942,7.493v12.193c0,6.906-5.618,12.524-12.524,12.524
	c-6.906,0-12.524-5.618-12.524-12.524v-12.023c0-4.15-3.365-7.515-7.515-7.515h-4.008c-24.586,0-44.587-20.001-44.587-44.587
	c0-6.906,5.618-12.524,12.524-12.524s12.524,5.618,12.524,12.524c0,10.773,8.765,19.538,19.538,19.538h40.078
	c10.773,0,19.538-8.765,19.538-19.538v-24.047C295.577,289.312,286.812,280.548,276.039,280.548z"/>
<path d="M164.321,440.36c0,4.15,3.365,7.515,7.515,7.515h56.611c4.15,0,7.515-3.365,7.515-7.515c0-4.15-3.365-7.515-7.515-7.515
	h-56.611C167.685,432.845,164.321,436.21,164.321,440.36z"/>
<path d="M300.587,447.875c4.15,0,7.515-3.365,7.515-7.515c0-4.15-3.365-7.515-7.515-7.515h-40.579c-4.15,0-7.515,3.365-7.515,7.515
	c0,4.15,3.365,7.515,7.515,7.515H300.587z"/>
<path d="M356.196,432.845h-24.047c-4.15,0-7.515,3.365-7.515,7.515c0,4.15,3.365,7.515,7.515,7.515h24.047
	c4.15,0,7.515-3.365,7.515-7.515C363.71,436.21,360.346,432.845,356.196,432.845z"/>
<path d="M171.836,471.921h40.078c4.15,0,7.515-3.365,7.515-7.515c0-4.15-3.365-7.515-7.515-7.515h-40.078
	c-4.15,0-7.515,3.365-7.515,7.515C164.321,468.557,167.685,471.921,171.836,471.921z"/>
<path d="M235.961,464.407c0,4.15,3.365,7.515,7.515,7.515h112.72c4.15,0,7.515-3.365,7.515-7.515c0-4.15-3.365-7.515-7.515-7.515
	h-112.72C239.325,456.892,235.961,460.257,235.961,464.407z"/>
<path d="M124.243,264.015c0,4.15,3.365,7.515,7.515,7.515c4.15,0,7.515-3.365,7.515-7.515c0-18.637,8.728-32.564,16.532-32.564
	c4.15,0,7.515-3.365,7.515-7.515c0-4.15-3.365-7.515-7.515-7.515c-7.804,0-16.532-13.926-16.532-32.564
	c0-4.15-3.365-7.515-7.515-7.515c-4.15,0-7.515,3.365-7.515,7.515c0,18.637-8.728,32.564-16.532,32.564
	c-4.15,0-7.515,3.365-7.515,7.515c0,4.15,3.365,7.515,7.515,7.515C115.514,231.452,124.243,245.378,124.243,264.015z
	 M131.757,215.008c1.959,3.452,4.246,6.462,6.796,8.929c-2.549,2.468-4.837,5.478-6.796,8.929c-1.959-3.452-4.246-6.462-6.796-8.929
	C127.511,221.469,129.798,218.459,131.757,215.008z"/>
<path d="M380.243,407.796c4.15,0,7.515-3.365,7.515-7.515c0-18.637,8.728-32.564,16.532-32.564c4.15,0,7.515-3.365,7.515-7.515
	c0-4.15-3.365-7.515-7.515-7.515c-7.804,0-16.532-13.926-16.532-32.564c0-4.15-3.365-7.515-7.515-7.515
	c-4.15,0-7.515,3.365-7.515,7.515c0,18.637-8.728,32.564-16.532,32.564c-4.15,0-7.515,3.365-7.515,7.515
	c0,4.15,3.365,7.515,7.515,7.515c7.804,0,16.532,13.926,16.532,32.564C372.728,404.432,376.092,407.796,380.243,407.796z
	 M380.243,351.274c1.959,3.452,4.246,6.462,6.796,8.929c-2.549,2.468-4.837,5.478-6.796,8.929c-1.959-3.452-4.246-6.462-6.796-8.929
	C375.996,357.735,378.284,354.726,380.243,351.274z"/>
<path d="M364.211,112.219c-7.804,0-16.532-13.926-16.532-32.564c0-4.15-3.365-7.515-7.515-7.515c-4.15,0-7.515,3.365-7.515,7.515
	c0,18.637-8.728,32.564-16.532,32.564c-4.15,0-7.515,3.365-7.515,7.515c0,4.15,3.365,7.515,7.515,7.515
	c7.804,0,16.532,13.926,16.532,32.564c0,4.15,3.365,7.515,7.515,7.515c4.15,0,7.515-3.365,7.515-7.515
	c0-18.637,8.728-32.564,16.532-32.564c4.15,0,7.515-3.365,7.515-7.515C371.726,115.583,368.361,112.219,364.211,112.219z
	 M340.164,128.663c-1.959-3.452-4.246-6.462-6.796-8.929c2.549-2.468,4.837-5.478,6.796-8.929c1.959,3.452,4.246,6.462,6.796,8.929
	C344.411,122.201,342.123,125.211,340.164,128.663z"/>
<g>
</g>
<g>
</g>
<g>
</g>
<g>
</g>
<g>
</g>
<g>
</g>
<g>
</g>
<g>
</g>
<g>
</g>
<g>
</g>
<g>
</g>
<g>
</g>
<g>
</g>
<g>
</g>
<g>
</g>
</svg>
