<?xml version="1.0" encoding="iso-8859-1"?>
<!-- Generator: Adobe Illustrator 19.0.0, SVG Export Plug-In . SVG Version: 6.00 Build 0)  -->
<svg version="1.1" id="Capa_1" xmlns="http://www.w3.org/2000/svg" xmlns:xlink="http://www.w3.org/1999/xlink" x="0px" y="0px"
	 viewBox="0 0 512 512" style="enable-background:new 0 0 512 512;" xml:space="preserve">
<path style="fill:#FF6D3A;" d="M458.862,512H53.138c-10.572,0-19.143-8.571-19.143-19.143V19.143C33.995,8.571,42.565,0,53.138,0
	h405.724c10.572,0,19.143,8.571,19.143,19.143v473.714C478.005,503.429,469.435,512,458.862,512z"/>
<path style="fill:#ED5729;" d="M458.862,0h-41.818c10.572,0,19.143,8.571,19.143,19.143v473.714
	c0,10.572-8.571,19.143-19.143,19.143h41.818c10.572,0,19.143-8.571,19.143-19.143V19.143C478.005,8.571,469.434,0,458.862,0z"/>
<path style="fill:#CCDFED;" d="M422.612,469.974H89.388c-4.733,0-8.57-3.837-8.57-8.57V138.739c0-4.733,3.837-8.57,8.57-8.57
	h333.224c4.733,0,8.57,3.837,8.57,8.57v322.664C431.182,466.137,427.345,469.974,422.612,469.974z"/>
<path style="fill:#B8CFDD;" d="M422.612,130.169h-41.739c4.733,0,8.57,3.837,8.57,8.57v322.664c0,4.733-3.837,8.57-8.57,8.57h41.739
	c4.733,0,8.57-3.837,8.57-8.57V138.739C431.182,134.006,427.345,130.169,422.612,130.169z"/>
<g>
	<rect x="80.82" y="292.71" style="fill:#E9FEFF;" width="350.36" height="63.947"/>
	<path style="fill:#E9FEFF;" d="M80.818,461.404c0,4.733,3.837,8.57,8.57,8.57h333.224c4.733,0,8.57-3.837,8.57-8.57v-40.8H80.818
		V461.404z"/>
</g>
<path style="fill:#DAF2F2;" d="M389.443,461.404c0,4.733-3.837,8.57-8.57,8.57h41.739c4.733,0,8.57-3.837,8.57-8.57v-40.8h-41.739
	V461.404z"/>
<rect x="80.82" y="164.82" style="fill:#E9FEFF;" width="350.36" height="63.947"/>
<g>
	<rect x="389.44" y="292.71" style="fill:#DAF2F2;" width="41.739" height="63.947"/>
	<rect x="389.44" y="164.82" style="fill:#DAF2F2;" width="41.739" height="63.947"/>
</g>
<path style="fill:#FFE2C0;" d="M301.686,364.109c-7.076-1.422-12.167-9.631-12.167-16.849v-32.165H256l0,0h-33.519v32.165
	c0,7.218-5.091,15.427-12.167,16.849l-8.167,2.306v54.189H256l0,0h53.853v-54.189L301.686,364.109z"/>
<path style="fill:#45748C;" d="M361.936,379.123l-48.305-15.061c-2.662-0.83-5.57,0.278-6.937,2.709
	c-6.644,11.811-26.822,23.246-50.694,23.246s-44.05-11.435-50.694-23.246c-1.367-2.431-4.275-3.539-6.937-2.709l-48.305,15.061
	c-27.345,8.051-46.12,33.152-46.12,61.658v29.193h304.114v-29.193C408.057,412.275,389.282,387.174,361.936,379.123z"/>
<path style="fill:#FFE2C0;" d="M318.929,243.917L318.929,243.917v-5.98v-12.043c0-17.004-6.981-33.482-19.867-44.577
	c-10.102-8.699-24.303-16.292-43.062-16.501c-18.759,0.209-32.96,7.802-43.062,16.501c-12.886,11.095-19.867,27.572-19.867,44.577
	v12.043v5.98l0,0c-7.1,0-12.855,5.755-12.855,12.855v8.748c0,7.1,5.755,12.855,12.855,12.855h0.017
	c0.355,16.529,7.301,32.439,19.85,43.244c10.103,8.699,24.303,16.292,43.062,16.501c18.759-0.209,32.96-7.802,43.062-16.501
	c12.549-10.805,19.495-26.715,19.85-43.244h0.017c7.1,0,12.855-5.755,12.855-12.855v-8.748
	C331.784,249.672,326.028,243.917,318.929,243.917z"/>
<path style="fill:#2D5872;" d="M361.936,379.123l-48.305-15.061c-2.662-0.83-5.57,0.278-6.937,2.709
	c-4.735,8.419-16.35,16.643-31.275,20.674l44.902,14c27.345,8.051,46.12,12.994,46.12,41.5v27.028h41.615V440.78
	C408.057,412.275,389.282,387.174,361.936,379.123z"/>
<g>
	<path style="fill:#F4D3A6;" d="M318.929,243.917L318.929,243.917v-5.98v-12.043c0-17.004-6.981-33.482-19.867-44.577
		c-10.102-8.699-24.303-16.292-43.062-16.501c-7.677,0.086-14.577,1.422-20.758,3.55c8.924,3.073,16.335,7.812,22.303,12.951
		c12.886,11.095,19.867,27.572,19.867,44.577l-0.017,52.481c-0.355,16.529-7.301,32.439-19.85,43.244
		c-5.968,5.139-13.38,9.878-22.303,12.951c6.181,2.128,13.082,3.465,20.758,3.55c18.759-0.209,32.96-7.802,43.062-16.501
		c12.549-10.805,19.495-26.715,19.85-43.244h0.017c7.099,0,12.855-5.755,12.855-12.855v-8.748
		C331.784,249.672,326.028,243.917,318.929,243.917z"/>
	<path style="fill:#F4D3A6;" d="M259.842,383.715l15.577,3.73l0,0c14.925-4.032,26.539-12.256,31.275-20.674
		c0.215-0.382,0.478-0.718,0.762-1.032l-5.77-1.629c-7.077-1.422-12.168-9.631-12.168-16.849v-18.697
		c-8.94,5.441-20.048,9.407-33.519,9.557c-2.887-0.032-5.652-0.258-8.325-0.617v29.363
		C247.675,374.084,252.766,382.292,259.842,383.715z"/>
</g>
<g>
	<path style="fill:#FFFFFF;" d="M103.318,97.846c0.763,2.712,4.159,4.031,7.575,4.09c3.328,0.058,6.858-1.139,7.534-3.827
		l6.27-24.181l5.333,24.384c0.582,2.709,4.067,4.029,7.395,4.087c3.418,0.06,6.767-1.141,7.713-3.823l18.796-56.259
		c0.094-0.268,0.192-0.717,0.199-1.076c0.045-2.608-4.056-4.749-7.383-4.807c-1.798-0.032-3.429,0.569-3.908,2.271L137.78,87.202
		l-7.098-31.432c-0.501-2.258-3.091-3.293-5.609-3.337c-2.609-0.045-5.234,0.899-5.812,3.137l-8.192,31.165L97.711,37.742
		c-0.42-1.716-2.028-2.374-3.827-2.406c-3.327-0.058-7.501,1.938-7.546,4.547c-0.006,0.359,0.076,0.811,0.161,1.082L103.318,97.846z
		"/>
	<path style="fill:#FFFFFF;" d="M173.804,101.319c1.978,0.035,3.518-0.568,3.998-2.269l3.627-11.901l20.595,0.359l3.209,12.022
		c0.42,1.716,1.938,2.373,3.916,2.408c3.147,0.055,7.411-1.94,7.46-4.728c0.004-0.27-0.08-0.541-0.165-0.902l-16.369-56.873
		c-0.763-2.713-4.068-4.029-7.486-4.089c-3.327-0.058-6.677,1.143-7.534,3.827L166.71,95.438c-0.097,0.358-0.192,0.717-0.195,0.896
		C166.464,99.212,170.656,101.265,173.804,101.319z M192.324,50.543l7.342,27.747l-15.648-0.273L192.324,50.543z"/>
	<path style="fill:#FFFFFF;" d="M230.321,101.35c2.878,0.05,5.868-1.157,5.91-3.586l0.631-36.155l18.705,36.492
		c1.48,2.815,3.892,3.757,6.681,3.805c2.878,0.05,5.868-1.157,5.911-3.585l1.02-58.459c0.044-2.518-2.905-3.649-5.783-3.699
		c-2.967-0.052-5.865,0.977-5.909,3.495l-0.631,36.155l-16.772-33.85c-2.695-5.355-4.388-6.284-8.615-6.358
		c-2.968-0.052-5.867,1.067-5.911,3.586l-1.019,58.369C224.497,99.988,227.353,101.298,230.321,101.35z"/>
	<path style="fill:#FFFFFF;" d="M280.967,46.076l13.221,0.231l-0.9,51.534c-0.042,2.428,2.814,3.737,5.781,3.789
		c2.878,0.05,5.869-1.157,5.911-3.585l0.9-51.534l13.131,0.229c2.338,0.041,3.73-2.454,3.78-5.242
		c0.044-2.519-1.079-5.237-3.597-5.281l-38.043-0.664c-2.518-0.044-3.734,2.634-3.779,5.152
		C277.322,43.583,278.629,46.035,280.967,46.076z"/>
	<path style="fill:#FFFFFF;" d="M334.992,101.396l32.018,0.559c2.518,0.044,3.732-2.544,3.775-4.972
		c0.049-2.788-1.258-5.24-3.596-5.281l-25.452-0.444l0.316-18.078l13.67,0.239c2.519,0.044,3.73-2.364,3.767-4.432
		c0.042-2.429-1.268-4.7-3.606-4.741l-13.67-0.239l0.314-17.988l25.452,0.445c2.338,0.041,3.729-2.364,3.779-5.152
		c0.042-2.428-1.082-5.057-3.6-5.101l-32.018-0.559c-2.609-0.045-5.149,1.17-5.191,3.598l-1.019,58.369
		C329.887,100.047,332.383,101.35,334.992,101.396z"/>
	<path style="fill:#FFFFFF;" d="M384.405,101.357l15.919,0.278c11.872,0.207,21.232-5.207,21.495-20.227l0.428-24.552
		c0.262-15.02-8.903-20.757-20.775-20.965l-15.919-0.278c-3.058-0.053-5.156,1.619-5.189,3.508l-1.022,58.549
		C379.309,99.558,381.347,101.303,384.405,101.357z M391.939,45.98l9.354,0.163c5.936,0.104,9.385,3.493,9.262,10.508l-0.428,24.553
		c-0.123,7.015-3.688,10.281-9.624,10.178l-9.354-0.163L391.939,45.98z"/>
</g>
<g>
</g>
<g>
</g>
<g>
</g>
<g>
</g>
<g>
</g>
<g>
</g>
<g>
</g>
<g>
</g>
<g>
</g>
<g>
</g>
<g>
</g>
<g>
</g>
<g>
</g>
<g>
</g>
<g>
</g>
</svg>
