<?xml version="1.0" encoding="iso-8859-1"?>
<!-- Generator: Adobe Illustrator 19.0.0, SVG Export Plug-In . SVG Version: 6.00 Build 0)  -->
<svg version="1.1" id="Capa_1" xmlns="http://www.w3.org/2000/svg" xmlns:xlink="http://www.w3.org/1999/xlink" x="0px" y="0px"
	 viewBox="0 0 512 512" style="enable-background:new 0 0 512 512;" xml:space="preserve">
<path style="fill:#FFF0C0;" d="M365.931,7.5H86.79c-9.383,0-16.99,7.607-16.99,16.99v144.867c0,5.041,1.976,9.881,5.504,13.481
	l10.91,11.133c1.755,1.79,1.905,4.606,0.35,6.573l-12.615,15.962c-2.688,3.4-4.149,7.608-4.149,11.942V487.51
	c0,9.383,7.607,16.99,16.99,16.99h97.098c3.625,0,6.968-1.956,8.744-5.116l12.043-21.429c1.103-1.963,3.818-2.24,5.295-0.539
	l20.517,23.63c1.905,2.194,4.668,3.454,7.574,3.454h187.152c9.383,0,16.99-7.607,16.99-16.99V83.771L365.931,7.5z"/>
<path style="fill:#A28577;" d="M376.002,332.15H136c-7.505,0-13.59-6.084-13.59-13.59V130.818c0-7.506,6.084-13.59,13.59-13.59
	h240.003c7.505,0,13.59,6.084,13.59,13.59V318.56C389.592,326.065,383.508,332.15,376.002,332.15z"/>
<path style="fill:#F2937E;" d="M328.789,243.934c-4.516,11.107-12.625,14.486-19.756,11.587s-10.582-10.977-6.067-22.085
	s16.182-23.236,23.313-20.337C333.409,215.998,333.304,232.827,328.789,243.934z"/>
<path style="opacity:0.2;enable-background:new    ;" d="M328.789,243.934c-4.516,11.107-12.625,14.486-19.756,11.587
	s-10.582-10.977-6.067-22.085s16.182-23.236,23.313-20.337C333.409,215.998,333.304,232.827,328.789,243.934z"/>
<path style="fill:#F2937E;" d="M324.353,267.808c-11.951,0.968-18.618-4.753-19.24-12.425c-0.621-7.672,5.039-14.391,16.99-15.359
	c11.951-0.968,28.033,3.991,28.654,11.663C351.379,259.359,336.304,266.84,324.353,267.808z"/>
<path style="opacity:0.1;enable-background:new    ;" d="M324.353,267.808c-11.951,0.968-18.618-4.753-19.24-12.425
	c-0.621-7.672,5.039-14.391,16.99-15.359c11.951-0.968,28.033,3.991,28.654,11.663C351.379,259.359,336.304,266.84,324.353,267.808z
	"/>
<path style="fill:#F2937E;" d="M321.19,247.552c-8.87,28.488-41.262,48.291-60.161,57.285c-1.963,0.934-4.232,0.934-6.196,0
	c-18.899-8.994-51.291-28.797-60.161-57.285c-0.692-2.224,0.62-4.571,2.881-5.128c7.729-1.905,27.047-5.609,60.378-5.609
	s52.648,3.705,60.378,5.609C320.57,242.981,321.882,245.329,321.19,247.552z"/>
<path style="fill:#DDAF89;" d="M256.001,197.665c13.258,0,31.901-1.153,47.39-2.588l-13.371-40.411
	c-1.364-4.121-5.67-6.497-9.884-5.454l-12.833,3.179c-6.007,1.488-12.286,1.488-18.292,0l-12.833-3.179
	c-4.214-1.044-8.52,1.333-9.884,5.454l-13.495,40.785C227.365,196.706,243.918,197.665,256.001,197.665z"/>
<path style="opacity:0.1;enable-background:new    ;" d="M382.683,83.771H129.319c-3.816,0-6.91-3.094-6.91-6.91V47.867
	c0-3.816,3.093-6.91,6.91-6.91h253.364c3.816,0,6.91,3.093,6.91,6.91v28.995C389.592,80.678,386.499,83.771,382.683,83.771z"/>
<path style="fill:#DDAF89;" d="M397.797,76.789L397.797,76.789c8.293-4.225,18.041-4.517,26.571-0.796l17.833,7.779l0,0
	c0-42.123-34.148-76.271-76.271-76.271l0,0l8.019,16.74c5.418,11.311,8.505,23.596,9.076,36.125l0.367,8.041
	C383.72,75.606,391.376,80.06,397.797,76.789z"/>
<path style="opacity:0.1;enable-background:new    ;" d="M140.217,7.5H86.79c-9.383,0-16.99,7.606-16.99,16.99v144.867
	c0,5.041,1.976,9.881,5.504,13.481l10.91,11.133c1.755,1.79,1.905,4.606,0.35,6.573l-12.615,15.962
	c-2.688,3.4-4.149,7.608-4.149,11.942V487.51c0,9.383,7.607,16.99,16.99,16.99h97.098c3.625,0,6.968-1.956,8.744-5.116
	l12.043-21.429c1.103-1.963,3.818-2.24,5.295-0.539l20.517,23.63c1.905,2.194,4.668,3.454,7.574,3.454h21.907
	C169.572,423.017,142.231,118.711,140.217,7.5z"/>
<path d="M256.001,205.165c19.468,0,50.048-2.408,66.396-4.656c4.104-0.564,6.973-4.349,6.408-8.452
	c-0.565-4.104-4.346-6.966-8.452-6.408c-3.321,0.457-7.318,0.925-11.726,1.378l-11.487-34.717
	c-2.579-7.793-10.843-12.352-18.807-10.377l-12.833,3.179c-4.804,1.189-9.882,1.189-14.686,0l-12.832-3.179
	c-7.971-1.974-16.23,2.585-18.808,10.378l-11.624,35.13c-6.066-0.578-11.559-1.194-15.901-1.792c-4.1-0.558-7.887,2.305-8.452,6.408
	c-0.564,4.104,2.305,7.888,6.408,8.452C205.953,202.757,236.533,205.165,256.001,205.165z M233.415,157.022
	c0.132-0.398,0.553-0.629,0.96-0.53l12.833,3.179c7.164,1.774,14.736,1.774,21.899,0l12.833-3.179
	c0.405-0.101,0.828,0.132,0.96,0.53l10.385,31.385c-13.012,1.021-26.953,1.758-37.284,1.758c-9.224,0-21.327-0.587-33.077-1.44
	L233.415,157.022z M184.165,388.523c4.142,0,7.5-3.358,7.5-7.5s-3.358-7.5-7.5-7.5h-14.534v-2.692c0-4.142-3.358-7.5-7.5-7.5
	s-7.5,3.358-7.5,7.5v2.807c-12.345,1.182-22.033,11.61-22.033,24.26c0,12.65,9.688,23.077,22.033,24.26v18.864h-14.533
	c-4.142,0-7.5,3.358-7.5,7.5s3.358,7.5,7.5,7.5h14.533v2.691c0,4.142,3.358,7.5,7.5,7.5s7.5-3.358,7.5-7.5v-2.806
	c12.345-1.182,22.033-11.61,22.033-24.26c0-12.65-9.688-23.077-22.033-24.26v-18.864L184.165,388.523L184.165,388.523z
	 M154.631,406.965c-4.038-1.044-7.033-4.707-7.033-9.067c0-4.359,2.995-8.022,7.033-9.066V406.965z M176.665,431.647
	c0,4.359-2.996,8.022-7.033,9.067V422.58C173.669,423.625,176.665,427.288,176.665,431.647z M251.611,311.61
	c2.008,0.956,4.163,1.433,6.32,1.433c2.156,0,4.313-0.478,6.321-1.434c11.435-5.442,34.399-17.97,50.167-37.014
	c2.283,0.544,4.728,0.82,7.328,0.82c1.046,0,2.117-0.044,3.211-0.133c7.002-0.567,14.861-2.998,21.02-6.503
	c11.385-6.478,12.564-13.87,12.254-17.698c-0.31-3.829-2.664-10.935-14.942-15.497c-1.382-0.514-2.84-0.955-4.329-1.35
	c0.529-3.966,0.63-7.922,0.246-11.483c-1.227-11.368-6.858-15.28-10.105-16.6c-12.785-5.2-27.679,11.163-33.086,24.461
	c-0.072,0.177-0.131,0.352-0.2,0.529c-9.896-1.05-22.432-1.827-37.887-1.827c-33.518,0-53.339,3.65-62.172,5.827
	c-3.072,0.757-5.726,2.771-7.281,5.527c-1.558,2.762-1.91,6.083-0.967,9.113C197.845,282.969,235.78,304.076,251.611,311.61z
	 M328.8,247.583c0.07,0.007,0.142,0.012,0.212,0.019c0.06,0.009,0.12,0.009,0.18,0.016c6.482,0.708,12.105,2.992,13.823,4.695
	c-1.868,2.571-10.219,7.212-19.037,7.994c1.744-3.363,3.235-6.867,4.374-10.526l0,0C328.575,249.062,328.721,248.325,328.8,247.583z
	 M323.348,220.298c0.908,1.801,1.501,6.502,0.736,12.121c-0.875,0.019-1.739,0.061-2.585,0.129c-2.549,0.206-4.971,0.646-7.23,1.31
	c-0.93-0.184-1.915-0.37-2.966-0.558C314.941,226.441,320.679,221.196,323.348,220.298z M257.931,244.315
	c28.168,0,46.035,2.726,54.797,4.539c-4.143,9.866-17.031,31.144-54.797,49.152c-37.767-18.008-50.654-39.286-54.796-49.152
	C211.896,247.041,229.763,244.315,257.931,244.315z M365.931,0H86.79C73.286,0,62.3,10.986,62.3,24.49v144.867
	c0,7.046,2.716,13.698,7.648,18.73l9.356,9.547l-11.239,14.221c-3.718,4.704-5.765,10.597-5.765,16.592v201.069
	c0,4.142,3.358,7.5,7.5,7.5s7.5-3.358,7.5-7.5V228.447c0-2.635,0.9-5.225,2.534-7.292l12.615-15.962
	c3.885-4.916,3.507-11.997-0.878-16.472l-10.91-11.133c-2.168-2.211-3.361-5.135-3.361-8.232V24.49c0-5.232,4.257-9.49,9.49-9.49
	h274.417l5.978,12.48c0.941,1.965,1.779,3.963,2.564,5.977h-240.43c-7.945,0-14.41,6.464-14.41,14.41v28.995
	c0,7.945,6.464,14.409,14.41,14.409h253.363c4.798,0,9.04-2.326,11.657-5.932c2.351-0.143,4.686-0.758,6.863-1.868
	c6.318-3.219,13.669-3.438,20.168-0.604l13.332,5.815V487.51c0,5.232-4.257,9.49-9.49,9.49H238.06c-0.733,0-1.43-0.318-1.911-0.871
	l-20.517-23.63c-2.291-2.639-5.734-4.002-9.211-3.648c-3.476,0.354-6.574,2.384-8.285,5.43l-12.043,21.429
	c-0.447,0.796-1.292,1.29-2.206,1.29H86.79c-5.232,0-9.49-4.257-9.49-9.49v-21.802c0-4.142-3.358-7.5-7.5-7.5s-7.5,3.358-7.5,7.5
	v21.802c0,13.504,10.986,24.49,24.49,24.49h97.098c6.327,0,12.183-3.426,15.282-8.942l9.089-16.172l16.564,19.078
	c3.331,3.836,8.156,6.036,13.236,6.036H425.21c13.504,0,24.49-10.986,24.49-24.49V83.771C449.702,37.58,412.122,0,365.931,0z
	 M129.91,76.271V48.457h244.174c0.768,4.023,1.261,8.109,1.45,12.25l0.367,8.041c0.122,2.687,0.856,5.246,2.092,7.523H129.91z
	 M427.367,69.118c-4.952-2.16-10.205-3.235-15.449-3.235c-6.01,0-12.01,1.413-17.525,4.223c-0.753,0.383-1.419,0.3-1.888,0.131
	c-0.071-0.03-0.143-0.06-0.215-0.088c-0.077-0.036-0.148-0.072-0.208-0.107c-0.425-0.248-1.146-0.833-1.198-1.977l-0.367-8.042
	c-0.621-13.609-3.92-26.738-9.804-39.023l-2.333-4.871c28.141,5.166,50.346,27.522,55.291,55.739L427.367,69.118z M371.904,388.523
	c4.142,0,7.5-3.358,7.5-7.5s-3.358-7.5-7.5-7.5h-14.533v-2.692c0-4.142-3.358-7.5-7.5-7.5s-7.5,3.358-7.5,7.5v2.807
	c-12.346,1.182-22.034,11.61-22.034,24.26c0,12.65,9.688,23.078,22.034,24.26v18.864h-14.534c-4.142,0-7.5,3.358-7.5,7.5
	s3.358,7.5,7.5,7.5h14.534v2.691c0,4.142,3.358,7.5,7.5,7.5s7.5-3.358,7.5-7.5v-2.806c12.345-1.182,22.033-11.61,22.033-24.26
	c0-12.65-9.688-23.077-22.033-24.26v-18.864L371.904,388.523L371.904,388.523z M342.371,406.965
	c-4.038-1.044-7.034-4.707-7.034-9.067c0-4.359,2.996-8.023,7.034-9.067V406.965z M364.404,431.647c0,4.359-2.996,8.022-7.033,9.067
	V422.58C361.408,423.625,364.404,427.288,364.404,431.647z M278.034,388.523c4.142,0,7.5-3.358,7.5-7.5s-3.358-7.5-7.5-7.5h-14.533
	v-2.692c0-4.142-3.358-7.5-7.5-7.5s-7.5,3.358-7.5,7.5v2.807c-12.345,1.182-22.033,11.61-22.033,24.26
	c0,12.65,9.688,23.077,22.033,24.26v18.864h-14.533c-4.142,0-7.5,3.358-7.5,7.5s3.358,7.5,7.5,7.5h14.533v2.691
	c0,4.142,3.358,7.5,7.5,7.5s7.5-3.358,7.5-7.5v-2.806c12.345-1.182,22.033-11.61,22.033-24.26c0-12.65-9.688-23.077-22.033-24.26
	v-18.864L278.034,388.523L278.034,388.523z M248.501,406.965c-4.038-1.044-7.033-4.707-7.033-9.067c0-4.359,2.995-8.022,7.033-9.066
	V406.965z M270.534,431.647c0,4.359-2.996,8.022-7.033,9.067V422.58C267.539,423.625,270.534,427.288,270.534,431.647z
	 M389.592,153.395c4.142,0,7.5-3.358,7.5-7.5v-15.077c0-11.629-9.461-21.09-21.09-21.09H136c-11.629,0-21.09,9.461-21.09,21.09
	V318.56c0,11.629,9.461,21.09,21.09,21.09h240.003c11.629,0,21.09-9.461,21.09-21.09V181.72c0-4.142-3.358-7.5-7.5-7.5
	s-7.5,3.358-7.5,7.5v136.84c0,3.358-2.732,6.09-6.09,6.09H136c-3.358,0-6.09-2.732-6.09-6.09V130.818c0-3.358,2.732-6.09,6.09-6.09
	h240.003c3.358,0,6.09,2.732,6.09,6.09v15.077C382.092,150.038,385.45,153.395,389.592,153.395z"/>
<g>
</g>
<g>
</g>
<g>
</g>
<g>
</g>
<g>
</g>
<g>
</g>
<g>
</g>
<g>
</g>
<g>
</g>
<g>
</g>
<g>
</g>
<g>
</g>
<g>
</g>
<g>
</g>
<g>
</g>
</svg>
