<?xml version="1.0" encoding="iso-8859-1"?>
<!-- Generator: Adobe Illustrator 19.0.0, SVG Export Plug-In . SVG Version: 6.00 Build 0)  -->
<svg version="1.1" id="Capa_1" xmlns="http://www.w3.org/2000/svg" xmlns:xlink="http://www.w3.org/1999/xlink" x="0px" y="0px"
	 viewBox="0 0 512 512" style="enable-background:new 0 0 512 512;" xml:space="preserve">
<g>
	<g>
		<path d="M338.518,27.951H173.481c-4.2,0-7.604,3.405-7.604,7.604s3.405,7.604,7.604,7.604h165.037c4.2,0,7.604-3.405,7.604-7.604
			S342.718,27.951,338.518,27.951z"/>
	</g>
</g>
<g>
	<g>
		<path d="M424.037,152.354c-4.2,0-7.604,3.405-7.604,7.604v285.994l-23.501-18.007c-3.262-2.498-7.915-1.955-10.513,1.224
			l-55.263,67.625H95.567V43.159h6.468c4.2,0,7.604-3.405,7.604-7.604s-3.404-7.604-7.604-7.604H87.963
			c-4.2,0-7.604,3.405-7.604,7.604v468.841c0,4.199,3.404,7.604,7.604,7.604h242.799c1.1,0,2.187-0.238,3.187-0.7l93.275-43.039
			c2.693-1.243,4.417-3.938,4.417-6.904V159.958C431.641,155.758,428.238,152.354,424.037,152.354z M357.515,483.678l32.018-39.181
			l19.881,15.233L357.515,483.678z"/>
	</g>
</g>
<g>
	<g>
		<path d="M424.037,27.951h-14.072c-4.2,0-7.604,3.405-7.604,7.604s3.404,7.604,7.604,7.604h6.468v91.45
			c0,4.199,3.404,7.604,7.604,7.604s7.604-3.405,7.604-7.604V35.555C431.641,31.356,428.238,27.951,424.037,27.951z"/>
	</g>
</g>
<g>
	<g>
		<path d="M383.484,68.507H128.517c-4.2,0-7.604,3.405-7.604,7.604v387.732c0,4.199,3.404,7.604,7.604,7.604h35.432
			c4.2,0,7.604-3.405,7.604-7.604c0-4.199-3.404-7.604-7.604-7.604h-27.829V83.714H375.88V334.51
			c-11.564-4.287-31.307-15.546-38.814-43.698c-3.015-11.305-3.367-22.495-1.108-35.216c0.734-4.136-2.023-8.083-6.157-8.817
			c-4.133-0.739-8.083,2.022-8.817,6.157c-2.625,14.781-2.172,28.452,1.387,41.794c10.427,39.101,40.202,51.918,53.509,55.769
			v63.936c0,4.199,3.405,7.604,7.604,7.604c4.2,0,7.604-3.405,7.604-7.604V76.111C391.088,71.911,387.684,68.507,383.484,68.507z"/>
	</g>
</g>
<g>
	<g>
		<path d="M337.829,456.238h-9.691c-8.942-15.732-14.987-18.58-24.375-21.974c-7.53-2.722-17.842-6.45-38.624-27.232
			c-16.025-16.024-19.731-37.745-11.017-64.56c1.977-6.083,4.402-11.769,6.856-16.793c0.898,4.52,2.205,8.847,4.037,12.844
			c1.279,2.791,4.035,4.438,6.918,4.438c1.06,0,2.136-0.223,3.163-0.693c3.818-1.75,5.494-6.263,3.744-10.081
			c-8.187-17.861-3.018-47.157,3.221-65.824c1.632,1.261,3.387,2.456,5.284,3.568c1.208,0.709,2.532,1.045,3.839,1.045
			c2.61,0,5.151-1.345,6.568-3.759c2.124-3.623,0.908-8.281-2.715-10.405c-14.924-8.749-17.997-25.413-20.969-41.529
			c-2.13-11.548-4.141-22.455-10.958-29.272c-9.464-9.463-26.168-5.816-43.852-1.952c-10.826,2.365-27.186,5.939-31.175,1.952
			c-1.757-1.758-1.992-3.197-1.989-4.372c0.018-8.468,14.005-22.335,23.262-31.512c1.044-1.035,2.068-2.05,3.061-3.043
			c8.615-8.616,30.811-28.477,50.953-26.781c8.747,0.735,16.151,5.529,22.635,14.656c14.789,20.815,28.434,24.686,37.462,27.248
			c4.266,1.211,6.759,1.975,8.368,3.607c2.067,2.098,3.596,6.62,4.543,13.439c2.001,14.408-2.591,28.835-7.453,44.11
			c-0.68,2.137-1.365,4.287-2.037,6.451c-1.245,4.011,0.998,8.271,5.008,9.516c4.013,1.243,8.271-0.999,9.516-5.008
			c0.66-2.13,1.333-4.245,2.003-6.347c5.163-16.219,10.5-32.989,8.025-50.815c-3.063-22.057-11.807-26.175-23.825-29.585
			c-8.215-2.331-17.526-4.973-29.214-21.425c-9.109-12.819-20.468-19.886-33.761-21.003c-25.537-2.144-50.414,18.617-62.98,31.182
			c-0.976,0.976-1.985,1.976-3.013,2.996c-12.999,12.887-27.732,27.493-27.764,42.279c-0.012,5.689,2.216,10.93,6.443,15.158
			c3.222,3.222,7.31,4.967,11.954,5.732c-1,3.027-1.759,6.134-2.266,9.29c-2.424-0.258-4.895,0.663-6.553,2.596
			c-3.217,3.753-2.071,9.606,2.396,11.721c1.185,0.561,2.418,1.053,3.726,1.473c2.385,22.749,17.576,41.733,38.211,49.613
			c-3.681,6.975-12.235,18.318-18.912,27.172c-21.744,28.829-48.806,64.708-34.877,89.47c4.72,8.39,10.634,14.271,17.029,18.285
			l3.646,44.121h-2.894c-4.199,0-7.603,3.404-7.603,7.604c0,4.199,3.404,7.604,7.604,7.604h149.038c4.2,0,7.604-3.405,7.604-7.604
			C345.433,459.642,342.03,456.238,337.829,456.238z M218.03,313.52c10.924-14.486,18.416-24.673,21.78-32.737
			c2.06,0.215,4.149,0.33,6.265,0.33c4.2,0,7.604-3.405,7.604-7.604c0-4.199-3.404-7.604-7.604-7.604
			c-22.116,0-40.515-16.18-44.005-37.323c0.965-0.122,1.954-0.265,2.99-0.453c4.237-0.768,7.012-4.908,6.062-9.151
			c-0.887-3.964-4.9-6.444-8.902-5.785c0.703-3.821,1.9-7.53,3.564-11.033c5.441-0.783,11.112-2.019,16.723-3.244
			c10.459-2.284,26.266-5.738,29.851-2.152c3.474,3.472,5.067,12.121,6.756,21.277c2.084,11.309,4.505,24.385,11.47,35.552
			c-4.232,10.36-9.006,26.767-10.604,43.783c-3.601,5.103-13.789,20.516-20.192,40.006c-0.151,0.458-0.287,0.914-0.431,1.37
			c-19.703-5.306-25.862-13.468-26.524-18.317C214.601,318.065,216.345,315.754,218.03,313.52z M206.946,456.237l-3.122-37.782
			c4.056,0.867,8.083,1.233,11.918,1.233c7.541,0,14.351-1.408,19.228-3.169c3.95-1.427,5.996-5.785,4.569-9.735
			s-5.787-5.996-9.734-4.569c-0.077,0.027-7.901,2.734-17.443,2.1c-12.413-0.827-21.866-6.863-28.096-17.938
			c-6.617-11.764,4.831-32.46,18.524-52.101c4.972,6.93,14.573,14.352,32.93,19.245c-4.41,25.513,1.907,47.51,18.663,64.265
			c23.179,23.179,35.334,27.573,44.209,30.781c4.694,1.697,7.704,2.788,11.499,7.672H206.946z"/>
	</g>
</g>
<g>
	<g>
		<path d="M154.487,0H121.03c-4.2,0-7.604,3.405-7.604,7.604v43.869c0,4.199,3.404,7.604,7.604,7.604h33.457
			c4.2,0,7.604-3.405,7.604-7.604V7.604C162.091,3.405,158.688,0,154.487,0z M146.883,43.869h-18.25V15.208h18.25V43.869z"/>
	</g>
</g>
<g>
	<g>
		<path d="M390.971,0h-33.457c-4.2,0-7.604,3.405-7.604,7.604v43.869c0,4.199,3.404,7.604,7.604,7.604h33.457
			c4.2,0,7.604-3.405,7.604-7.604V7.604C398.575,3.405,395.171,0,390.971,0z M383.367,43.869h-18.25V15.208h18.25V43.869z"/>
	</g>
</g>
<g>
	<g>
		<path d="M255.292,219.062c-0.894-3.994-4.96-6.485-8.99-5.773c-8.849,1.56-12.368-0.59-12.404-0.612
			c0.033,0.021-0.017-0.002-0.133-0.061c-3.1-1.558-6.869-0.784-9.128,1.85c-3.217,3.753-2.071,9.606,2.396,11.721
			c3.639,1.722,7.651,2.876,13.302,2.876c2.608,0,5.566-0.246,8.896-0.851C253.467,227.446,256.242,223.306,255.292,219.062z"/>
	</g>
</g>
<g>
	<g>
		<path d="M355.571,104.701h-20.614c-4.2,0-7.604,3.405-7.604,7.604s3.404,7.604,7.604,7.604h20.614c4.2,0,7.604-3.405,7.604-7.604
			S359.771,104.701,355.571,104.701z"/>
	</g>
</g>
<g>
	<g>
		<path d="M322.472,110.823c-0.101-0.487-0.243-0.973-0.436-1.43c-0.193-0.456-0.426-0.902-0.7-1.308
			c-0.274-0.416-0.588-0.811-0.943-1.156c-0.355-0.355-0.739-0.669-1.156-0.953c-0.416-0.274-0.852-0.507-1.319-0.7
			c-0.455-0.182-0.933-0.335-1.418-0.426c-0.983-0.203-1.987-0.203-2.971,0c-0.487,0.091-0.963,0.243-1.419,0.426
			c-0.466,0.193-0.902,0.426-1.318,0.7c-0.416,0.284-0.801,0.598-1.157,0.953c-1.409,1.409-2.229,3.376-2.229,5.373
			s0.821,3.964,2.229,5.374c0.356,0.355,0.74,0.669,1.157,0.953c0.416,0.275,0.852,0.508,1.318,0.7
			c0.456,0.182,0.933,0.335,1.419,0.426c0.486,0.101,0.993,0.152,1.49,0.152c0.486,0,0.993-0.051,1.48-0.152
			c0.486-0.091,0.963-0.243,1.418-0.426c0.467-0.193,0.903-0.426,1.319-0.7c0.416-0.284,0.801-0.598,1.156-0.953
			c0.355-0.345,0.669-0.73,0.943-1.156c0.275-0.406,0.507-0.852,0.7-1.308c0.192-0.456,0.335-0.943,0.436-1.419
			c0.102-0.497,0.143-0.994,0.143-1.49C322.615,111.807,322.575,111.31,322.472,110.823z"/>
	</g>
</g>
<g>
</g>
<g>
</g>
<g>
</g>
<g>
</g>
<g>
</g>
<g>
</g>
<g>
</g>
<g>
</g>
<g>
</g>
<g>
</g>
<g>
</g>
<g>
</g>
<g>
</g>
<g>
</g>
<g>
</g>
</svg>
