<?xml version="1.0" encoding="iso-8859-1"?>
<!-- Generator: Adobe Illustrator 19.0.0, SVG Export Plug-In . SVG Version: 6.00 Build 0)  -->
<svg version="1.1" id="Capa_1" xmlns="http://www.w3.org/2000/svg" xmlns:xlink="http://www.w3.org/1999/xlink" x="0px" y="0px"
	 viewBox="0 0 511.766 511.766" style="enable-background:new 0 0 511.766 511.766;" xml:space="preserve">
<rect x="63.973" y="3.998" style="fill:#FFD2A6;" width="383.82" height="503.77"/>
<rect x="103.953" y="419.813" style="fill:#656D78;" width="303.86" height="15.993"/>
<path style="fill:#EAC6BB;" d="M340.914,253.208v17.918c0,55.584-52.632,101.969-84.961,101.969s-84.961-46.385-84.961-101.969
	v-16.305l20.287-28.256c0,0,33.399,13.923,63.994,13.923c30.533,0,64.322-13.923,64.322-13.923L340.914,253.208z"/>
<g style="opacity:0.2;">
	<path d="M255.797,251.885c-30.791,0-60.145-8.902-73.061-13.424l-11.744,16.36v6.793c27.487,7.028,48.657,14.26,84.805,14.26h0.156
		c36.233,0,57.38-7.271,84.961-14.307v-8.359l-11.854-14.813C316.237,242.893,286.736,251.885,255.797,251.885z"/>
</g>
<g style="opacity:0.5;">
	<path style="fill:#FFFFFF;" d="M186.985,271.126v-5.325c-5.177-1.359-10.472-2.772-15.992-4.187v9.512
		c0,55.584,52.632,101.969,84.961,101.969c2.538,0,5.239-0.383,7.996-0.937C231.636,365.645,186.985,322.337,186.985,271.126z"/>
</g>
<g style="opacity:0.2;">
	<path d="M324.882,271.126v-5.325c5.178-1.359,10.473-2.772,15.993-4.187v9.512c0,55.584-52.632,101.969-84.961,101.969
		c-2.538,0-5.24-0.383-7.996-0.937C280.231,365.645,324.882,322.337,324.882,271.126z"/>
</g>
<path style="fill:#ED5565;" d="M335.76,307.86c0,0-9.433,53.975-79.807,87.959c-70.444-33.984-80.12-87.959-80.12-87.959
	s53.413,15.992,80.12,15.992C277.786,323.852,335.76,307.86,335.76,307.86z"/>
<g style="opacity:0.3;">
	<path style="fill:#FFFFFF;" d="M193.06,312.639c-10.183-2.679-17.227-4.779-17.227-4.779s9.676,53.975,80.12,87.959
		c2.812-1.358,5.372-2.795,7.988-4.217C212.59,363.865,197.019,325.82,193.06,312.639z"/>
</g>
<g style="opacity:0.2;">
	<path d="M318.799,312.639c10.183-2.679,17.227-4.779,17.227-4.779s-9.675,53.975-80.119,87.959
		c-2.812-1.358-5.373-2.795-7.988-4.217C299.269,363.865,314.84,325.82,318.799,312.639z"/>
</g>
<g>
	<path style="fill:#3A3847;" d="M192.065,327.85c-2.206,0-4.037-1.788-4.037-3.998s1.749-3.998,3.959-3.998h0.078
		c2.21,0,3.998,1.788,3.998,3.998S194.275,327.85,192.065,327.85z"/>
	<path style="fill:#3A3847;" d="M208.057,343.843c-2.206,0-4.037-1.788-4.037-3.998s1.749-3.999,3.959-3.999h0.078
		c2.21,0,3.998,1.789,3.998,3.999S210.267,343.843,208.057,343.843z"/>
	<path style="fill:#3A3847;" d="M224.05,359.835c-2.206,0-4.037-1.788-4.037-3.998s1.749-3.998,3.959-3.998h0.078
		c2.21,0,3.998,1.788,3.998,3.998S226.26,359.835,224.05,359.835z"/>
	<path style="fill:#3A3847;" d="M240.042,375.828c-2.206,0-4.037-1.788-4.037-3.998s1.749-3.998,3.959-3.998h0.078
		c2.21,0,3.998,1.788,3.998,3.998S242.252,375.828,240.042,375.828z"/>
	<path style="fill:#3A3847;" d="M256.035,391.821c-2.206,0-4.037-1.788-4.037-3.998s1.749-3.998,3.959-3.998h0.078
		c2.21,0,4.002,1.788,4.002,3.998S258.245,391.821,256.035,391.821z"/>
	<path style="fill:#3A3847;" d="M224.05,327.85c-2.206,0-4.037-1.788-4.037-3.998s1.749-3.998,3.959-3.998h0.078
		c2.21,0,3.998,1.788,3.998,3.998S226.26,327.85,224.05,327.85z"/>
	<path style="fill:#3A3847;" d="M240.042,343.843c-2.206,0-4.037-1.788-4.037-3.998s1.749-3.999,3.959-3.999h0.078
		c2.21,0,3.998,1.789,3.998,3.999S242.252,343.843,240.042,343.843z"/>
	<path style="fill:#3A3847;" d="M256.035,359.835c-2.206,0-4.037-1.788-4.037-3.998s1.749-3.998,3.959-3.998h0.078
		c2.21,0,4.002,1.788,4.002,3.998S258.245,359.835,256.035,359.835z"/>
	<path style="fill:#3A3847;" d="M272.031,375.828c-2.21,0-4.037-1.788-4.037-3.998s1.749-3.998,3.951-3.998h0.086
		c2.202,0,3.998,1.788,3.998,3.998S274.234,375.828,272.031,375.828z"/>
	<path style="fill:#3A3847;" d="M272.031,343.843c-2.21,0-4.037-1.788-4.037-3.998s1.749-3.999,3.951-3.999h0.086
		c2.202,0,3.998,1.789,3.998,3.999S274.234,343.843,272.031,343.843z"/>
	<path style="fill:#3A3847;" d="M288.025,359.835c-2.21,0-4.037-1.788-4.037-3.998s1.749-3.998,3.951-3.998h0.086
		c2.202,0,3.998,1.788,3.998,3.998S290.227,359.835,288.025,359.835z"/>
	<path style="fill:#3A3847;" d="M288.025,327.85c-2.21,0-4.037-1.788-4.037-3.998s1.749-3.998,3.951-3.998h0.086
		c2.202,0,3.998,1.788,3.998,3.998S290.227,327.85,288.025,327.85z"/>
	<path style="fill:#3A3847;" d="M304.017,343.843c-2.21,0-4.037-1.788-4.037-3.998s1.749-3.999,3.951-3.999h0.086
		c2.202,0,3.998,1.789,3.998,3.999S306.219,343.843,304.017,343.843z"/>
	<path style="fill:#3A3847;" d="M320.01,327.85c-2.21,0-4.038-1.788-4.038-3.998s1.75-3.998,3.952-3.998h0.086
		c2.202,0,3.998,1.788,3.998,3.998S322.212,327.85,320.01,327.85z"/>
</g>
<path style="fill:#965353;" d="M343.757,227.896c0,0,47.978,3.838,47.978,15.993c-60.69,7.277-80.846,23.988-135.781,23.988h-0.156
	c-54.936,0-75.169-16.711-135.781-23.988c0-12.155,47.978-15.993,47.978-15.993h7.84c0,0,38.701,15.993,79.964,15.993
	s79.963-15.993,79.963-15.993L343.757,227.896L343.757,227.896z"/>
<path style="fill:#7F4545;" d="M311.771,163.925c14.557,0,23.989,63.971,23.989,63.971s-38.7,15.993-79.963,15.993
	s-79.964-15.993-79.964-15.993s9.434-63.971,23.989-63.971s55.975,15.993,55.975,15.993S297.216,163.925,311.771,163.925z"/>
<g style="opacity:0.2;">
	<path style="fill:#FFFFFF;" d="M191.217,233.257c0,0,8.332-57.49,20.569-67.528c-4.725-1.089-8.941-1.804-11.964-1.804
		c-14.556,0-23.989,63.971-23.989,63.971L191.217,233.257z"/>
</g>
<g style="opacity:0.2;">
	<path d="M320.376,233.257c0,0-8.332-57.49-20.568-67.528c4.725-1.089,8.941-1.804,11.963-1.804
		c14.557,0,23.989,63.971,23.989,63.971L320.376,233.257z"/>
</g>
<g>
	<path style="fill:#3A3847;" d="M174.151,299.301c-1.788,0-3.416-1.211-3.873-3.022c-2.206-8.73-3.322-17.234-3.322-25.277
		c0-2.21,1.788-3.998,3.998-3.998s3.998,1.788,3.998,3.998c0,7.38,1.034,15.228,3.08,23.325c0.539,2.14-0.757,4.311-2.896,4.85
		C174.807,299.262,174.475,299.301,174.151,299.301z"/>
	<path style="fill:#3A3847;" d="M337.681,299.301c-0.336,0-0.671-0.039-1.015-0.133c-2.132-0.562-3.413-2.741-2.851-4.881
		c2.03-7.746,3.062-15.579,3.062-23.286c0-2.21,1.788-3.998,3.998-3.998s3.998,1.788,3.998,3.998c0,8.387-1.116,16.906-3.326,25.316
		C341.078,298.113,339.454,299.301,337.681,299.301z"/>
	<path style="fill:#3A3847;" d="M255.953,271.875c-2.21,0-3.998-1.788-3.998-3.998c0-2.209,1.788-3.998,3.998-3.998
		c30.368,0,49.681-5.13,72.045-11.069c15.618-4.15,33.149-8.805,56.583-12.03c-6.457-3.498-22.185-7.383-41.145-8.898
		c-2.202-0.176-3.842-2.104-3.662-4.307c0.172-2.206,2.146-3.85,4.303-3.666c15.531,1.242,51.655,5.677,51.655,19.979
		c0,2.022-1.515,3.729-3.521,3.971c-26.285,3.15-44.526,7.996-62.159,12.678C308.101,266.37,287.368,271.875,255.953,271.875z"/>
	<path style="fill:#3A3847;" d="M255.797,271.875c-31.431,0-52.188-5.513-74.165-11.346c-17.633-4.682-35.858-9.523-62.093-12.67
		c-2.011-0.242-3.522-1.948-3.522-3.971c0-14.303,36.125-18.738,51.656-19.979c2.241-0.145,4.131,1.468,4.307,3.666
		c0.176,2.202-1.468,4.131-3.666,4.307c-18.956,1.519-34.684,5.404-41.142,8.898c23.384,3.225,40.899,7.875,56.51,12.018
		c22.392,5.947,41.73,11.081,72.115,11.081c2.21,0,3.998,1.789,3.998,3.998C259.795,270.087,258.007,271.875,255.797,271.875z"/>
	<path style="fill:#3A3847;" d="M255.797,247.887c-2.21,0-3.998-1.789-3.998-3.998c0-2.21,1.788-3.999,3.998-3.999
		c33.625,0,65.868-10.975,75.528-14.568c-4.889-30.923-13.838-57.399-19.555-57.399c-11.33,0-43.206,11.351-54.533,15.724
		c-2.054,0.8-4.373-0.23-5.169-2.288c-0.797-2.062,0.23-4.377,2.288-5.169c1.722-0.664,42.289-16.262,57.414-16.262
		c16.251,0,24.958,47.123,27.949,67.387c0.265,1.812-0.734,3.577-2.43,4.275C335.675,232.257,297.371,247.887,255.797,247.887z"/>
	<path style="fill:#3A3847;" d="M255.797,247.887c-41.579,0-79.882-15.63-81.49-16.297c-1.694-0.699-2.698-2.464-2.429-4.275
		c2.987-20.264,11.69-67.387,27.944-67.387c15.126,0,55.693,15.599,57.415,16.262c2.058,0.792,3.081,3.108,2.288,5.169
		c-0.796,2.058-3.119,3.088-5.169,2.288c-11.327-4.373-43.211-15.724-54.534-15.724c-5.716,0-14.661,26.473-19.55,57.399
		c9.66,3.593,41.946,14.568,75.524,14.568c2.21,0,3.998,1.789,3.998,3.999C259.795,246.098,258.007,247.887,255.797,247.887z"/>
	<path style="fill:#3A3847;" d="M255.953,327.85c-2.21,0-3.998-1.788-3.998-3.998s1.788-3.998,3.998-3.998
		c21.045,0,78.167-15.688,78.745-15.852c2.124-0.547,4.334,0.671,4.92,2.795c0.585,2.124-0.664,4.326-2.796,4.92
		C334.433,312.373,278.075,327.85,255.953,327.85z"/>
	<path style="fill:#3A3847;" d="M255.953,327.85c-26.983,0-79.062-15.5-81.268-16.164c-2.112-0.633-3.314-2.858-2.683-4.975
		c0.633-2.116,2.851-3.334,4.979-2.678c0.527,0.156,53.159,15.82,78.972,15.82c2.21,0,3.998,1.788,3.998,3.998
		S258.163,327.85,255.953,327.85z"/>
	<path style="fill:#3A3847;" d="M255.949,399.817c-0.582,0-1.172-0.125-1.733-0.397c-71.46-34.477-81.908-88.569-82.318-90.857
		c-0.391-2.171,1.055-4.24,3.222-4.63c2.194-0.406,4.252,1.046,4.65,3.217c0.094,0.516,10.339,52.469,77.921,85.07
		c1.987,0.961,2.822,3.35,1.862,5.334C258.866,398.982,257.437,399.817,255.949,399.817z"/>
	<path style="fill:#3A3847;" d="M255.957,399.817c-1.487,0-2.913-0.827-3.604-2.256c-0.961-1.992-0.129-4.381,1.862-5.342
		c67.504-32.602,77.515-84.531,77.608-85.055c0.383-2.171,2.491-3.6,4.631-3.24c2.171,0.39,3.623,2.451,3.241,4.622
		c-0.398,2.288-10.605,56.396-82.006,90.873C257.132,399.692,256.539,399.817,255.957,399.817z"/>
</g>
<g style="opacity:0.5;">
	<rect x="63.973" y="3.998" style="fill:#FFFFFF;" width="7.996" height="503.77"/>
</g>
<g style="opacity:0.2;">
	<rect x="439.803" y="3.998" width="7.997" height="503.77"/>
</g>
<g>
	<path style="fill:#3A3847;" d="M432.044,23.989c-2.21,0-4.037-1.789-4.037-3.999c0-2.209,1.749-3.998,3.951-3.998h0.086
		c2.202,0,3.998,1.789,3.998,3.998C436.042,22.201,434.246,23.989,432.044,23.989z"/>
	<path style="fill:#3A3847;" d="M432.044,495.774c-2.21,0-4.037-1.789-4.037-3.998c0-2.211,1.749-3.999,3.951-3.999h0.086
		c2.202,0,3.998,1.788,3.998,3.999C436.042,493.985,434.246,495.774,432.044,495.774z"/>
	<path style="fill:#3A3847;" d="M80.201,495.774c-2.206,0-4.037-1.789-4.037-3.998c0-2.211,1.749-3.999,3.959-3.999h0.078
		c2.21,0,3.998,1.788,3.998,3.999C84.199,493.985,82.411,495.774,80.201,495.774z"/>
	<path style="fill:#3A3847;" d="M80.201,23.989c-2.206,0-4.037-1.789-4.037-3.999c0-2.209,1.749-3.998,3.959-3.998h0.078
		c2.21,0,3.998,1.789,3.998,3.998C84.199,22.201,82.411,23.989,80.201,23.989z"/>
	<path style="fill:#3A3847;" d="M192.151,327.85c-2.206,0-4.037-1.788-4.037-3.998s1.749-3.998,3.959-3.998h0.078
		c2.21,0,3.998,1.788,3.998,3.998S194.361,327.85,192.151,327.85z"/>
	<path style="fill:#3A3847;" d="M208.143,343.843c-2.206,0-4.037-1.788-4.037-3.998s1.749-3.999,3.959-3.999h0.078
		c2.21,0,3.998,1.789,3.998,3.999S210.353,343.843,208.143,343.843z"/>
	<path style="fill:#3A3847;" d="M224.136,359.835c-2.206,0-4.037-1.788-4.037-3.998s1.749-3.998,3.959-3.998h0.078
		c2.21,0,3.998,1.788,3.998,3.998S226.346,359.835,224.136,359.835z"/>
	<path style="fill:#3A3847;" d="M240.128,375.828c-2.206,0-4.037-1.788-4.037-3.998s1.749-3.998,3.959-3.998h0.078
		c2.21,0,3.998,1.788,3.998,3.998S242.338,375.828,240.128,375.828z"/>
	<path style="fill:#3A3847;" d="M256.121,391.821c-2.206,0-4.037-1.788-4.037-3.998s1.749-3.998,3.959-3.998h0.078
		c2.21,0,4.002,1.788,4.002,3.998S258.331,391.821,256.121,391.821z"/>
	<path style="fill:#3A3847;" d="M224.136,327.85c-2.206,0-4.037-1.788-4.037-3.998s1.749-3.998,3.959-3.998h0.078
		c2.21,0,3.998,1.788,3.998,3.998S226.346,327.85,224.136,327.85z"/>
	<path style="fill:#3A3847;" d="M240.128,343.843c-2.206,0-4.037-1.788-4.037-3.998s1.749-3.999,3.959-3.999h0.078
		c2.21,0,3.998,1.789,3.998,3.999S242.338,343.843,240.128,343.843z"/>
	<path style="fill:#3A3847;" d="M256.121,359.835c-2.206,0-4.037-1.788-4.037-3.998s1.749-3.998,3.959-3.998h0.078
		c2.21,0,4.002,1.788,4.002,3.998S258.331,359.835,256.121,359.835z"/>
	<path style="fill:#3A3847;" d="M272.117,375.828c-2.21,0-4.037-1.788-4.037-3.998s1.749-3.998,3.951-3.998h0.086
		c2.202,0,3.998,1.788,3.998,3.998S274.32,375.828,272.117,375.828z"/>
	<path style="fill:#3A3847;" d="M272.117,343.843c-2.21,0-4.037-1.788-4.037-3.998s1.749-3.999,3.951-3.999h0.086
		c2.202,0,3.998,1.789,3.998,3.999S274.32,343.843,272.117,343.843z"/>
	<path style="fill:#3A3847;" d="M288.111,359.835c-2.21,0-4.037-1.788-4.037-3.998s1.749-3.998,3.951-3.998h0.086
		c2.202,0,3.998,1.788,3.998,3.998S290.313,359.835,288.111,359.835z"/>
	<path style="fill:#3A3847;" d="M288.111,327.85c-2.21,0-4.037-1.788-4.037-3.998s1.749-3.998,3.951-3.998h0.086
		c2.202,0,3.998,1.788,3.998,3.998S290.313,327.85,288.111,327.85z"/>
	<path style="fill:#3A3847;" d="M304.103,343.843c-2.21,0-4.037-1.788-4.037-3.998s1.749-3.999,3.951-3.999h0.086
		c2.202,0,3.998,1.789,3.998,3.999S306.305,343.843,304.103,343.843z"/>
	<path style="fill:#3A3847;" d="M320.096,327.85c-2.21,0-4.038-1.788-4.038-3.998s1.75-3.998,3.952-3.998h0.086
		c2.202,0,3.998,1.788,3.998,3.998S322.298,327.85,320.096,327.85z"/>
	<path style="fill:#3A3847;" d="M174.272,299.293c-1.772,0-3.393-1.188-3.861-2.983c-2.229-8.48-3.361-16.992-3.361-25.293
		c0-2.21,1.788-3.998,3.998-3.998s3.998,1.788,3.998,3.998c0,7.613,1.042,15.446,3.096,23.263c0.562,2.132-0.714,4.318-2.85,4.881
		C174.951,299.254,174.608,299.293,174.272,299.293z"/>
	<path style="fill:#3A3847;" d="M337.736,299.285c-0.336,0-0.679-0.039-1.015-0.133c-2.14-0.562-3.413-2.749-2.851-4.881
		c2.054-7.816,3.101-15.642,3.101-23.255c0-2.21,1.788-3.998,3.998-3.998s3.998,1.788,3.998,3.998
		c0,8.301-1.132,16.812-3.366,25.285C341.133,298.098,339.509,299.285,337.736,299.285z"/>
	<path style="fill:#3A3847;" d="M256.012,271.875c-2.21,0-3.998-1.788-3.998-3.998c0-2.209,1.788-3.998,3.998-3.998
		c30.396,0,49.724-5.13,72.096-11.073c15.618-4.146,33.134-8.801,56.552-12.026c-6.465-3.49-22.185-7.375-41.137-8.898
		c-2.202-0.18-3.842-2.104-3.662-4.307c0.171-2.206,2.139-3.85,4.303-3.666c15.531,1.25,51.655,5.696,51.655,19.979
		c0,2.022-1.515,3.729-3.521,3.971c-26.27,3.15-44.503,7.992-62.136,12.674C308.195,266.37,287.454,271.875,256.012,271.875z"/>
	<path style="fill:#3A3847;" d="M255.883,271.875c-31.438,0-52.18-5.505-74.142-11.342c-17.637-4.682-35.871-9.523-62.14-12.674
		c-2.011-0.242-3.522-1.948-3.522-3.971c0-14.283,36.125-18.73,51.656-19.979c2.265-0.148,4.131,1.464,4.307,3.666
		s-1.464,4.127-3.666,4.307c-18.948,1.527-34.668,5.412-41.134,8.898c23.415,3.225,40.935,7.879,56.549,12.026
		c22.376,5.943,41.699,11.073,72.092,11.073c2.21,0,3.998,1.789,3.998,3.998C259.881,270.087,258.093,271.875,255.883,271.875z"/>
	<path style="fill:#3A3847;" d="M255.883,247.887c-2.21,0-3.998-1.789-3.998-3.998c0-2.21,1.788-3.999,3.998-3.999
		c33.586,0,65.86-10.975,75.528-14.568c-4.889-30.927-13.838-57.399-19.555-57.399c-11.338,0-43.206,11.351-54.533,15.724
		c-2.054,0.8-4.373-0.23-5.169-2.288c-0.797-2.062,0.227-4.373,2.288-5.169c1.718-0.664,42.273-16.262,57.414-16.262
		c16.251,0,24.958,47.123,27.949,67.387c0.265,1.812-0.734,3.577-2.43,4.275C335.76,232.257,297.465,247.887,255.883,247.887z"/>
	<path style="fill:#3A3847;" d="M255.883,247.887c-41.587,0-79.882-15.63-81.49-16.297c-1.694-0.699-2.698-2.464-2.429-4.275
		c2.987-20.264,11.69-67.387,27.944-67.387c15.142,0,55.697,15.599,57.415,16.262c2.062,0.796,3.081,3.108,2.288,5.169
		c-0.796,2.058-3.119,3.088-5.169,2.288c-11.323-4.373-43.195-15.724-54.534-15.724c-5.716,0-14.661,26.473-19.55,57.399
		c9.66,3.593,41.938,14.568,75.524,14.568c2.21,0,3.998,1.789,3.998,3.999C259.881,246.098,258.093,247.887,255.883,247.887z"/>
	<path style="fill:#3A3847;" d="M256.012,327.85c-2.21,0-3.998-1.788-3.998-3.998s1.788-3.998,3.998-3.998
		c21.057,0,78.194-15.688,78.772-15.852c2.108-0.547,4.334,0.671,4.92,2.795c0.585,2.124-0.664,4.326-2.796,4.92
		C334.519,312.373,278.146,327.85,256.012,327.85z"/>
	<path style="fill:#3A3847;" d="M256.012,327.85c-26.984,0-79.038-15.5-81.24-16.164c-2.116-0.633-3.315-2.858-2.683-4.975
		s2.854-3.334,4.979-2.678c0.527,0.156,53.132,15.82,78.944,15.82c2.21,0,3.994,1.788,3.994,3.998S258.222,327.85,256.012,327.85z"
		/>
	<path style="fill:#3A3847;" d="M256.008,399.817c-0.582,0-1.176-0.125-1.733-0.397c-71.413-34.477-81.881-88.569-82.291-90.85
		c-0.391-2.171,1.051-4.248,3.222-4.638c2.175-0.406,4.252,1.046,4.646,3.209c0.097,0.523,10.362,52.477,77.897,85.078
		c1.987,0.961,2.826,3.35,1.862,5.342C258.924,398.982,257.495,399.817,256.008,399.817z"/>
	<path style="fill:#3A3847;" d="M256.012,399.817c-1.487,0-2.917-0.827-3.604-2.256c-0.961-1.992-0.125-4.381,1.862-5.342
		c67.762-32.711,77.546-84.531,77.64-85.047c0.375-2.187,2.452-3.686,4.623-3.248c2.179,0.374,3.631,2.451,3.249,4.622
		c-0.398,2.288-10.621,56.396-82.037,90.873C257.187,399.692,256.594,399.817,256.012,399.817z"/>
	<path style="fill:#3A3847;" d="M447.795,511.766H63.971c-2.21,0-3.998-1.788-3.998-3.998V3.998c0-2.21,1.788-3.998,3.998-3.998
		h383.824c2.21,0,3.998,1.788,3.998,3.998v503.77C451.793,509.978,450.005,511.766,447.795,511.766z M67.969,503.77h375.828V7.996
		H67.969V503.77z"/>
	<path style="fill:#3A3847;" d="M127.938,119.945c-1.831,0-3.486-1.27-3.9-3.132l-15.993-71.967
		c-0.477-2.155,0.883-4.291,3.038-4.771c2.144-0.464,4.291,0.883,4.771,3.038l15.992,71.967c0.477,2.155-0.883,4.291-3.038,4.771
		C128.516,119.914,128.227,119.945,127.938,119.945z"/>
	<path style="fill:#3A3847;" d="M127.945,119.945c-0.219,0-0.438-0.016-0.66-0.055c-2.179-0.363-3.65-2.421-3.287-4.6l11.994-71.967
		c0.359-2.183,2.421-3.694,4.6-3.288c2.179,0.363,3.65,2.421,3.287,4.6l-11.994,71.967
		C131.561,118.559,129.866,119.945,127.945,119.945z"/>
	<path style="fill:#3A3847;" d="M151.927,119.945c-1.921,0-3.616-1.386-3.94-3.343l-11.994-71.967
		c-0.363-2.179,1.109-4.236,3.288-4.6c2.194-0.398,4.236,1.113,4.599,3.288l11.995,71.967c0.363,2.179-1.109,4.236-3.288,4.6
		C152.363,119.93,152.146,119.945,151.927,119.945z"/>
	<path style="fill:#3A3847;" d="M151.935,119.945c-0.289,0-0.578-0.031-0.871-0.094c-2.155-0.48-3.514-2.616-3.038-4.771
		l15.993-71.967c0.48-2.155,2.647-3.495,4.771-3.038c2.155,0.48,3.514,2.616,3.037,4.771l-15.992,71.967
		C155.421,118.676,153.766,119.945,151.935,119.945z"/>
	<path style="fill:#3A3847;" d="M175.923,119.945c-0.354,0-0.714-0.047-1.073-0.145c-2.128-0.594-3.374-2.796-2.784-4.924
		l19.991-71.967c0.594-2.128,2.792-3.358,4.924-2.784c2.128,0.594,3.373,2.796,2.783,4.924l-19.99,71.967
		C179.281,118.785,177.673,119.945,175.923,119.945z"/>
	<path style="fill:#3A3847;" d="M215.898,119.945c-1.75,0-3.358-1.16-3.851-2.929l-19.99-71.967c-0.59-2.128,0.656-4.33,2.784-4.924
		c2.136-0.574,4.333,0.656,4.923,2.784l19.991,71.967c0.59,2.128-0.656,4.33-2.784,4.924
		C216.612,119.899,216.252,119.945,215.898,119.945z"/>
	<path style="fill:#3A3847;" d="M209.237,95.956h-26.652c-2.21,0-3.998-1.788-3.998-3.998s1.788-3.998,3.998-3.998h26.652
		c2.21,0,3.998,1.788,3.998,3.998S211.446,95.956,209.237,95.956z"/>
	<path style="fill:#3A3847;" d="M231.894,119.945c-2.21,0-3.998-1.789-3.998-3.999V43.98c0-2.209,1.788-3.998,3.998-3.998
		s3.998,1.789,3.998,3.998v71.967C235.892,118.157,234.104,119.945,231.894,119.945z"/>
	<path style="fill:#3A3847;" d="M263.879,119.945c-1.53,0-2.991-0.883-3.654-2.374L228.24,45.604
		c-0.895-2.019,0.012-4.38,2.03-5.279c2.019-0.906,4.377,0.012,5.278,2.03l31.985,71.967c0.898,2.019-0.016,4.38-2.03,5.279
		C264.972,119.836,264.426,119.945,263.879,119.945z"/>
	<path style="fill:#3A3847;" d="M263.879,119.945c-2.21,0-3.998-1.789-3.998-3.999V43.98c0-2.209,1.788-3.998,3.998-3.998
		s3.998,1.789,3.998,3.998v71.967C267.877,118.157,266.089,119.945,263.879,119.945z"/>
	<path style="fill:#3A3847;" d="M295.864,119.945c-2.21,0-3.998-1.789-3.998-3.999V43.98c0-2.209,1.788-3.998,3.998-3.998
		s3.998,1.789,3.998,3.998v71.967C299.862,118.157,298.074,119.945,295.864,119.945z"/>
	<path style="fill:#3A3847;" d="M311.857,47.978h-31.984c-2.211,0-3.998-1.789-3.998-3.999c0-2.209,1.787-3.998,3.998-3.998h31.984
		c2.211,0,3.999,1.789,3.999,3.998C315.856,46.19,314.068,47.978,311.857,47.978z"/>
	<path style="fill:#3A3847;" d="M327.85,119.945c-2.21,0-3.998-1.789-3.998-3.999V43.98c0-2.209,1.788-3.998,3.998-3.998
		s3.998,1.789,3.998,3.998v71.967C331.848,118.157,330.06,119.945,327.85,119.945z"/>
	<path style="fill:#3A3847;" d="M351.839,47.978H327.85c-2.21,0-3.998-1.789-3.998-3.999c0-2.209,1.788-3.998,3.998-3.998h23.989
		c2.21,0,3.998,1.789,3.998,3.998C355.837,46.19,354.049,47.978,351.839,47.978z"/>
	<path style="fill:#3A3847;" d="M351.839,119.945H327.85c-2.21,0-3.998-1.789-3.998-3.999c0-2.209,1.788-3.998,3.998-3.998h23.989
		c2.21,0,3.998,1.789,3.998,3.998C355.837,118.157,354.049,119.945,351.839,119.945z"/>
	<path style="fill:#3A3847;" d="M343.843,83.962H327.85c-2.21,0-3.998-1.788-3.998-3.998s1.788-3.999,3.998-3.999h15.993
		c2.209,0,3.998,1.789,3.998,3.999S346.052,83.962,343.843,83.962z"/>
	<path style="fill:#3A3847;" d="M367.831,119.945c-2.21,0-3.998-1.789-3.998-3.999V43.98c0-2.209,1.788-3.998,3.998-3.998
		s3.998,1.789,3.998,3.998v71.967C371.829,118.157,370.041,119.945,367.831,119.945z"/>
	<path style="fill:#3A3847;" d="M395.819,63.971c-2.21,0-3.998-1.788-3.998-3.998c0-6.614-5.38-11.995-11.994-11.995
		c-2.21,0-3.999-1.789-3.999-3.999c0-2.209,1.789-3.998,3.999-3.998c11.026,0,19.99,8.969,19.99,19.991
		C399.817,62.183,398.029,63.971,395.819,63.971z"/>
	<path style="fill:#3A3847;" d="M379.826,119.938c-2.21,0-3.999-1.789-3.999-3.998c0-2.21,1.789-3.999,3.999-3.999
		c6.614,0,11.994-5.38,11.994-11.995c0-2.21,1.788-3.998,3.998-3.998s3.998,1.788,3.998,3.998
		C399.817,110.969,390.853,119.938,379.826,119.938z"/>
	<path style="fill:#3A3847;" d="M395.819,103.945c-2.21,0-3.998-1.788-3.998-3.998V59.973c0-2.21,1.788-3.998,3.998-3.998
		s3.998,1.788,3.998,3.998v39.974C399.817,102.156,398.029,103.945,395.819,103.945z"/>
	<path style="fill:#3A3847;" d="M379.826,119.938h-11.995c-2.21,0-3.998-1.789-3.998-3.998c0-2.21,1.788-3.999,3.998-3.999h11.995
		c2.21,0,3.998,1.789,3.998,3.999C383.824,118.149,382.036,119.938,379.826,119.938z"/>
	<path style="fill:#3A3847;" d="M379.826,47.978h-11.995c-2.21,0-3.998-1.789-3.998-3.999c0-2.209,1.788-3.998,3.998-3.998h11.995
		c2.21,0,3.998,1.789,3.998,3.998C383.824,46.19,382.036,47.978,379.826,47.978z"/>
	<path style="fill:#3A3847;" d="M407.814,439.799H103.952c-2.21,0-3.998-1.788-3.998-3.998v-15.993c0-2.21,1.788-3.998,3.998-3.998
		h303.861c2.209,0,3.998,1.788,3.998,3.998v15.993C411.812,438.011,410.023,439.799,407.814,439.799z M107.95,431.803h295.865
		v-7.997H107.95V431.803z"/>
	<path style="fill:#3A3847;" d="M191.92,479.78c-2.21,0-3.998-1.788-3.998-3.998v-23.989c0-2.21,1.788-3.998,3.998-3.998
		s3.998,1.788,3.998,3.998v23.989C195.918,477.992,194.13,479.78,191.92,479.78z"/>
	<path style="fill:#3A3847;" d="M223.905,463.756c-2.21,0-3.998-1.787-3.998-3.998c0-2.186-1.78-3.967-3.967-3.967
		s-3.968,1.781-3.968,3.967c0,2.211-1.788,3.998-3.998,3.998s-3.998-1.787-3.998-3.998c0-6.598,5.369-11.963,11.964-11.963
		s11.963,5.365,11.963,11.963C227.904,461.969,226.115,463.756,223.905,463.756z"/>
	<path style="fill:#3A3847;" d="M215.909,479.734c-6.595,0-11.964-5.364-11.964-11.963c0-2.21,1.788-3.999,3.998-3.999
		s3.999,1.789,3.999,3.999c0,2.187,1.78,3.967,3.967,3.967s3.967-1.78,3.967-3.967c0-2.21,1.788-3.999,3.998-3.999
		s3.998,1.789,3.998,3.999C227.872,474.369,222.504,479.734,215.909,479.734z"/>
	<path style="fill:#3A3847;" d="M207.975,471.784c-2.21,0-3.998-1.788-3.998-3.998v-8.028c0-2.209,1.788-3.998,3.998-3.998
		s3.998,1.789,3.998,3.998v8.028C211.973,469.996,210.185,471.784,207.975,471.784z"/>
	<path style="fill:#3A3847;" d="M223.905,471.784c-2.21,0-3.998-1.788-3.998-3.998v-8.028c0-2.209,1.788-3.998,3.998-3.998
		s3.998,1.789,3.998,3.998v8.028C227.904,469.996,226.115,471.784,223.905,471.784z"/>
	<path style="fill:#3A3847;" d="M263.871,463.756c-2.21,0-3.998-1.787-3.998-3.998c0-2.186-1.78-3.967-3.967-3.967
		c-2.187,0-3.967,1.781-3.967,3.967c0,2.211-1.788,3.998-3.998,3.998s-3.998-1.787-3.998-3.998c0-6.598,5.368-11.963,11.963-11.963
		c6.599,0,11.963,5.365,11.963,11.963C267.869,461.969,266.081,463.756,263.871,463.756z"/>
	<path style="fill:#3A3847;" d="M255.875,479.734c-6.595,0-11.963-5.364-11.963-11.963c0-2.21,1.788-3.999,3.998-3.999
		s3.998,1.789,3.998,3.999c0,2.187,1.78,3.967,3.967,3.967c2.187,0,3.967-1.78,3.967-3.967c0-2.21,1.788-3.999,3.998-3.999
		s3.998,1.789,3.998,3.999C267.838,474.369,262.474,479.734,255.875,479.734z"/>
	<path style="fill:#3A3847;" d="M247.942,471.784c-2.21,0-3.998-1.788-3.998-3.998v-8.028c0-2.209,1.788-3.998,3.998-3.998
		s3.998,1.789,3.998,3.998v8.028C251.94,469.996,250.152,471.784,247.942,471.784z"/>
	<path style="fill:#3A3847;" d="M263.871,471.784c-2.21,0-3.998-1.788-3.998-3.998v-8.028c0-2.209,1.788-3.998,3.998-3.998
		s3.998,1.789,3.998,3.998v8.028C267.869,469.996,266.081,471.784,263.871,471.784z"/>
	<path style="fill:#3A3847;" d="M295.857,463.756c-2.21,0-3.998-1.787-3.998-3.998c0-2.186-1.78-3.967-3.967-3.967
		s-3.967,1.781-3.967,3.967c0,2.211-1.789,3.998-3.998,3.998c-2.211,0-3.998-1.787-3.998-3.998c0-6.598,5.364-11.963,11.963-11.963
		s11.963,5.365,11.963,11.963C299.855,461.969,298.067,463.756,295.857,463.756z"/>
	<path style="fill:#3A3847;" d="M287.861,479.734c-6.599,0-11.963-5.364-11.963-11.963c0-2.21,1.787-3.999,3.998-3.999
		c2.209,0,3.998,1.789,3.998,3.999c0,2.187,1.78,3.967,3.967,3.967s3.967-1.78,3.967-3.967c0-2.21,1.788-3.999,3.998-3.999
		s3.998,1.789,3.998,3.999C299.823,474.369,294.459,479.734,287.861,479.734z"/>
	<path style="fill:#3A3847;" d="M279.927,471.784c-2.211,0-3.998-1.788-3.998-3.998v-8.028c0-2.209,1.787-3.998,3.998-3.998
		c2.209,0,3.998,1.789,3.998,3.998v8.028C283.925,469.996,282.136,471.784,279.927,471.784z"/>
	<path style="fill:#3A3847;" d="M295.857,471.784c-2.21,0-3.998-1.788-3.998-3.998v-8.028c0-2.209,1.788-3.998,3.998-3.998
		s3.998,1.789,3.998,3.998v8.028C299.855,469.996,298.067,471.784,295.857,471.784z"/>
	<path style="fill:#3A3847;" d="M327.842,463.756c-2.21,0-3.998-1.787-3.998-3.998c0-2.186-1.78-3.967-3.967-3.967
		s-3.967,1.781-3.967,3.967c0,2.211-1.788,3.998-3.999,3.998c-2.209,0-3.998-1.787-3.998-3.998c0-6.598,5.365-11.963,11.964-11.963
		s11.963,5.365,11.963,11.963C331.84,461.969,330.052,463.756,327.842,463.756z"/>
	<path style="fill:#3A3847;" d="M319.846,479.734c-6.599,0-11.964-5.364-11.964-11.963c0-2.21,1.789-3.999,3.998-3.999
		c2.211,0,3.999,1.789,3.999,3.999c0,2.187,1.78,3.967,3.967,3.967s3.967-1.78,3.967-3.967c0-2.21,1.788-3.999,3.998-3.999
		s3.998,1.789,3.998,3.999C331.809,474.369,326.445,479.734,319.846,479.734z"/>
	<path style="fill:#3A3847;" d="M311.911,471.784c-2.209,0-3.998-1.788-3.998-3.998v-8.028c0-2.209,1.789-3.998,3.998-3.998
		c2.211,0,3.999,1.789,3.999,3.998v8.028C315.91,469.996,314.122,471.784,311.911,471.784z"/>
	<path style="fill:#3A3847;" d="M327.842,471.784c-2.21,0-3.998-1.788-3.998-3.998v-8.028c0-2.209,1.788-3.998,3.998-3.998
		s3.998,1.789,3.998,3.998v8.028C331.84,469.996,330.052,471.784,327.842,471.784z"/>
	<path style="fill:#3A3847;" d="M87.96,391.821H63.971c-2.21,0-3.998-1.788-3.998-3.998s1.788-3.998,3.998-3.998H87.96
		c2.21,0,3.998,1.788,3.998,3.998S90.17,391.821,87.96,391.821z"/>
	<path style="fill:#3A3847;" d="M71.967,111.949h-7.996c-2.21,0-3.998-1.789-3.998-3.999c0-2.209,1.788-3.998,3.998-3.998h7.996
		c2.21,0,3.998,1.789,3.998,3.998C75.965,110.16,74.177,111.949,71.967,111.949z"/>
	<path style="fill:#3A3847;" d="M447.795,175.92H415.81c-2.21,0-3.998-1.789-3.998-3.998c0-2.21,1.788-3.999,3.998-3.999h31.985
		c2.21,0,3.998,1.789,3.998,3.999C451.793,174.131,450.005,175.92,447.795,175.92z"/>
	<path style="fill:#3A3847;" d="M447.795,351.839h-7.997c-2.209,0-3.998-1.788-3.998-3.998s1.789-3.998,3.998-3.998h7.997
		c2.21,0,3.998,1.788,3.998,3.998S450.005,351.839,447.795,351.839z"/>
	<path style="fill:#3A3847;" d="M399.817,135.938H111.948c-2.21,0-3.998-1.788-3.998-3.998s1.788-3.998,3.998-3.998h287.868
		c2.21,0,3.999,1.788,3.999,3.998S402.027,135.938,399.817,135.938z"/>
</g>
<g>
</g>
<g>
</g>
<g>
</g>
<g>
</g>
<g>
</g>
<g>
</g>
<g>
</g>
<g>
</g>
<g>
</g>
<g>
</g>
<g>
</g>
<g>
</g>
<g>
</g>
<g>
</g>
<g>
</g>
</svg>
