<?xml version="1.0" encoding="iso-8859-1"?>
<!-- Generator: Adobe Illustrator 19.0.0, SVG Export Plug-In . SVG Version: 6.00 Build 0)  -->
<svg version="1.1" id="Capa_1" xmlns="http://www.w3.org/2000/svg" xmlns:xlink="http://www.w3.org/1999/xlink" x="0px" y="0px"
	 viewBox="0 0 512 512" style="enable-background:new 0 0 512 512;" xml:space="preserve">
<g>
	<g>
		<path d="M202.437,127.508v96.473c-5.217-2.014-10.878-3.13-16.797-3.13c-25.805,0-46.798,20.993-46.798,46.798
			c0,25.803,20.993,46.796,46.798,46.796c25.777,0,46.752-20.951,46.795-46.718h0.002V148.509l102.722-37.415v74.999
			c-5.218-2.014-10.878-3.13-16.798-3.13c-25.804,0-46.797,20.993-46.797,46.797c0,25.805,20.993,46.798,46.797,46.798
			c25.556,0,46.38-20.594,46.779-46.058h0.019V68.238L202.437,127.508z M185.64,284.446c-9.263,0-16.798-7.535-16.798-16.797
			c0-9.263,7.535-16.798,16.798-16.798c9.262,0,16.797,7.535,16.797,16.798C202.437,276.911,194.902,284.446,185.64,284.446z
			 M318.36,246.558c-9.262,0-16.797-7.535-16.797-16.798c0-9.262,7.535-16.797,16.797-16.797c9.263,0,16.798,7.535,16.798,16.797
			C335.158,239.023,327.623,246.558,318.36,246.558z"/>
	</g>
</g>
<g>
	<g>
		<rect x="145.06" y="349.57" width="221.87" height="30"/>
	</g>
</g>
<g>
	<g>
		<rect x="145.06" y="409" width="221.87" height="30"/>
	</g>
</g>
<g>
	<g>
		<path d="M61,0v512h390V0H61z M421,482H91V30h330V482z"/>
	</g>
</g>
<g>
</g>
<g>
</g>
<g>
</g>
<g>
</g>
<g>
</g>
<g>
</g>
<g>
</g>
<g>
</g>
<g>
</g>
<g>
</g>
<g>
</g>
<g>
</g>
<g>
</g>
<g>
</g>
<g>
</g>
</svg>
