<?xml version="1.0" encoding="iso-8859-1"?>
<!-- Generator: Adobe Illustrator 19.0.0, SVG Export Plug-In . SVG Version: 6.00 Build 0)  -->
<svg version="1.1" id="Capa_1" xmlns="http://www.w3.org/2000/svg" xmlns:xlink="http://www.w3.org/1999/xlink" x="0px" y="0px"
	 viewBox="0 0 512 512" style="enable-background:new 0 0 512 512;" xml:space="preserve">
<g>
	<g>
		<path d="M478.993,117.171l-35.127-35.127V47.593c0-4.15-3.365-7.515-7.515-7.515h-34.451L364.024,2.201
			c-2.935-2.935-7.693-2.935-10.627,0l-22.671,22.671c-2.935,2.935-2.935,7.693,0,10.627l4.577,4.579H184.712l4.578-4.578
			c2.935-2.935,2.935-7.693,0-10.627L166.618,2.201c-2.935-2.935-7.693-2.935-10.627,0l-37.877,37.877H83.663
			c-4.15,0-7.515,3.365-7.515,7.515v34.451l-43.142,43.142c-2.935,2.935-2.935,7.693,0,10.627l22.671,22.671
			c2.895,2.895,7.732,2.895,10.627,0l9.844-9.843V256c0,4.15,3.365,7.515,7.515,7.515c4.15,0,7.515-3.365,7.515-7.515V133.612
			l78.504-78.504h180.65l78.505,78.504V496.97H91.178v-204.9c0-4.15-3.365-7.515-7.515-7.515c-4.15,0-7.515,3.365-7.515,7.515
			v212.415c0,4.15,3.365,7.515,7.515,7.515h352.689c4.15,0,7.515-3.365,7.515-7.515V148.641l1.828,1.828
			c2.895,2.895,7.732,2.895,10.627,0l22.671-22.671C481.928,124.863,481.928,120.104,478.993,117.171z M91.178,55.107h11.907
			L91.178,67.015V55.107z M60.991,142.544L48.947,130.5L161.305,18.141l12.044,12.045L60.991,142.544z M428.838,55.107v11.907
			L416.93,55.107H428.838z M451.008,134.529L346.666,30.186l12.045-12.045l104.343,104.343L451.008,134.529z"/>
	</g>
</g>
<g>
	<g>
		<path d="M276.039,240.469h-40.078c-2.486,0-4.509-2.023-4.509-4.509v-24.047c0-2.486,2.023-4.509,4.509-4.509h40.078
			c2.486,0,4.509,2.023,4.509,4.509c0,15.194,12.36,27.554,27.554,27.554s27.554-12.36,27.554-27.554
			c0-28.599-20.623-53.052-48.094-58.477v-5.648c0-15.194-12.36-27.554-27.554-27.554s-27.554,12.36-27.554,27.554v4.611
			c-31.246,1.823-56.11,27.82-56.11,59.514v24.047c0,32.873,26.743,59.616,59.616,59.616h40.078c2.486,0,4.509,2.023,4.509,4.509
			v24.047c0,2.486-2.023,4.509-4.509,4.509h-40.078c-2.486,0-4.509-2.023-4.509-4.509c0-15.194-12.36-27.554-27.554-27.554
			s-27.554,12.36-27.554,27.554c0,31.695,24.864,57.693,56.11,59.514v4.611c0,15.194,12.36,27.554,27.554,27.554
			s27.554-12.36,27.554-27.554v-5.647c27.471-5.426,48.094-29.878,48.094-58.478v-24.047
			C335.656,267.213,308.912,240.469,276.039,240.469z M320.626,324.133c0,23.153-18.076,42.674-41.152,44.44
			c-3.917,0.3-6.942,3.565-6.942,7.493v12.193c0,6.906-5.618,12.524-12.524,12.524s-12.524-5.618-12.524-12.524v-12.023
			c0-4.15-3.365-7.515-7.515-7.515h-4.008c-24.586,0-44.587-20.001-44.587-44.587c0-6.906,5.618-12.524,12.524-12.524
			s12.524,5.618,12.524,12.524c0,10.773,8.765,19.538,19.538,19.538h40.078c10.773,0,19.538-8.765,19.538-19.538v-24.047
			c0-10.774-8.765-19.538-19.538-19.538h-40.078c-24.586,0-44.587-20.001-44.587-44.587v-24.047
			c0-24.586,20.001-44.587,44.587-44.587h4.008c4.15,0,7.515-3.365,7.515-7.515v-12.023c0-6.906,5.618-12.524,12.524-12.524
			s12.524,5.618,12.524,12.524v12.193c0,3.928,3.025,7.193,6.942,7.493c23.076,1.765,41.152,21.286,41.152,44.44
			c0,6.906-5.618,12.524-12.524,12.524s-12.524-5.618-12.524-12.524c0-10.773-8.765-19.538-19.538-19.538h-40.078
			c-10.773,0-19.538,8.765-19.538,19.538v24.047c0,10.773,8.765,19.538,19.538,19.538h40.078c24.586,0,44.587,20.001,44.587,44.587
			V324.133z"/>
	</g>
</g>
<g>
	<g>
		<path d="M228.446,432.845h-56.611c-4.15,0-7.515,3.365-7.515,7.515c0,4.15,3.365,7.515,7.515,7.515h56.611
			c4.15,0,7.515-3.365,7.515-7.515C235.961,436.21,232.596,432.845,228.446,432.845z"/>
	</g>
</g>
<g>
	<g>
		<path d="M300.587,432.845h-40.579c-4.15,0-7.515,3.365-7.515,7.515c0,4.15,3.365,7.515,7.515,7.515h40.579
			c4.15,0,7.515-3.365,7.515-7.515C308.102,436.21,304.737,432.845,300.587,432.845z"/>
	</g>
</g>
<g>
	<g>
		<path d="M356.196,432.845h-24.047c-4.15,0-7.515,3.365-7.515,7.515c0,4.15,3.365,7.515,7.515,7.515h24.047
			c4.15,0,7.515-3.365,7.515-7.515C363.71,436.21,360.346,432.845,356.196,432.845z"/>
	</g>
</g>
<g>
	<g>
		<path d="M204.399,456.892h-32.564c-4.15,0-7.515,3.365-7.515,7.515s3.365,7.515,7.515,7.515h32.564
			c4.15,0,7.515-3.365,7.515-7.515S208.549,456.892,204.399,456.892z"/>
	</g>
</g>
<g>
	<g>
		<path d="M356.196,456.892H235.961c-4.15,0-7.515,3.365-7.515,7.515s3.365,7.515,7.515,7.515h120.235
			c4.15,0,7.515-3.365,7.515-7.515S360.346,456.892,356.196,456.892z"/>
	</g>
</g>
<g>
	<g>
		<path d="M155.804,216.422c-7.804,0-16.532-13.926-16.532-32.564c0-4.15-3.365-7.515-7.515-7.515c-4.15,0-7.515,3.365-7.515,7.515
			c0,18.637-8.728,32.564-16.532,32.564c-4.15,0-7.515,3.365-7.515,7.515s3.365,7.515,7.515,7.515
			c7.803,0,16.532,13.926,16.532,32.564c0,4.15,3.365,7.515,7.515,7.515c4.15,0,7.515-3.365,7.515-7.515
			c0-18.637,8.728-32.564,16.532-32.564c4.15,0,7.515-3.365,7.515-7.515S159.954,216.422,155.804,216.422z M131.757,232.867
			c-1.959-3.452-4.246-6.462-6.796-8.929c2.55-2.468,4.837-5.478,6.796-8.929c1.959,3.452,4.246,6.462,6.796,8.929
			C136.005,226.405,133.716,229.415,131.757,232.867z"/>
	</g>
</g>
<g>
	<g>
		<path d="M404.29,352.689c-7.804,0-16.532-13.926-16.532-32.564c0-4.15-3.365-7.515-7.515-7.515c-4.15,0-7.515,3.365-7.515,7.515
			c0,18.637-8.728,32.564-16.532,32.564c-4.15,0-7.515,3.365-7.515,7.515c0,4.15,3.365,7.515,7.515,7.515
			c7.804,0,16.532,13.926,16.532,32.564c0,4.15,3.365,7.515,7.515,7.515c4.15,0,7.515-3.365,7.515-7.515
			c0-18.637,8.728-32.564,16.532-32.564c4.15,0,7.515-3.365,7.515-7.515C411.804,356.053,408.44,352.689,404.29,352.689z
			 M380.243,369.133c-1.959-3.452-4.246-6.462-6.796-8.929c2.55-2.468,4.837-5.478,6.796-8.929c1.959,3.452,4.246,6.462,6.796,8.929
			C384.49,362.671,382.201,365.681,380.243,369.133z"/>
	</g>
</g>
<g>
	<g>
		<path d="M364.211,112.219c-7.804,0-16.532-13.926-16.532-32.564c0-4.15-3.365-7.515-7.515-7.515c-4.15,0-7.515,3.365-7.515,7.515
			c0,18.637-8.728,32.564-16.532,32.564c-4.15,0-7.515,3.365-7.515,7.515c0,4.15,3.365,7.515,7.515,7.515
			c7.804,0,16.532,13.926,16.532,32.564c0,4.15,3.365,7.515,7.515,7.515c4.15,0,7.515-3.365,7.515-7.515
			c0-18.637,8.728-32.564,16.532-32.564c4.15,0,7.515-3.365,7.515-7.515C371.726,115.583,368.361,112.219,364.211,112.219z
			 M340.164,128.663c-1.959-3.452-4.246-6.462-6.796-8.929c2.549-2.468,4.837-5.478,6.796-8.929
			c1.959,3.452,4.246,6.462,6.796,8.929C344.411,122.201,342.123,125.211,340.164,128.663z"/>
	</g>
</g>
<g>
</g>
<g>
</g>
<g>
</g>
<g>
</g>
<g>
</g>
<g>
</g>
<g>
</g>
<g>
</g>
<g>
</g>
<g>
</g>
<g>
</g>
<g>
</g>
<g>
</g>
<g>
</g>
<g>
</g>
</svg>
