<?xml version="1.0" encoding="iso-8859-1"?>
<!-- Generator: Adobe Illustrator 19.0.0, SVG Export Plug-In . SVG Version: 6.00 Build 0)  -->
<svg version="1.1" id="Capa_1" xmlns="http://www.w3.org/2000/svg" xmlns:xlink="http://www.w3.org/1999/xlink" x="0px" y="0px"
	 viewBox="0 0 512 512" style="enable-background:new 0 0 512 512;" xml:space="preserve">
<polygon style="fill:#E5E9EA;" points="429.182,28.807 429.182,467.644 333.051,512 82.818,512 82.818,28.807 "/>
<polygon style="fill:#53BCE9;" points="124.613,470.204 124.613,70.603 387.386,70.603 387.386,440.899 387.386,470.204 "/>
<path style="fill:#FCB65F;" d="M267.681,301.526c1.442-18.975,7.189-38.066,12.278-48.891
	c-15.465-20.511-10.898-51.952-22.173-63.227c-9.77-9.77-38.149,1.818-58.588,3.845c-7.993,0.794-14.764,0.125-18.735-3.845
	c-14.137-14.137,9.404-35.527,25.078-51.2c17.241-17.241,59.559-51.2,87.772-11.494s48.065,11.494,53.29,49.11
	c5.225,37.616-27.167,71.053-14.629,118.074c12.539,47.021,55.411,53.29,55.411,53.29v93.707v29.309h-61.68
	c-19.184-36.331-20.376-7.555-65.829-53.008c-20.083-20.083-20.898-45.004-15.538-66.571
	C251.088,323.396,267.681,301.526,267.681,301.526z"/>
<path style="fill:#FFFFFF;" d="M233.554,272.655c-23.834-5.538-41.597-26.906-41.597-52.423c0-9.833,2.633-19.049,7.241-26.979
	c20.438-2.027,48.818-13.615,58.588-3.845c11.274,11.274,6.708,42.716,22.173,63.227c-5.089,10.825-10.836,29.915-12.278,48.891
	c0,0-16.593,21.87-23.343,49.1c-44.784-9.112-40.605-30.898-40.605-30.898C218.769,299.488,233.554,281.495,233.554,272.655z"/>
<path style="fill:#FA3F68;" d="M175.239,394.208c-10.574-18.798,9.164-48.483,28.494-74.48c0,0-4.18,21.786,40.605,30.898
	c-5.36,21.567-4.545,46.488,15.538,66.571c45.453,45.453,46.644,16.677,65.829,53.008H198.226l-4.796-58.023v-0.01
	C186.733,408.816,180.306,403.215,175.239,394.208z"/>
<polygon style="fill:#D1D1D1;" points="429.182,467.644 333.051,512 392.357,439.429 "/>
<g>
	<path style="fill:#566368;" d="M145.607,0H122.67c-3.188,0-5.772,2.584-5.772,5.772v45.51c0,3.188,2.584,5.772,5.772,5.772h22.938
		c3.188,0,5.772-2.584,5.772-5.772V5.772C151.379,2.584,148.794,0,145.607,0z"/>
	<path style="fill:#566368;" d="M389.33,0h-22.938c-3.188,0-5.772,2.584-5.772,5.772v45.51c0,3.188,2.584,5.772,5.772,5.772h22.938
		c3.188,0,5.772-2.584,5.772-5.772V5.772C395.102,2.584,392.517,0,389.33,0z"/>
</g>
<g>
	<path style="fill:#E5E9EA;" d="M358.619,115.743h-21.245c-4.329,0-7.837-3.509-7.837-7.837c0-4.328,3.508-7.837,7.837-7.837h21.245
		c4.329,0,7.837,3.509,7.837,7.837C366.455,112.234,362.947,115.743,358.619,115.743z"/>
	<path style="fill:#E5E9EA;" d="M316.827,115.743c-6.838,0-10.38-8.539-5.549-13.375c2.371-2.373,6.107-2.962,9.1-1.445
		c2.966,1.504,4.675,4.846,4.196,8.135C324.021,112.848,320.65,115.743,316.827,115.743z"/>
</g>
<g>
	<path style="fill:#566368;" d="M239.854,228.241c-9.252,0-14.238-3.003-15.955-4.293l-0.968-0.671
		c-3.556-2.466-4.44-7.349-1.974-10.906c2.467-3.556,7.35-4.44,10.907-1.973l1.131,0.784c0.405,0.281,0.306,0.132,0.457,0.292
		c0.936,0.451,4.779,1.918,12.773,0.469c4.256-0.772,8.337,2.053,9.11,6.312c0.772,4.259-2.054,8.337-6.312,9.109
		C245.591,227.987,242.542,228.241,239.854,228.241z M233.63,211.671L233.63,211.671L233.63,211.671z"/>
	<path style="fill:#566368;" d="M194.331,228.153c-9.252,0-14.238-3.003-15.955-4.293l-0.968-0.671
		c-3.556-2.466-4.44-7.349-1.974-10.906c2.467-3.556,7.35-4.44,10.907-1.973l1.131,0.784c0.405,0.281,0.306,0.132,0.457,0.292
		c0.936,0.451,4.779,1.919,12.773,0.469c4.251-0.771,8.337,2.053,9.11,6.312c0.772,4.259-2.054,8.337-6.312,9.109
		C200.068,227.899,197.019,228.153,194.331,228.153z M188.107,211.583L188.107,211.583L188.107,211.583z"/>
</g>
<g>
</g>
<g>
</g>
<g>
</g>
<g>
</g>
<g>
</g>
<g>
</g>
<g>
</g>
<g>
</g>
<g>
</g>
<g>
</g>
<g>
</g>
<g>
</g>
<g>
</g>
<g>
</g>
<g>
</g>
</svg>
